<svg width="1343" height="487" viewBox="0 0 1343 487" fill="none" xmlns="http://www.w3.org/2000/svg">
<g clip-path="url(#clip0)">
<path d="M347.893 386.562H288.631V145.54H399.293L347.893 386.562Z" fill="url(#paint0_linear)"/>
<path d="M344.942 386.562H286.854V145.54H395.319L344.942 386.562Z" fill="#F5F5F5"/>
<path d="M237.728 -0.0213959L-0.00268555 66.4988L25.5504 157.972L263.282 91.4518L237.728 -0.0213959Z" fill="url(#paint1_linear)"/>
<path d="M236.589 1.72198L2.83063 67.1305L27.565 155.673L261.323 90.2644L236.589 1.72198Z" fill="white"/>
<path d="M60.1923 81.1745L28.5283 89.6589C26.544 90.1906 25.367 92.232 25.8993 94.2185L33.0741 120.995C33.6064 122.982 35.6465 124.161 37.6307 123.63L69.2947 115.145C71.279 114.614 72.456 112.572 71.9237 110.586L64.7489 83.8088C64.2166 81.8223 62.1766 80.6429 60.1923 81.1745Z" fill="#00C8DD"/>
<path d="M133.863 63.9462L75.0516 80.4024L76.3062 84.8934L135.118 68.4372L133.863 63.9462Z" fill="#BDBDBD"/>
<path d="M138.88 81.9013L80.0681 98.3576L81.3226 102.849L140.134 86.3924L138.88 81.9013Z" fill="white"/>
<path d="M172.067 62.9329L77.5565 89.378L78.8111 93.869L173.321 67.4239L172.067 62.9329Z" fill="#E0E0E0"/>
<path d="M302.747 20.3822L70.3208 106.985L103.887 197.22L336.313 110.618L302.747 20.3822Z" fill="url(#paint2_linear)"/>
<path d="M300.999 23.7372L73.5294 108.493L105.58 194.653L333.049 109.898L300.999 23.7372Z" fill="white"/>
<path d="M203.836 94.3437L146.606 115.668L148.232 120.038L205.461 98.7139L203.836 94.3437Z" fill="#BDBDBD"/>
<path d="M210.338 111.816L153.109 133.14L154.735 137.51L211.964 116.187L210.338 111.816Z" fill="white"/>
<path d="M243.077 90.1892L150.83 124.565L152.461 128.948L244.707 94.5727L243.077 90.1892Z" fill="#64FFDA"/>
<path d="M129.498 118.455L98.6937 129.666C96.7634 130.369 95.7687 132.505 96.4721 134.438L105.953 160.487C106.657 162.42 108.792 163.417 110.722 162.714L141.526 151.503C143.457 150.8 144.451 148.664 143.748 146.731L134.267 120.682C133.563 118.749 131.428 117.752 129.498 118.455Z" fill="#00C8DD"/>
<path d="M166.45 81.6506L149.48 176.998L393.028 220.417L409.998 125.069L166.45 81.6506Z" fill="url(#paint3_linear)"/>
<path d="M406.577 126.511L167.616 83.9103L151.507 174.423L390.468 217.024L406.577 126.511Z" fill="white"/>
<path d="M211.053 119.338L178.77 113.646C176.747 113.289 174.818 114.642 174.46 116.667L169.647 143.968C169.29 145.993 170.64 147.924 172.663 148.281L204.946 153.973C206.969 154.33 208.899 152.977 209.256 150.952L214.069 123.651C214.427 121.626 213.076 119.695 211.053 119.338Z" fill="#00C8DD"/>
<path d="M226.928 127.234L226.111 131.825L286.232 142.543L287.049 137.952L226.928 127.234Z" fill="#BDBDBD"/>
<path d="M223.665 145.596L222.847 150.187L282.968 160.905L283.785 156.314L223.665 145.596Z" fill="white"/>
<path d="M225.293 136.415L224.476 141.006L321.089 158.23L321.906 153.639L225.293 136.415Z" fill="#64FFDA"/>
<path d="M209.856 136.027C210.908 130.111 206.971 124.462 201.06 123.408C195.15 122.355 189.505 126.296 188.452 132.211C187.4 138.126 191.337 143.775 197.248 144.829C203.158 145.883 208.803 141.942 209.856 136.027Z" fill="#00C8DD"/>
<path d="M96.5493 142.705L56.5481 114.675H1.16345V142.705V156.436V391H347.309V142.705H96.5493Z" fill="url(#paint4_linear)"/>
<path d="M98.0443 145.54L58.6557 118.331H4.12543V145.54V158.872V386.562H344.942V145.54H98.0443Z" fill="white"/>
<path d="M267.694 329.68C267.699 330.761 267.274 331.799 266.514 332.567C265.755 333.335 264.721 333.769 263.642 333.775H85.4319C84.3521 333.769 83.3189 333.335 82.5591 332.567C81.7993 331.799 81.375 330.761 81.3795 329.68V207.839C81.375 206.758 81.7993 205.72 82.5591 204.952C83.3189 204.184 84.3521 203.75 85.4319 203.744H263.642C264.721 203.75 265.755 204.184 266.514 204.952C267.274 205.72 267.699 206.758 267.694 207.839" fill="url(#paint5_linear)"/>
<path d="M265.598 327.694C265.598 328.739 265.183 329.74 264.445 330.479C263.707 331.217 262.707 331.632 261.663 331.632H87.562C86.5186 331.632 85.5179 331.217 84.78 330.479C84.0422 329.74 83.6277 328.739 83.6277 327.694V209.914C83.6277 208.87 84.0422 207.869 84.78 207.13C85.5179 206.392 86.5186 205.977 87.562 205.977H261.641C262.684 205.977 263.685 206.392 264.423 207.13C265.161 207.869 265.575 208.87 265.575 209.914" fill="white"/>
<path d="M253.845 211.422H95.532C92.7848 211.422 90.5578 213.651 90.5578 216.4V321.625C90.5578 324.374 92.7848 326.603 95.532 326.603H253.845C256.592 326.603 258.819 324.374 258.819 321.625V216.4C258.819 213.651 256.592 211.422 253.845 211.422Z" fill="url(#paint6_linear)"/>
<path d="M251.597 214.229H97.6003C94.8532 214.229 92.6262 216.458 92.6262 219.207V318.385C92.6262 321.134 94.8532 323.363 97.6003 323.363H251.597C254.344 323.363 256.571 321.134 256.571 318.385V219.207C256.571 216.458 254.344 214.229 251.597 214.229Z" fill="#00C8DD"/>
</g>
<path d="M877.75 71H502.25C497.694 71 494 74.6978 494 79.2593V119.316C494 123.878 497.694 127.576 502.25 127.576H877.75C882.306 127.576 886 123.878 886 119.316V79.2593C886 74.6978 882.306 71 877.75 71Z" fill="url(#paint7_linear)"/>
<path d="M549.651 79.9461H516.126C514.071 79.9461 512.406 81.6134 512.406 83.67V116.056C512.406 118.113 514.071 119.78 516.126 119.78H549.651C551.705 119.78 553.37 118.113 553.37 116.056V83.67C553.37 81.6134 551.705 79.9461 549.651 79.9461Z" fill="url(#paint8_linear)"/>
<path d="M647.223 84.5663H568.409V89.7619H647.223V84.5663Z" fill="url(#paint9_linear)"/>
<path d="M679.888 96.6878H568.409V101.883H679.888V96.6878Z" fill="url(#paint10_linear)"/>
<path d="M877.75 157.647H502.25C497.694 157.647 494 161.345 494 165.907V205.963C494 210.525 497.694 214.223 502.25 214.223H877.75C882.306 214.223 886 210.525 886 205.963V165.907C886 161.345 882.306 157.647 877.75 157.647Z" fill="url(#paint11_linear)"/>
<path d="M549.651 166.593H516.126C514.071 166.593 512.406 168.261 512.406 170.317V202.703C512.406 204.76 514.071 206.427 516.126 206.427H549.651C551.705 206.427 553.37 204.76 553.37 202.703V170.317C553.37 168.261 551.705 166.593 549.651 166.593Z" fill="url(#paint12_linear)"/>
<path d="M647.223 171.214H568.409V176.409H647.223V171.214Z" fill="url(#paint13_linear)"/>
<path d="M679.888 183.335H568.409V188.531H679.888V183.335Z" fill="url(#paint14_linear)"/>
<path d="M877.75 243.782H502.25C497.694 243.782 494 247.479 494 252.041V292.098C494 296.659 497.694 300.357 502.25 300.357H877.75C882.306 300.357 886 296.659 886 292.098V252.041C886 247.479 882.306 243.782 877.75 243.782Z" fill="url(#paint15_linear)"/>
<path d="M549.651 252.728H516.126C514.071 252.728 512.406 254.395 512.406 256.452V288.838C512.406 290.894 514.071 292.562 516.126 292.562H549.651C551.705 292.562 553.37 290.894 553.37 288.838V256.452C553.37 254.395 551.705 252.728 549.651 252.728Z" fill="url(#paint16_linear)"/>
<path d="M647.223 257.348H568.409V262.544H647.223V257.348Z" fill="url(#paint17_linear)"/>
<path d="M679.888 269.469H568.409V274.665H679.888V269.469Z" fill="url(#paint18_linear)"/>
<path d="M877.75 330.424H502.25C497.694 330.424 494 334.122 494 338.684V378.741C494 383.302 497.694 387 502.25 387H877.75C882.306 387 886 383.302 886 378.741V338.684C886 334.122 882.306 330.424 877.75 330.424Z" fill="url(#paint19_linear)"/>
<path d="M549.651 339.375H516.126C514.071 339.375 512.406 341.042 512.406 343.099V375.485C512.406 377.542 514.071 379.209 516.126 379.209H549.651C551.705 379.209 553.37 377.542 553.37 375.485V343.099C553.37 341.042 551.705 339.375 549.651 339.375Z" fill="url(#paint20_linear)"/>
<path d="M647.223 343.991H568.409V349.186H647.223V343.991Z" fill="url(#paint21_linear)"/>
<path d="M679.888 356.117H568.409V361.312H679.888V356.117Z" fill="url(#paint22_linear)"/>
<path d="M874.187 73.0381H505.813C501.257 73.0381 497.564 76.7359 497.564 81.2974V114.727C497.564 119.289 501.257 122.987 505.813 122.987H874.187C878.743 122.987 882.436 119.289 882.436 114.727V81.2974C882.436 76.7359 878.743 73.0381 874.187 73.0381Z" fill="white"/>
<path d="M552.136 80.9406H519.355C517.301 80.9406 515.636 82.6079 515.636 84.6645V112.386C515.636 114.443 517.301 116.11 519.355 116.11H552.136C554.191 116.11 555.856 114.443 555.856 112.386V84.6645C555.856 82.6079 554.191 80.9406 552.136 80.9406Z" fill="#00C8DD"/>
<path d="M647.998 85.0168H570.618V89.6058H647.998V85.0168Z" fill="#BDBDBD"/>
<path d="M680.071 95.72H570.618V100.309H680.071V95.72Z" fill="#E0E0E0"/>
<path d="M874.187 159.685H505.813C501.257 159.685 497.564 163.383 497.564 167.945V201.374C497.564 205.936 501.257 209.634 505.813 209.634H874.187C878.743 209.634 882.436 205.936 882.436 201.374V167.945C882.436 163.383 878.743 159.685 874.187 159.685Z" fill="white"/>
<path d="M552.136 167.583H519.355C517.301 167.583 515.636 169.251 515.636 171.307V199.029C515.636 201.085 517.301 202.753 519.355 202.753H552.136C554.191 202.753 555.856 201.085 555.856 199.029V171.307C555.856 169.251 554.191 167.583 552.136 167.583Z" fill="#00C8DD"/>
<path d="M647.998 171.66H570.618V176.249H647.998V171.66Z" fill="#BDBDBD"/>
<path d="M680.071 182.363H570.618V186.952H680.071V182.363Z" fill="#64FFDA"/>
<path d="M874.187 246.328H505.813C501.257 246.328 497.564 250.026 497.564 254.587V288.017C497.564 292.579 501.257 296.277 505.813 296.277H874.187C878.743 296.277 882.436 292.579 882.436 288.017V254.587C882.436 250.026 878.743 246.328 874.187 246.328Z" fill="white"/>
<path d="M552.136 254.231H519.355C517.301 254.231 515.636 255.898 515.636 257.955V285.676C515.636 287.733 517.301 289.4 519.355 289.4H552.136C554.191 289.4 555.856 287.733 555.856 285.676V257.955C555.856 255.898 554.191 254.231 552.136 254.231Z" fill="#00C8DD"/>
<path d="M647.998 258.307H570.618V262.896H647.998V258.307Z" fill="#BDBDBD"/>
<path d="M680.071 269.01H570.618V273.599H680.071V269.01Z" fill="#E0E0E0"/>
<path d="M874.187 332.975H505.813C501.257 332.975 497.564 336.673 497.564 341.235V374.665C497.564 379.226 501.257 382.924 505.813 382.924H874.187C878.743 382.924 882.436 379.226 882.436 374.665V341.235C882.436 336.673 878.743 332.975 874.187 332.975Z" fill="white"/>
<path d="M552.136 340.873H519.355C517.301 340.873 515.636 342.541 515.636 344.597V372.319C515.636 374.375 517.301 376.043 519.355 376.043H552.136C554.191 376.043 555.856 374.375 555.856 372.319V344.597C555.856 342.541 554.191 340.873 552.136 340.873Z" fill="#00C8DD"/>
<path d="M647.998 344.954H570.618V349.543H647.998V344.954Z" fill="#BDBDBD"/>
<path d="M680.071 355.657H570.618V360.246H680.071V355.657Z" fill="#64FFDA"/>
<g clip-path="url(#clip1)">
<g opacity="0.5">
<path opacity="0.5" d="M1325.19 92.0038L1198.28 92.3125C1197.59 92.314 1196.92 92.4502 1196.28 92.7132C1195.65 92.9762 1195.08 93.361 1194.59 93.8455C1194.11 94.33 1193.73 94.9047 1193.47 95.537C1193.21 96.1692 1193.07 96.8465 1193.08 97.5301L1193.63 334.545C1193.63 335.231 1193.77 335.909 1194.04 336.541C1194.3 337.173 1194.69 337.747 1195.18 338.229C1195.66 338.711 1196.24 339.093 1196.88 339.351C1197.51 339.61 1198.19 339.741 1198.88 339.736L1325.8 339.428C1326.48 339.426 1327.16 339.29 1327.79 339.027C1328.42 338.764 1329 338.379 1329.48 337.895C1329.96 337.41 1330.35 336.835 1330.61 336.203C1330.87 335.571 1331 334.894 1331 334.21L1330.42 97.1909C1330.42 95.8108 1329.86 94.4892 1328.88 93.5165C1327.9 92.5439 1326.58 91.9998 1325.19 92.0038V92.0038Z" fill="url(#paint23_linear)"/>
</g>
<path d="M1323.36 95.234L1200.13 95.5346C1197.25 95.5416 1194.93 97.8748 1194.94 100.746L1195.5 331.201C1195.51 334.072 1197.84 336.394 1200.72 336.387L1323.94 336.086C1326.82 336.079 1329.15 333.746 1329.14 330.875L1328.57 100.42C1328.57 97.5488 1326.23 95.227 1323.36 95.234Z" fill="white"/>
<path opacity="0.3" d="M1295.33 101.345C1294.95 103.9 1293.67 106.235 1291.71 107.927C1289.76 109.619 1287.26 110.558 1284.68 110.572L1238.51 110.679C1235.93 110.674 1233.43 109.747 1231.47 108.065C1229.51 106.383 1228.22 104.056 1227.83 101.505L1203.38 101.566C1202.71 101.568 1202.05 101.7 1201.44 101.957C1200.82 102.213 1200.26 102.587 1199.79 103.059C1199.32 103.531 1198.95 104.09 1198.69 104.706C1198.44 105.322 1198.31 105.981 1198.31 106.647L1198.84 325.288C1198.84 325.954 1198.98 326.614 1199.23 327.229C1199.49 327.844 1199.87 328.402 1200.34 328.872C1200.81 329.341 1201.38 329.713 1201.99 329.966C1202.61 330.219 1203.27 330.348 1203.94 330.345L1320.74 330.063C1321.41 330.062 1322.07 329.929 1322.68 329.673C1323.3 329.417 1323.86 329.042 1324.33 328.571C1324.8 328.099 1325.17 327.539 1325.42 326.924C1325.68 326.308 1325.81 325.649 1325.81 324.983L1325.27 106.342C1325.27 105.676 1325.14 105.017 1324.88 104.403C1324.63 103.788 1324.25 103.23 1323.78 102.761C1323.31 102.291 1322.75 101.919 1322.13 101.666C1321.51 101.412 1320.85 101.283 1320.19 101.284L1295.33 101.345Z" fill="#00C8DD"/>
<path d="M1274.67 104.112L1246.42 104.536C1245.99 104.542 1245.66 104.889 1245.66 105.309L1245.67 105.645C1245.68 106.066 1246.02 106.402 1246.44 106.396L1274.69 105.972C1275.12 105.966 1275.45 105.619 1275.45 105.199L1275.44 104.863C1275.44 104.442 1275.09 104.106 1274.67 104.112Z" fill="#DBDBDB"/>
<path d="M1281.79 105.866C1282.41 105.857 1282.9 105.349 1282.89 104.733C1282.88 104.116 1282.37 103.624 1281.76 103.633C1281.14 103.642 1280.64 104.149 1280.65 104.766C1280.66 105.383 1281.17 105.875 1281.79 105.866Z" fill="#DBDBDB"/>
<g opacity="0.5">
<path opacity="0.5" d="M975.806 92.0044L1102.72 92.3131C1103.41 92.3146 1104.08 92.4507 1104.72 92.7137C1105.35 92.9768 1105.92 93.3615 1106.41 93.846C1106.89 94.3305 1107.27 94.9053 1107.53 95.5375C1107.79 96.1697 1107.93 96.847 1107.92 97.5307L1107.37 334.546C1107.37 335.231 1107.23 335.909 1106.96 336.542C1106.7 337.174 1106.31 337.747 1105.82 338.23C1105.34 338.712 1104.76 339.093 1104.12 339.352C1103.49 339.611 1102.81 339.741 1102.12 339.737L975.203 339.428C974.518 339.427 973.84 339.291 973.208 339.028C972.576 338.765 972.002 338.38 971.519 337.895C971.036 337.411 970.653 336.836 970.393 336.204C970.132 335.572 969.999 334.894 970 334.211L970.576 97.1915C970.581 95.8114 971.135 94.4898 972.116 93.5171C973.096 92.5444 974.424 92.0003 975.806 92.0044V92.0044Z" fill="url(#paint24_linear)"/>
</g>
<path d="M977.057 336.087L1100.28 336.387C1103.16 336.394 1105.49 334.073 1105.5 331.201L1106.06 100.746C1106.07 97.8749 1103.75 95.5417 1100.87 95.5347L977.646 95.2341C974.771 95.2271 972.434 97.5489 972.427 100.42L971.863 330.875C971.856 333.746 974.181 336.08 977.057 336.087Z" fill="white"/>
<path opacity="0.3" d="M1005.67 101.345C1006.05 103.9 1007.33 106.235 1009.29 107.927C1011.24 109.619 1013.74 110.558 1016.32 110.572L1062.48 110.683C1065.07 110.678 1067.57 109.751 1069.53 108.069C1071.49 106.386 1072.78 104.06 1073.17 101.509L1097.62 101.57C1098.29 101.572 1098.95 101.704 1099.56 101.96C1100.18 102.216 1100.73 102.591 1101.21 103.063C1101.68 103.535 1102.05 104.094 1102.3 104.71C1102.56 105.325 1102.69 105.985 1102.68 106.651L1102.15 325.292C1102.15 325.957 1102.02 326.616 1101.76 327.23C1101.5 327.845 1101.13 328.402 1100.66 328.872C1100.18 329.341 1099.62 329.713 1099.01 329.965C1098.39 330.218 1097.73 330.347 1097.06 330.345L980.26 330.063C979.594 330.062 978.934 329.929 978.318 329.673C977.703 329.417 977.144 329.042 976.674 328.571C976.203 328.099 975.831 327.539 975.577 326.924C975.323 326.308 975.193 325.649 975.195 324.983L975.726 106.342C975.727 105.676 975.86 105.017 976.116 104.403C976.373 103.788 976.748 103.23 977.221 102.761C977.693 102.291 978.254 101.919 978.87 101.666C979.487 101.412 980.147 101.283 980.814 101.284L1005.67 101.345Z" fill="#00C8DD"/>
<path d="M1026.3 105.967L1054.55 106.391C1054.97 106.397 1055.32 106.061 1055.33 105.64L1055.33 105.305C1055.34 104.884 1055 104.537 1054.58 104.531L1026.33 104.108C1025.91 104.101 1025.56 104.437 1025.55 104.858L1025.55 105.194C1025.54 105.615 1025.88 105.961 1026.3 105.967Z" fill="#DBDBDB"/>
<path d="M1020.34 104.76C1020.35 104.143 1019.86 103.636 1019.24 103.627C1018.62 103.618 1018.12 104.11 1018.11 104.727C1018.1 105.343 1018.59 105.851 1019.21 105.86C1019.83 105.869 1020.33 105.377 1020.34 104.76Z" fill="#DBDBDB"/>
<g opacity="0.5">
<path opacity="0.5" d="M1213.36 139.264L1086.44 139.572C1085.75 139.574 1085.08 139.71 1084.44 139.973C1083.81 140.236 1083.24 140.621 1082.76 141.105C1082.27 141.59 1081.89 142.164 1081.63 142.797C1081.37 143.429 1081.23 144.106 1081.24 144.79L1081.79 381.805C1081.8 382.491 1081.93 383.169 1082.2 383.801C1082.46 384.433 1082.85 385.007 1083.34 385.489C1083.83 385.971 1084.4 386.353 1085.04 386.611C1085.67 386.87 1086.36 387.001 1087.04 386.996L1213.96 386.687C1214.64 386.686 1215.32 386.55 1215.95 386.287C1216.58 386.024 1217.16 385.639 1217.64 385.154C1218.12 384.67 1218.51 384.095 1218.77 383.463C1219.03 382.831 1219.16 382.154 1219.16 381.47L1218.58 144.451C1218.58 143.071 1218.03 141.749 1217.05 140.776C1216.06 139.804 1214.74 139.26 1213.36 139.264V139.264Z" fill="url(#paint25_linear)"/>
</g>
<path d="M1015 151H982V183H1015V151Z" fill="url(#paint26_linear)"/>
<path d="M1015 215H983V248H1015V215Z" fill="url(#paint27_linear)"/>
<path d="M1015 279H983V312H1015V279Z" fill="url(#paint28_linear)"/>
<path d="M1014 152H983V181H1014V152Z" fill="#00C8DD"/>
<path d="M1014 280H984V310H1014V280Z" fill="#00C8DD"/>
<path d="M1075 161H1034V164H1075V161Z" fill="#E0E0E0"/>
<path d="M1102 166H1034V169H1102V166Z" fill="#E0E0E0"/>
<path d="M1097 170H1034V173H1097V170Z" fill="#E0E0E0"/>
<path d="M1075 225H1034V228H1075V225Z" fill="#E0E0E0"/>
<path d="M1102 230H1034V233H1102V230Z" fill="#E0E0E0"/>
<path d="M1097 234H1034V237H1097V234Z" fill="#E0E0E0"/>
<path d="M1075 289H1034V292H1075V289Z" fill="#E0E0E0"/>
<path d="M1102 294H1034V297H1102V294Z" fill="#E0E0E0"/>
<path d="M1097 298H1034V301H1097V298Z" fill="#E0E0E0"/>
<path d="M1014 216H984V246H1014V216Z" fill="#35FDB5"/>
<path d="M993 228.6L997.8 233L1004.6 223L1007 225L997.8 237L991 229.4L993 228.6Z" fill="white"/>
<path d="M1234 151H1201V183H1234V151Z" fill="url(#paint29_linear)"/>
<path d="M1234 215H1202V248H1234V215Z" fill="url(#paint30_linear)"/>
<path d="M1234 279H1202V312H1234V279Z" fill="url(#paint31_linear)"/>
<path d="M1233 152H1203V182H1233V152Z" fill="#00C8DD"/>
<path d="M1233 216H1203V246H1233V216Z" fill="#00C8DD"/>
<path d="M1233 280H1203V310H1233V280Z" fill="#35FDB5"/>
<path d="M1294 161H1253V164H1294V161Z" fill="#E0E0E0"/>
<path d="M1321 166H1253V169H1321V166Z" fill="#E0E0E0"/>
<path d="M1316 170H1253V173H1316V170Z" fill="#E0E0E0"/>
<path d="M1294 225H1253V228H1294V225Z" fill="#E0E0E0"/>
<path d="M1321 230H1253V233H1321V230Z" fill="#E0E0E0"/>
<path d="M1316 234H1253V237H1316V234Z" fill="#E0E0E0"/>
<path d="M1294 289H1253V292H1294V289Z" fill="#E0E0E0"/>
<path d="M1321 294H1253V297H1321V294Z" fill="#E0E0E0"/>
<path d="M1316 298H1253V301H1316V298Z" fill="#E0E0E0"/>
<path d="M1212 294.6L1216.8 299L1223.6 289L1226 291L1216.8 303L1210 295.4L1212 294.6Z" fill="white"/>
<path d="M1211.52 142.496L1088.29 142.797C1085.42 142.804 1083.09 145.137 1083.1 148.008L1083.66 378.463C1083.67 381.334 1086.01 383.656 1088.88 383.649L1212.11 383.348C1214.98 383.341 1217.31 381.008 1217.3 378.137L1216.74 147.682C1216.73 144.811 1214.39 142.489 1211.52 142.496Z" fill="white"/>
<path opacity="0.4" d="M1183.49 148.605C1183.11 151.16 1181.83 153.494 1179.87 155.187C1177.92 156.879 1175.42 157.817 1172.84 157.832L1126.67 157.939C1124.09 157.934 1121.59 157.007 1119.63 155.325C1117.67 153.642 1116.38 151.316 1115.99 148.765L1091.54 148.826C1090.87 148.828 1090.21 148.96 1089.6 149.216C1088.98 149.472 1088.42 149.847 1087.95 150.319C1087.48 150.791 1087.11 151.35 1086.86 151.966C1086.6 152.581 1086.47 153.241 1086.47 153.906L1087 372.548C1087.01 373.214 1087.14 373.873 1087.4 374.488C1087.65 375.103 1088.03 375.662 1088.5 376.131C1088.97 376.601 1089.54 376.973 1090.15 377.226C1090.77 377.479 1091.43 377.608 1092.1 377.605L1208.9 377.323C1209.57 377.322 1210.23 377.189 1210.84 376.933C1211.46 376.677 1212.02 376.302 1212.49 375.83C1212.96 375.359 1213.33 374.799 1213.58 374.183C1213.84 373.568 1213.97 372.908 1213.97 372.243L1213.44 153.602C1213.43 152.936 1213.3 152.277 1213.04 151.663C1212.79 151.048 1212.41 150.49 1211.94 150.021C1211.47 149.551 1210.91 149.179 1210.29 148.925C1209.67 148.672 1209.01 148.543 1208.35 148.544L1183.49 148.605Z" fill="#00C8DD"/>
<path d="M1123 196H1090V228H1123V196Z" fill="url(#paint32_linear)"/>
<path d="M1123 260H1091V293H1123V260Z" fill="url(#paint33_linear)"/>
<path d="M1123 324H1091V357H1123V324Z" fill="url(#paint34_linear)"/>
<path d="M1122 197H1092V227H1122V197Z" fill="#35FDB5"/>
<path d="M1122 261H1092V291H1122V261Z" fill="#00C8DD"/>
<path d="M1122 325H1092V355H1122V325Z" fill="#00C8DD"/>
<path d="M1183 206H1142V209H1183V206Z" fill="#E0E0E0"/>
<path d="M1210 211H1142V214H1210V211Z" fill="#E0E0E0"/>
<path d="M1205 215H1142V218H1205V215Z" fill="#E0E0E0"/>
<path d="M1183 270H1142V273H1183V270Z" fill="#E0E0E0"/>
<path d="M1210 275H1142V278H1210V275Z" fill="#E0E0E0"/>
<path d="M1205 279H1142V282H1205V279Z" fill="#E0E0E0"/>
<path d="M1183 334H1142V337H1183V334Z" fill="#E0E0E0"/>
<path d="M1210 339H1142V342H1210V339Z" fill="#E0E0E0"/>
<path d="M1205 343H1142V346H1205V343Z" fill="#E0E0E0"/>
<path d="M1100.25 210.396L1105.65 215.429L1113.3 204L1116 206.286L1105.65 220L1098 211.314L1100.25 210.396Z" fill="url(#paint35_linear)"/>
<path d="M1101 210.6L1105.8 215L1112.6 205L1115 207L1105.8 219L1099 211.4L1101 210.6Z" fill="white"/>
<path d="M1200 172H1100V183H1200V172Z" fill="#F5F5F5"/>
<path d="M1090 128H990V139H1090V128Z" fill="#F5F5F5"/>
<path d="M1314 128H1214V139H1314V128Z" fill="#F5F5F5"/>
<path d="M1162.83 151.37L1134.57 151.793C1134.15 151.8 1133.82 152.146 1133.82 152.567L1133.83 152.902C1133.83 153.323 1134.18 153.659 1134.6 153.653L1162.85 153.23C1163.27 153.223 1163.61 152.877 1163.61 152.456L1163.6 152.121C1163.59 151.7 1163.25 151.363 1162.83 151.37Z" fill="#DBDBDB"/>
<path d="M1169.95 153.123C1170.57 153.114 1171.06 152.607 1171.05 151.99C1171.04 151.373 1170.53 150.881 1169.91 150.89C1169.3 150.899 1168.8 151.407 1168.81 152.023C1168.82 152.64 1169.33 153.133 1169.95 153.123Z" fill="#DBDBDB"/>
<g opacity="0.5">
<path opacity="0.5" d="M1172.83 336.264C1184.21 336.264 1193.44 327.05 1193.44 315.684C1193.44 304.317 1184.21 295.103 1172.83 295.103C1161.45 295.103 1152.22 304.317 1152.22 315.684C1152.22 327.05 1161.45 336.264 1172.83 336.264Z" fill="url(#paint36_linear)"/>
</g>
</g>
<path d="M638.865 455L636.345 447.584H626.193L623.673 455H620.613L629.397 429.872H633.249L642.033 455H638.865ZM631.341 432.68H631.161L626.913 444.92H635.589L631.341 432.68ZM652.82 455.432C651.524 455.432 650.36 455.204 649.328 454.748C648.296 454.292 647.42 453.644 646.7 452.804C646.004 451.964 645.464 450.944 645.08 449.744C644.72 448.544 644.54 447.2 644.54 445.712C644.54 444.224 644.72 442.88 645.08 441.68C645.464 440.48 646.004 439.46 646.7 438.62C647.42 437.78 648.296 437.132 649.328 436.676C650.36 436.22 651.524 435.992 652.82 435.992C654.668 435.992 656.144 436.4 657.248 437.216C658.376 438.008 659.216 439.052 659.768 440.348L657.356 441.572C657.02 440.612 656.468 439.868 655.7 439.34C654.932 438.812 653.972 438.548 652.82 438.548C651.956 438.548 651.2 438.692 650.552 438.98C649.904 439.244 649.364 439.628 648.932 440.132C648.5 440.612 648.176 441.2 647.96 441.896C647.744 442.568 647.636 443.312 647.636 444.128V447.296C647.636 448.928 648.068 450.272 648.932 451.328C649.82 452.36 651.116 452.876 652.82 452.876C655.148 452.876 656.828 451.796 657.86 449.636L659.948 451.04C659.348 452.384 658.448 453.452 657.248 454.244C656.072 455.036 654.596 455.432 652.82 455.432ZM668.117 455C667.109 455 666.341 454.724 665.813 454.172C665.309 453.596 665.057 452.852 665.057 451.94V438.944H661.997V436.424H663.725C664.349 436.424 664.769 436.304 664.985 436.064C665.225 435.8 665.345 435.356 665.345 434.732V431.276H667.937V436.424H672.005V438.944H667.937V452.48H671.717V455H668.117ZM678.074 432.068C677.45 432.068 676.994 431.924 676.706 431.636C676.442 431.324 676.31 430.928 676.31 430.448V429.98C676.31 429.5 676.442 429.116 676.706 428.828C676.994 428.516 677.45 428.36 678.074 428.36C678.698 428.36 679.142 428.516 679.406 428.828C679.694 429.116 679.838 429.5 679.838 429.98V430.448C679.838 430.928 679.694 431.324 679.406 431.636C679.142 431.924 678.698 432.068 678.074 432.068ZM676.634 436.424H679.514V455H676.634V436.424ZM689.738 455L683.222 436.424H686.102L689.342 445.64L691.358 451.976H691.538L693.554 445.64L696.866 436.424H699.638L693.086 455H689.738ZM704.793 432.068C704.169 432.068 703.713 431.924 703.425 431.636C703.161 431.324 703.029 430.928 703.029 430.448V429.98C703.029 429.5 703.161 429.116 703.425 428.828C703.713 428.516 704.169 428.36 704.793 428.36C705.417 428.36 705.861 428.516 706.125 428.828C706.413 429.116 706.557 429.5 706.557 429.98V430.448C706.557 430.928 706.413 431.324 706.125 431.636C705.861 431.924 705.417 432.068 704.793 432.068ZM703.353 436.424H706.233V455H703.353V436.424ZM716.457 455C715.449 455 714.681 454.724 714.153 454.172C713.649 453.596 713.397 452.852 713.397 451.94V438.944H710.337V436.424H712.065C712.689 436.424 713.109 436.304 713.325 436.064C713.565 435.8 713.685 435.356 713.685 434.732V431.276H716.277V436.424H720.345V438.944H716.277V452.48H720.057V455H716.457ZM726.414 432.068C725.79 432.068 725.334 431.924 725.046 431.636C724.782 431.324 724.65 430.928 724.65 430.448V429.98C724.65 429.5 724.782 429.116 725.046 428.828C725.334 428.516 725.79 428.36 726.414 428.36C727.038 428.36 727.482 428.516 727.746 428.828C728.034 429.116 728.178 429.5 728.178 429.98V430.448C728.178 430.928 728.034 431.324 727.746 431.636C727.482 431.924 727.038 432.068 726.414 432.068ZM724.974 436.424H727.854V455H724.974V436.424ZM740.958 455.432C739.686 455.432 738.534 455.204 737.502 454.748C736.494 454.292 735.618 453.644 734.874 452.804C734.154 451.94 733.59 450.92 733.182 449.744C732.798 448.544 732.606 447.2 732.606 445.712C732.606 444.248 732.798 442.916 733.182 441.716C733.59 440.516 734.154 439.496 734.874 438.656C735.618 437.792 736.494 437.132 737.502 436.676C738.534 436.22 739.686 435.992 740.958 435.992C742.206 435.992 743.322 436.22 744.306 436.676C745.29 437.132 746.13 437.768 746.826 438.584C747.522 439.376 748.05 440.324 748.41 441.428C748.794 442.532 748.986 443.744 748.986 445.064V446.432H735.63V447.296C735.63 448.088 735.75 448.832 735.99 449.528C736.254 450.2 736.614 450.788 737.07 451.292C737.55 451.796 738.126 452.192 738.798 452.48C739.494 452.768 740.274 452.912 741.138 452.912C742.314 452.912 743.334 452.636 744.198 452.084C745.086 451.532 745.77 450.74 746.25 449.708L748.302 451.184C747.702 452.456 746.766 453.488 745.494 454.28C744.222 455.048 742.71 455.432 740.958 455.432ZM740.958 438.404C740.166 438.404 739.446 438.548 738.798 438.836C738.15 439.1 737.586 439.484 737.106 439.988C736.65 440.492 736.29 441.092 736.026 441.788C735.762 442.46 735.63 443.204 735.63 444.02V444.272H745.89V443.876C745.89 442.22 745.434 440.9 744.522 439.916C743.634 438.908 742.446 438.404 740.958 438.404ZM759.312 455.432C757.584 455.432 756.132 455.108 754.956 454.46C753.804 453.788 752.808 452.9 751.968 451.796L754.02 450.14C754.74 451.052 755.544 451.76 756.432 452.264C757.32 452.744 758.352 452.984 759.528 452.984C760.752 452.984 761.7 452.72 762.372 452.192C763.068 451.664 763.416 450.92 763.416 449.96C763.416 449.24 763.176 448.628 762.696 448.124C762.24 447.596 761.4 447.236 760.176 447.044L758.7 446.828C757.836 446.708 757.044 446.528 756.324 446.288C755.604 446.024 754.968 445.688 754.416 445.28C753.888 444.848 753.468 444.32 753.156 443.696C752.868 443.072 752.724 442.328 752.724 441.464C752.724 440.552 752.892 439.76 753.228 439.088C753.564 438.392 754.02 437.816 754.596 437.36C755.196 436.904 755.904 436.568 756.72 436.352C757.536 436.112 758.412 435.992 759.348 435.992C760.86 435.992 762.12 436.256 763.128 436.784C764.16 437.312 765.06 438.044 765.828 438.98L763.92 440.708C763.512 440.132 762.912 439.616 762.12 439.16C761.328 438.68 760.332 438.44 759.132 438.44C757.932 438.44 757.02 438.704 756.396 439.232C755.796 439.736 755.496 440.432 755.496 441.32C755.496 442.232 755.796 442.892 756.396 443.3C757.02 443.708 757.908 444.008 759.06 444.2L760.5 444.416C762.564 444.728 764.028 445.328 764.892 446.216C765.756 447.08 766.188 448.22 766.188 449.636C766.188 451.436 765.576 452.852 764.352 453.884C763.128 454.916 761.448 455.432 759.312 455.432Z" fill="#7E7E7E"/>
<path d="M122.131 455L119.611 447.584H109.459L106.939 455H103.879L112.663 429.872H116.515L125.299 455H122.131ZM114.607 432.68H114.427L110.179 444.92H118.855L114.607 432.68ZM136.085 455.432C134.789 455.432 133.625 455.204 132.593 454.748C131.561 454.292 130.685 453.644 129.965 452.804C129.269 451.964 128.729 450.944 128.345 449.744C127.985 448.544 127.805 447.2 127.805 445.712C127.805 444.224 127.985 442.88 128.345 441.68C128.729 440.48 129.269 439.46 129.965 438.62C130.685 437.78 131.561 437.132 132.593 436.676C133.625 436.22 134.789 435.992 136.085 435.992C137.933 435.992 139.409 436.4 140.513 437.216C141.641 438.008 142.481 439.052 143.033 440.348L140.621 441.572C140.285 440.612 139.733 439.868 138.965 439.34C138.197 438.812 137.237 438.548 136.085 438.548C135.221 438.548 134.465 438.692 133.817 438.98C133.169 439.244 132.629 439.628 132.197 440.132C131.765 440.612 131.441 441.2 131.225 441.896C131.009 442.568 130.901 443.312 130.901 444.128V447.296C130.901 448.928 131.333 450.272 132.197 451.328C133.085 452.36 134.381 452.876 136.085 452.876C138.413 452.876 140.093 451.796 141.125 449.636L143.213 451.04C142.613 452.384 141.713 453.452 140.513 454.244C139.337 455.036 137.861 455.432 136.085 455.432ZM151.383 455C150.375 455 149.607 454.724 149.079 454.172C148.575 453.596 148.323 452.852 148.323 451.94V438.944H145.263V436.424H146.991C147.615 436.424 148.035 436.304 148.251 436.064C148.491 435.8 148.611 435.356 148.611 434.732V431.276H151.203V436.424H155.271V438.944H151.203V452.48H154.983V455H151.383ZM161.34 432.068C160.716 432.068 160.26 431.924 159.972 431.636C159.708 431.324 159.576 430.928 159.576 430.448V429.98C159.576 429.5 159.708 429.116 159.972 428.828C160.26 428.516 160.716 428.36 161.34 428.36C161.964 428.36 162.408 428.516 162.672 428.828C162.96 429.116 163.104 429.5 163.104 429.98V430.448C163.104 430.928 162.96 431.324 162.672 431.636C162.408 431.924 161.964 432.068 161.34 432.068ZM159.9 436.424H162.78V455H159.9V436.424ZM173.004 455L166.488 436.424H169.368L172.608 445.64L174.624 451.976H174.804L176.82 445.64L180.132 436.424H182.904L176.352 455H173.004ZM188.059 432.068C187.435 432.068 186.979 431.924 186.691 431.636C186.427 431.324 186.295 430.928 186.295 430.448V429.98C186.295 429.5 186.427 429.116 186.691 428.828C186.979 428.516 187.435 428.36 188.059 428.36C188.683 428.36 189.127 428.516 189.391 428.828C189.679 429.116 189.823 429.5 189.823 429.98V430.448C189.823 430.928 189.679 431.324 189.391 431.636C189.127 431.924 188.683 432.068 188.059 432.068ZM186.619 436.424H189.499V455H186.619V436.424ZM199.723 455C198.715 455 197.947 454.724 197.419 454.172C196.915 453.596 196.663 452.852 196.663 451.94V438.944H193.603V436.424H195.331C195.955 436.424 196.375 436.304 196.591 436.064C196.831 435.8 196.951 435.356 196.951 434.732V431.276H199.543V436.424H203.611V438.944H199.543V452.48H203.323V455H199.723ZM219.688 436.424H222.532L214.216 459.32C214 459.872 213.784 460.328 213.568 460.688C213.352 461.072 213.088 461.372 212.776 461.588C212.464 461.804 212.068 461.96 211.588 462.056C211.132 462.152 210.568 462.2 209.896 462.2H208.42V459.68H211.336L212.74 455.72L205.792 436.424H208.672L213.136 449.06L214 452.084H214.18L215.188 449.06L219.688 436.424ZM242.056 455.432C240.016 455.432 238.276 455.048 236.836 454.28C235.396 453.488 234.172 452.408 233.164 451.04L235.396 449.168C236.284 450.344 237.268 451.244 238.348 451.868C239.428 452.468 240.7 452.768 242.164 452.768C243.964 452.768 245.332 452.336 246.268 451.472C247.228 450.608 247.708 449.456 247.708 448.016C247.708 446.816 247.348 445.892 246.628 445.244C245.908 444.596 244.72 444.08 243.064 443.696L241.012 443.228C238.708 442.7 236.944 441.908 235.72 440.852C234.52 439.772 233.92 438.26 233.92 436.316C233.92 435.212 234.124 434.228 234.532 433.364C234.94 432.5 235.504 431.78 236.224 431.204C236.968 430.628 237.844 430.196 238.852 429.908C239.884 429.596 241.012 429.44 242.236 429.44C244.132 429.44 245.752 429.788 247.096 430.484C248.464 431.18 249.616 432.2 250.552 433.544L248.284 435.2C247.588 434.24 246.748 433.484 245.764 432.932C244.78 432.38 243.556 432.104 242.092 432.104C240.484 432.104 239.212 432.452 238.276 433.148C237.364 433.82 236.908 434.84 236.908 436.208C236.908 437.408 237.292 438.32 238.06 438.944C238.852 439.544 240.04 440.024 241.624 440.384L243.676 440.852C246.148 441.404 247.936 442.244 249.04 443.372C250.144 444.5 250.696 446 250.696 447.872C250.696 449.024 250.492 450.068 250.084 451.004C249.7 451.94 249.136 452.732 248.392 453.38C247.648 454.028 246.736 454.532 245.656 454.892C244.6 455.252 243.4 455.432 242.056 455.432ZM262.614 455.432C261.342 455.432 260.19 455.204 259.158 454.748C258.15 454.292 257.274 453.644 256.53 452.804C255.81 451.94 255.246 450.92 254.838 449.744C254.454 448.544 254.262 447.2 254.262 445.712C254.262 444.248 254.454 442.916 254.838 441.716C255.246 440.516 255.81 439.496 256.53 438.656C257.274 437.792 258.15 437.132 259.158 436.676C260.19 436.22 261.342 435.992 262.614 435.992C263.862 435.992 264.978 436.22 265.962 436.676C266.946 437.132 267.786 437.768 268.482 438.584C269.178 439.376 269.706 440.324 270.066 441.428C270.45 442.532 270.642 443.744 270.642 445.064V446.432H257.286V447.296C257.286 448.088 257.406 448.832 257.646 449.528C257.91 450.2 258.27 450.788 258.726 451.292C259.206 451.796 259.782 452.192 260.454 452.48C261.15 452.768 261.93 452.912 262.794 452.912C263.97 452.912 264.99 452.636 265.854 452.084C266.742 451.532 267.426 450.74 267.906 449.708L269.958 451.184C269.358 452.456 268.422 453.488 267.15 454.28C265.878 455.048 264.366 455.432 262.614 455.432ZM262.614 438.404C261.822 438.404 261.102 438.548 260.454 438.836C259.806 439.1 259.242 439.484 258.762 439.988C258.306 440.492 257.946 441.092 257.682 441.788C257.418 442.46 257.286 443.204 257.286 444.02V444.272H267.546V443.876C267.546 442.22 267.09 440.9 266.178 439.916C265.29 438.908 264.102 438.404 262.614 438.404ZM279.492 455C278.484 455 277.716 454.724 277.188 454.172C276.684 453.596 276.432 452.852 276.432 451.94V438.944H273.372V436.424H275.1C275.724 436.424 276.144 436.304 276.36 436.064C276.6 435.8 276.72 435.356 276.72 434.732V431.276H279.312V436.424H283.38V438.944H279.312V452.48H283.092V455H279.492Z" fill="#7E7E7E"/>
<path d="M1094.61 455.432C1092.57 455.432 1090.83 455.048 1089.39 454.28C1087.95 453.488 1086.73 452.408 1085.72 451.04L1087.95 449.168C1088.84 450.344 1089.82 451.244 1090.9 451.868C1091.98 452.468 1093.26 452.768 1094.72 452.768C1096.52 452.768 1097.89 452.336 1098.82 451.472C1099.78 450.608 1100.26 449.456 1100.26 448.016C1100.26 446.816 1099.9 445.892 1099.18 445.244C1098.46 444.596 1097.28 444.08 1095.62 443.696L1093.57 443.228C1091.26 442.7 1089.5 441.908 1088.28 440.852C1087.08 439.772 1086.48 438.26 1086.48 436.316C1086.48 435.212 1086.68 434.228 1087.09 433.364C1087.5 432.5 1088.06 431.78 1088.78 431.204C1089.52 430.628 1090.4 430.196 1091.41 429.908C1092.44 429.596 1093.57 429.44 1094.79 429.44C1096.69 429.44 1098.31 429.788 1099.65 430.484C1101.02 431.18 1102.17 432.2 1103.11 433.544L1100.84 435.2C1100.14 434.24 1099.3 433.484 1098.32 432.932C1097.34 432.38 1096.11 432.104 1094.65 432.104C1093.04 432.104 1091.77 432.452 1090.83 433.148C1089.92 433.82 1089.46 434.84 1089.46 436.208C1089.46 437.408 1089.85 438.32 1090.62 438.944C1091.41 439.544 1092.6 440.024 1094.18 440.384L1096.23 440.852C1098.7 441.404 1100.49 442.244 1101.6 443.372C1102.7 444.5 1103.25 446 1103.25 447.872C1103.25 449.024 1103.05 450.068 1102.64 451.004C1102.26 451.94 1101.69 452.732 1100.95 453.38C1100.2 454.028 1099.29 454.532 1098.21 454.892C1097.16 455.252 1095.96 455.432 1094.61 455.432ZM1115.1 455.432C1113.8 455.432 1112.64 455.204 1111.61 454.748C1110.57 454.292 1109.7 453.644 1108.98 452.804C1108.28 451.964 1107.74 450.944 1107.36 449.744C1107 448.544 1106.82 447.2 1106.82 445.712C1106.82 444.224 1107 442.88 1107.36 441.68C1107.74 440.48 1108.28 439.46 1108.98 438.62C1109.7 437.78 1110.57 437.132 1111.61 436.676C1112.64 436.22 1113.8 435.992 1115.1 435.992C1116.95 435.992 1118.42 436.4 1119.53 437.216C1120.65 438.008 1121.49 439.052 1122.05 440.348L1119.63 441.572C1119.3 440.612 1118.75 439.868 1117.98 439.34C1117.21 438.812 1116.25 438.548 1115.1 438.548C1114.23 438.548 1113.48 438.692 1112.83 438.98C1112.18 439.244 1111.64 439.628 1111.21 440.132C1110.78 440.612 1110.45 441.2 1110.24 441.896C1110.02 442.568 1109.91 443.312 1109.91 444.128V447.296C1109.91 448.928 1110.35 450.272 1111.21 451.328C1112.1 452.36 1113.39 452.876 1115.1 452.876C1117.43 452.876 1119.11 451.796 1120.14 449.636L1122.23 451.04C1121.63 452.384 1120.73 453.452 1119.53 454.244C1118.35 455.036 1116.87 455.432 1115.1 455.432ZM1126.29 455V436.424H1129.17V439.844H1129.35C1129.69 438.956 1130.29 438.164 1131.15 437.468C1132.01 436.772 1133.2 436.424 1134.71 436.424H1135.83V439.304H1134.14C1132.58 439.304 1131.35 439.604 1130.47 440.204C1129.6 440.78 1129.17 441.512 1129.17 442.4V455H1126.29ZM1146.32 455.432C1145.05 455.432 1143.89 455.204 1142.86 454.748C1141.85 454.292 1140.98 453.644 1140.23 452.804C1139.51 451.94 1138.95 450.92 1138.54 449.744C1138.16 448.544 1137.97 447.2 1137.97 445.712C1137.97 444.248 1138.16 442.916 1138.54 441.716C1138.95 440.516 1139.51 439.496 1140.23 438.656C1140.98 437.792 1141.85 437.132 1142.86 436.676C1143.89 436.22 1145.05 435.992 1146.32 435.992C1147.57 435.992 1148.68 436.22 1149.67 436.676C1150.65 437.132 1151.49 437.768 1152.19 438.584C1152.88 439.376 1153.41 440.324 1153.77 441.428C1154.15 442.532 1154.35 443.744 1154.35 445.064V446.432H1140.99V447.296C1140.99 448.088 1141.11 448.832 1141.35 449.528C1141.61 450.2 1141.97 450.788 1142.43 451.292C1142.91 451.796 1143.49 452.192 1144.16 452.48C1144.85 452.768 1145.63 452.912 1146.5 452.912C1147.67 452.912 1148.69 452.636 1149.56 452.084C1150.45 451.532 1151.13 450.74 1151.61 449.708L1153.66 451.184C1153.06 452.456 1152.13 453.488 1150.85 454.28C1149.58 455.048 1148.07 455.432 1146.32 455.432ZM1146.32 438.404C1145.53 438.404 1144.81 438.548 1144.16 438.836C1143.51 439.1 1142.95 439.484 1142.47 439.988C1142.01 440.492 1141.65 441.092 1141.39 441.788C1141.12 442.46 1140.99 443.204 1140.99 444.02V444.272H1151.25V443.876C1151.25 442.22 1150.79 440.9 1149.88 439.916C1148.99 438.908 1147.81 438.404 1146.32 438.404ZM1166.08 455.432C1164.8 455.432 1163.65 455.204 1162.62 454.748C1161.61 454.292 1160.74 453.644 1159.99 452.804C1159.27 451.94 1158.71 450.92 1158.3 449.744C1157.92 448.544 1157.72 447.2 1157.72 445.712C1157.72 444.248 1157.92 442.916 1158.3 441.716C1158.71 440.516 1159.27 439.496 1159.99 438.656C1160.74 437.792 1161.61 437.132 1162.62 436.676C1163.65 436.22 1164.8 435.992 1166.08 435.992C1167.32 435.992 1168.44 436.22 1169.42 436.676C1170.41 437.132 1171.25 437.768 1171.94 438.584C1172.64 439.376 1173.17 440.324 1173.53 441.428C1173.91 442.532 1174.1 443.744 1174.1 445.064V446.432H1160.75V447.296C1160.75 448.088 1160.87 448.832 1161.11 449.528C1161.37 450.2 1161.73 450.788 1162.19 451.292C1162.67 451.796 1163.24 452.192 1163.92 452.48C1164.61 452.768 1165.39 452.912 1166.26 452.912C1167.43 452.912 1168.45 452.636 1169.32 452.084C1170.2 451.532 1170.89 450.74 1171.37 449.708L1173.42 451.184C1172.82 452.456 1171.88 453.488 1170.61 454.28C1169.34 455.048 1167.83 455.432 1166.08 455.432ZM1166.08 438.404C1165.28 438.404 1164.56 438.548 1163.92 438.836C1163.27 439.1 1162.7 439.484 1162.22 439.988C1161.77 440.492 1161.41 441.092 1161.14 441.788C1160.88 442.46 1160.75 443.204 1160.75 444.02V444.272H1171.01V443.876C1171.01 442.22 1170.55 440.9 1169.64 439.916C1168.75 438.908 1167.56 438.404 1166.08 438.404ZM1178.85 455V436.424H1181.73V439.448H1181.87C1182.33 438.392 1182.97 437.552 1183.78 436.928C1184.62 436.304 1185.74 435.992 1187.13 435.992C1189.05 435.992 1190.56 436.616 1191.67 437.864C1192.79 439.088 1193.36 440.828 1193.36 443.084V455H1190.48V443.588C1190.48 440.252 1189.07 438.584 1186.27 438.584C1185.69 438.584 1185.13 438.656 1184.57 438.8C1184.05 438.944 1183.57 439.16 1183.13 439.448C1182.7 439.736 1182.35 440.108 1182.09 440.564C1181.85 440.996 1181.73 441.512 1181.73 442.112V455H1178.85ZM1204.89 455.432C1203.16 455.432 1201.71 455.108 1200.53 454.46C1199.38 453.788 1198.39 452.9 1197.55 451.796L1199.6 450.14C1200.32 451.052 1201.12 451.76 1202.01 452.264C1202.9 452.744 1203.93 452.984 1205.11 452.984C1206.33 452.984 1207.28 452.72 1207.95 452.192C1208.65 451.664 1208.99 450.92 1208.99 449.96C1208.99 449.24 1208.75 448.628 1208.27 448.124C1207.82 447.596 1206.98 447.236 1205.75 447.044L1204.28 446.828C1203.41 446.708 1202.62 446.528 1201.9 446.288C1201.18 446.024 1200.55 445.688 1199.99 445.28C1199.47 444.848 1199.05 444.32 1198.73 443.696C1198.45 443.072 1198.3 442.328 1198.3 441.464C1198.3 440.552 1198.47 439.76 1198.81 439.088C1199.14 438.392 1199.6 437.816 1200.17 437.36C1200.77 436.904 1201.48 436.568 1202.3 436.352C1203.11 436.112 1203.99 435.992 1204.93 435.992C1206.44 435.992 1207.7 436.256 1208.71 436.784C1209.74 437.312 1210.64 438.044 1211.41 438.98L1209.5 440.708C1209.09 440.132 1208.49 439.616 1207.7 439.16C1206.91 438.68 1205.91 438.44 1204.71 438.44C1203.51 438.44 1202.6 438.704 1201.97 439.232C1201.37 439.736 1201.07 440.432 1201.07 441.32C1201.07 442.232 1201.37 442.892 1201.97 443.3C1202.6 443.708 1203.49 444.008 1204.64 444.2L1206.08 444.416C1208.14 444.728 1209.61 445.328 1210.47 446.216C1211.33 447.08 1211.77 448.22 1211.77 449.636C1211.77 451.436 1211.15 452.852 1209.93 453.884C1208.71 454.916 1207.03 455.432 1204.89 455.432Z" fill="#7E7E7E"/>
<path d="M485.414 177.414C486.195 176.633 486.195 175.367 485.414 174.586L472.686 161.858C471.905 161.077 470.639 161.077 469.858 161.858C469.077 162.639 469.077 163.905 469.858 164.686L481.172 176L469.858 187.314C469.077 188.095 469.077 189.361 469.858 190.142C470.639 190.923 471.905 190.923 472.686 190.142L485.414 177.414ZM414 178H484V174H414V178Z" fill="#BDBDBD"/>
<path d="M964.414 177.414C965.195 176.633 965.195 175.367 964.414 174.586L951.686 161.858C950.905 161.077 949.639 161.077 948.858 161.858C948.077 162.639 948.077 163.905 948.858 164.686L960.172 176L948.858 187.314C948.077 188.095 948.077 189.361 948.858 190.142C949.639 190.923 950.905 190.923 951.686 190.142L964.414 177.414ZM893 178H963V174H893V178Z" fill="#BDBDBD"/>
<defs>
<linearGradient id="paint0_linear" x1="343.965" y1="386.562" x2="343.965" y2="145.54" gradientUnits="userSpaceOnUse">
<stop stop-color="#808080" stop-opacity="0.25"/>
<stop offset="0.54" stop-color="#808080" stop-opacity="0.12"/>
<stop offset="1" stop-color="#808080" stop-opacity="0.1"/>
</linearGradient>
<linearGradient id="paint1_linear" x1="107322" y1="19806.1" x2="105005" y2="-7279.65" gradientUnits="userSpaceOnUse">
<stop stop-color="#808080" stop-opacity="0.25"/>
<stop offset="0.54" stop-color="#808080" stop-opacity="0.12"/>
<stop offset="1" stop-color="#808080" stop-opacity="0.1"/>
</linearGradient>
<linearGradient id="paint2_linear" x1="148144" y1="43681.1" x2="148144" y2="13409.7" gradientUnits="userSpaceOnUse">
<stop stop-color="#808080" stop-opacity="0.25"/>
<stop offset="0.54" stop-color="#808080" stop-opacity="0.12"/>
<stop offset="1" stop-color="#808080" stop-opacity="0.1"/>
</linearGradient>
<linearGradient id="paint3_linear" x1="83028.4" y1="120697" x2="88556.7" y2="59197.4" gradientUnits="userSpaceOnUse">
<stop stop-color="#808080" stop-opacity="0.25"/>
<stop offset="0.54" stop-color="#808080" stop-opacity="0.12"/>
<stop offset="1" stop-color="#808080" stop-opacity="0.1"/>
</linearGradient>
<linearGradient id="paint4_linear" x1="107306" y1="192186" x2="107306" y2="56446.3" gradientUnits="userSpaceOnUse">
<stop stop-color="#808080" stop-opacity="0.25"/>
<stop offset="0.54" stop-color="#808080" stop-opacity="0.12"/>
<stop offset="1" stop-color="#808080" stop-opacity="0.1"/>
</linearGradient>
<linearGradient id="paint5_linear" x1="174.534" y1="333.775" x2="174.534" y2="203.738" gradientUnits="userSpaceOnUse">
<stop stop-color="#B3B3B3" stop-opacity="0.39"/>
<stop offset="0.54" stop-color="#B3B3B3" stop-opacity="0.27"/>
<stop offset="1" stop-color="#B3B3B3" stop-opacity="0.19"/>
</linearGradient>
<linearGradient id="paint6_linear" x1="52386.2" y1="67087.8" x2="52386.2" y2="43502.2" gradientUnits="userSpaceOnUse">
<stop stop-color="#B3B3B3" stop-opacity="0.25"/>
<stop offset="0.54" stop-color="#B3B3B3" stop-opacity="0.1"/>
<stop offset="1" stop-color="#B3B3B3" stop-opacity="0.05"/>
</linearGradient>
<linearGradient id="paint7_linear" x1="690" y1="127.576" x2="690" y2="71" gradientUnits="userSpaceOnUse">
<stop stop-color="#808080" stop-opacity="0.25"/>
<stop offset="0.54" stop-color="#808080" stop-opacity="0.12"/>
<stop offset="1" stop-color="#808080" stop-opacity="0.1"/>
</linearGradient>
<linearGradient id="paint8_linear" x1="532.888" y1="119.78" x2="532.888" y2="79.9461" gradientUnits="userSpaceOnUse">
<stop stop-color="#B3B3B3" stop-opacity="0.25"/>
<stop offset="0.54" stop-color="#B3B3B3" stop-opacity="0.1"/>
<stop offset="1" stop-color="#B3B3B3" stop-opacity="0.05"/>
</linearGradient>
<linearGradient id="paint9_linear" x1="20705.5" y1="303.142" x2="20705.5" y2="242.614" gradientUnits="userSpaceOnUse">
<stop stop-color="#B3B3B3" stop-opacity="0.25"/>
<stop offset="0.54" stop-color="#B3B3B3" stop-opacity="0.1"/>
<stop offset="1" stop-color="#B3B3B3" stop-opacity="0.05"/>
</linearGradient>
<linearGradient id="paint10_linear" x1="33139.4" y1="456.478" x2="33139.4" y2="395.95" gradientUnits="userSpaceOnUse">
<stop stop-color="#B3B3B3" stop-opacity="0.25"/>
<stop offset="0.54" stop-color="#B3B3B3" stop-opacity="0.1"/>
<stop offset="1" stop-color="#B3B3B3" stop-opacity="0.05"/>
</linearGradient>
<linearGradient id="paint11_linear" x1="172974" y1="18326.3" x2="172974" y2="11149.7" gradientUnits="userSpaceOnUse">
<stop stop-color="#808080" stop-opacity="0.25"/>
<stop offset="0.54" stop-color="#808080" stop-opacity="0.12"/>
<stop offset="1" stop-color="#808080" stop-opacity="0.1"/>
</linearGradient>
<linearGradient id="paint12_linear" x1="4088.56" y1="12263" x2="4088.56" y2="8705" gradientUnits="userSpaceOnUse">
<stop stop-color="#B3B3B3" stop-opacity="0.25"/>
<stop offset="0.54" stop-color="#B3B3B3" stop-opacity="0.1"/>
<stop offset="1" stop-color="#B3B3B3" stop-opacity="0.05"/>
</linearGradient>
<linearGradient id="paint13_linear" x1="20705.5" y1="1399.23" x2="20705.5" y2="1338.7" gradientUnits="userSpaceOnUse">
<stop stop-color="#B3B3B3" stop-opacity="0.25"/>
<stop offset="0.54" stop-color="#B3B3B3" stop-opacity="0.1"/>
<stop offset="1" stop-color="#B3B3B3" stop-opacity="0.05"/>
</linearGradient>
<linearGradient id="paint14_linear" x1="33139.4" y1="1552.57" x2="33139.4" y2="1492.04" gradientUnits="userSpaceOnUse">
<stop stop-color="#B3B3B3" stop-opacity="0.25"/>
<stop offset="0.54" stop-color="#B3B3B3" stop-opacity="0.1"/>
<stop offset="1" stop-color="#B3B3B3" stop-opacity="0.05"/>
</linearGradient>
<linearGradient id="paint15_linear" x1="172974" y1="29340" x2="172974" y2="22162.9" gradientUnits="userSpaceOnUse">
<stop stop-color="#808080" stop-opacity="0.25"/>
<stop offset="0.54" stop-color="#808080" stop-opacity="0.12"/>
<stop offset="1" stop-color="#808080" stop-opacity="0.1"/>
</linearGradient>
<linearGradient id="paint16_linear" x1="4088.56" y1="20042.6" x2="4088.56" y2="16484.6" gradientUnits="userSpaceOnUse">
<stop stop-color="#B3B3B3" stop-opacity="0.25"/>
<stop offset="0.54" stop-color="#B3B3B3" stop-opacity="0.1"/>
<stop offset="1" stop-color="#B3B3B3" stop-opacity="0.05"/>
</linearGradient>
<linearGradient id="paint17_linear" x1="20705.5" y1="2488.82" x2="20705.5" y2="2428.29" gradientUnits="userSpaceOnUse">
<stop stop-color="#B3B3B3" stop-opacity="0.25"/>
<stop offset="0.54" stop-color="#B3B3B3" stop-opacity="0.1"/>
<stop offset="1" stop-color="#B3B3B3" stop-opacity="0.05"/>
</linearGradient>
<linearGradient id="paint18_linear" x1="33139.4" y1="2642.16" x2="33139.4" y2="2581.63" gradientUnits="userSpaceOnUse">
<stop stop-color="#B3B3B3" stop-opacity="0.25"/>
<stop offset="0.54" stop-color="#B3B3B3" stop-opacity="0.1"/>
<stop offset="1" stop-color="#B3B3B3" stop-opacity="0.05"/>
</linearGradient>
<linearGradient id="paint19_linear" x1="172974" y1="40418.2" x2="172974" y2="33241" gradientUnits="userSpaceOnUse">
<stop stop-color="#808080" stop-opacity="0.25"/>
<stop offset="0.54" stop-color="#808080" stop-opacity="0.12"/>
<stop offset="1" stop-color="#808080" stop-opacity="0.1"/>
</linearGradient>
<linearGradient id="paint20_linear" x1="4088.56" y1="27868.6" x2="4088.56" y2="24310.6" gradientUnits="userSpaceOnUse">
<stop stop-color="#B3B3B3" stop-opacity="0.25"/>
<stop offset="0.54" stop-color="#B3B3B3" stop-opacity="0.1"/>
<stop offset="1" stop-color="#B3B3B3" stop-opacity="0.05"/>
</linearGradient>
<linearGradient id="paint21_linear" x1="20705.5" y1="3584.86" x2="20705.5" y2="3524.33" gradientUnits="userSpaceOnUse">
<stop stop-color="#B3B3B3" stop-opacity="0.25"/>
<stop offset="0.54" stop-color="#B3B3B3" stop-opacity="0.1"/>
<stop offset="1" stop-color="#B3B3B3" stop-opacity="0.05"/>
</linearGradient>
<linearGradient id="paint22_linear" x1="33139.4" y1="3738.25" x2="33139.4" y2="3677.72" gradientUnits="userSpaceOnUse">
<stop stop-color="#B3B3B3" stop-opacity="0.25"/>
<stop offset="0.54" stop-color="#B3B3B3" stop-opacity="0.1"/>
<stop offset="1" stop-color="#B3B3B3" stop-opacity="0.05"/>
</linearGradient>
<linearGradient id="paint23_linear" x1="1208.05" y1="344.033" x2="1315.75" y2="87.5812" gradientUnits="userSpaceOnUse">
<stop stop-color="#808080" stop-opacity="0.25"/>
<stop offset="0.54" stop-color="#808080" stop-opacity="0.12"/>
<stop offset="1" stop-color="#808080" stop-opacity="0.1"/>
</linearGradient>
<linearGradient id="paint24_linear" x1="54601.6" y1="179792" x2="-39986.4" y2="55442.3" gradientUnits="userSpaceOnUse">
<stop stop-color="#808080" stop-opacity="0.25"/>
<stop offset="0.54" stop-color="#808080" stop-opacity="0.12"/>
<stop offset="1" stop-color="#808080" stop-opacity="0.1"/>
</linearGradient>
<linearGradient id="paint25_linear" x1="65812.1" y1="211076" x2="160398" y2="86725" gradientUnits="userSpaceOnUse">
<stop stop-color="#808080" stop-opacity="0.25"/>
<stop offset="0.54" stop-color="#808080" stop-opacity="0.12"/>
<stop offset="1" stop-color="#808080" stop-opacity="0.1"/>
</linearGradient>
<linearGradient id="paint26_linear" x1="11162.5" y1="7415" x2="11162.5" y2="4791" gradientUnits="userSpaceOnUse">
<stop stop-color="#808080" stop-opacity="0.25"/>
<stop offset="0.54" stop-color="#808080" stop-opacity="0.12"/>
<stop offset="1" stop-color="#808080" stop-opacity="0.1"/>
</linearGradient>
<linearGradient id="paint27_linear" x1="10864" y1="13068.5" x2="10864" y2="10362.5" gradientUnits="userSpaceOnUse">
<stop stop-color="#808080" stop-opacity="0.25"/>
<stop offset="0.54" stop-color="#808080" stop-opacity="0.12"/>
<stop offset="1" stop-color="#808080" stop-opacity="0.1"/>
</linearGradient>
<linearGradient id="paint28_linear" x1="10872.9" y1="18429" x2="10872.9" y2="15723" gradientUnits="userSpaceOnUse">
<stop stop-color="#808080" stop-opacity="0.25"/>
<stop offset="0.54" stop-color="#808080" stop-opacity="0.12"/>
<stop offset="1" stop-color="#808080" stop-opacity="0.1"/>
</linearGradient>
<linearGradient id="paint29_linear" x1="11381.5" y1="7415" x2="11381.5" y2="4791" gradientUnits="userSpaceOnUse">
<stop stop-color="#808080" stop-opacity="0.25"/>
<stop offset="0.54" stop-color="#808080" stop-opacity="0.12"/>
<stop offset="1" stop-color="#808080" stop-opacity="0.1"/>
</linearGradient>
<linearGradient id="paint30_linear" x1="11083" y1="13068.5" x2="11083" y2="10362.5" gradientUnits="userSpaceOnUse">
<stop stop-color="#808080" stop-opacity="0.25"/>
<stop offset="0.54" stop-color="#808080" stop-opacity="0.12"/>
<stop offset="1" stop-color="#808080" stop-opacity="0.1"/>
</linearGradient>
<linearGradient id="paint31_linear" x1="11091.9" y1="18429" x2="11091.9" y2="15723" gradientUnits="userSpaceOnUse">
<stop stop-color="#808080" stop-opacity="0.25"/>
<stop offset="0.54" stop-color="#808080" stop-opacity="0.12"/>
<stop offset="1" stop-color="#808080" stop-opacity="0.1"/>
</linearGradient>
<linearGradient id="paint32_linear" x1="11270.5" y1="7460" x2="11270.5" y2="4836" gradientUnits="userSpaceOnUse">
<stop stop-color="#808080" stop-opacity="0.25"/>
<stop offset="0.54" stop-color="#808080" stop-opacity="0.12"/>
<stop offset="1" stop-color="#808080" stop-opacity="0.1"/>
</linearGradient>
<linearGradient id="paint33_linear" x1="10972" y1="13113.5" x2="10972" y2="10407.5" gradientUnits="userSpaceOnUse">
<stop stop-color="#808080" stop-opacity="0.25"/>
<stop offset="0.54" stop-color="#808080" stop-opacity="0.12"/>
<stop offset="1" stop-color="#808080" stop-opacity="0.1"/>
</linearGradient>
<linearGradient id="paint34_linear" x1="10980.9" y1="18474" x2="10980.9" y2="15768" gradientUnits="userSpaceOnUse">
<stop stop-color="#808080" stop-opacity="0.25"/>
<stop offset="0.54" stop-color="#808080" stop-opacity="0.12"/>
<stop offset="1" stop-color="#808080" stop-opacity="0.1"/>
</linearGradient>
<linearGradient id="paint35_linear" x1="6651" y1="3494.08" x2="6651" y2="2849.92" gradientUnits="userSpaceOnUse">
<stop stop-color="#808080" stop-opacity="0.25"/>
<stop offset="0.54" stop-color="#808080" stop-opacity="0.12"/>
<stop offset="1" stop-color="#808080" stop-opacity="0.1"/>
</linearGradient>
<linearGradient id="paint36_linear" x1="23057.8" y1="26675.6" x2="23057.8" y2="22230.2" gradientUnits="userSpaceOnUse">
<stop stop-color="#808080" stop-opacity="0.25"/>
<stop offset="0.54" stop-color="#808080" stop-opacity="0.12"/>
<stop offset="1" stop-color="#808080" stop-opacity="0.1"/>
</linearGradient>
<clipPath id="clip0">
<rect width="410" height="391" fill="white"/>
</clipPath>
<clipPath id="clip1">
<rect width="361" height="295" fill="white" transform="translate(970 92)"/>
</clipPath>
</defs>
</svg>
