<svg width="849" height="234" viewBox="0 0 849 234" fill="none" xmlns="http://www.w3.org/2000/svg">
<g clip-path="url(#clip0)">
<path d="M764.865 121.08C757.977 127.962 748.629 132.386 738.296 132.386C727.964 132.386 718.615 127.962 711.727 121.08C699.427 129.928 691.555 143.691 691.555 159.912C691.555 162.862 693.523 164.828 696.475 164.828H780.61C783.562 164.828 785.53 162.862 785.53 159.912C785.53 143.691 777.166 129.928 764.865 121.08Z" fill="#00C8DD"/>
<path d="M738.296 123.047C753.057 123.047 764.865 111.25 764.865 96.5032C764.865 81.7568 753.057 69.9597 738.296 69.9597C723.536 69.9597 711.727 81.7568 711.727 96.5032C711.727 111.25 723.536 123.047 738.296 123.047Z" fill="#00C8DD"/>
<path d="M844.08 7.53326H770.769C767.817 7.53326 765.849 9.49945 765.849 12.4487V68.9765C765.849 71.9258 767.817 73.892 770.769 73.892H780.61V85.6891C780.61 87.6553 781.594 89.1299 783.07 90.113C784.546 91.0961 786.514 91.0961 787.99 90.113L812.591 74.3835H844.08C847.032 74.3835 849 72.4174 849 69.4681V12.4487C849 9.49945 847.032 7.53326 844.08 7.53326ZM793.894 55.7048H784.054V39.9753H793.894V55.7048ZM812.591 55.7048H802.75V32.6021H812.591V55.7048ZM830.795 55.7048H820.955V24.7374H830.795V55.7048Z" fill="#00C8DD"/>
</g>
<g clip-path="url(#clip1)">
<path fill-rule="evenodd" clip-rule="evenodd" d="M147.209 99.3894L163.618 115.855L109.858 169.8H93.4479V153.334L147.209 99.3894ZM170.415 76.103L186.825 92.569L171.743 107.703L155.333 91.2372L170.415 76.103ZM70.2411 91.6272H116.655C121.519 91.6272 126.122 92.7536 130.217 94.7606L86.9257 138.2H39.2986V122.676C39.2986 105.528 53.152 91.6272 70.2411 91.6272ZM93.4479 76.103C80.6311 76.103 70.2411 65.6774 70.2411 52.8167C70.2411 39.956 80.6311 29.5304 93.4479 29.5304C106.265 29.5304 116.655 39.956 116.655 52.8167C116.655 65.6774 106.265 76.103 93.4479 76.103Z" fill="#005FA3"/>
</g>
<path d="M557.361 48.8756C553.602 62.6718 546.941 71.6725 534.674 71.5848C522.145 71.4953 511.987 61.4175 511.987 48.8756C511.987 36.3336 522.145 26.1663 534.674 26.1663C547.204 26.1663 560.658 36.7755 557.361 48.8756V48.8756Z" fill="#FF0045"/>
<path d="M507.984 68.655C500.381 71.4654 489.892 73.006 489.282 89.5566C488.672 106.107 496.218 132.669 492.833 160.106L535.905 159.795C529.813 126.056 536.493 123.001 536.563 107.338C536.632 91.6745 530.58 78.3682 526.575 72.9195C522.569 67.4709 539.992 64.3394 524.448 56.2127C508.905 48.086 514.04 66.4168 507.984 68.655V68.655Z" fill="#FF0045"/>
<path d="M512.224 79.5317C510.771 79.5409 509.289 79.9171 507.904 80.6987C503.47 83.1998 501.752 88.8717 504.053 93.4159L525.323 135.436C525.476 135.74 525.649 136.026 525.829 136.304C525.93 137.113 526.255 137.837 526.917 138.406C527.872 139.228 529.151 139.693 530.55 139.9C532.761 140.586 535.246 140.385 537.48 139.124C538.116 138.765 538.69 138.335 539.21 137.859C539.554 137.629 539.905 137.408 540.217 137.144C550.617 128.328 553.787 109.65 561.509 102.239C569.23 94.8282 571.459 90.7903 569.782 89.2895C568.159 87.8366 558.719 93.264 556.721 95.6205L554.468 98.2776L554.77 96.7534C552.546 93.4209 561.731 87.8511 557.675 88.153C553.961 88.4293 549.564 92.6328 549.641 94.9946C549.773 98.9847 550.89 99.858 547.33 106.698C544.787 111.361 540.456 116.419 536.803 120.193C525.923 111.465 525.896 95.9187 520.058 84.3866C518.476 81.2624 515.42 79.51 512.224 79.5317V79.5317Z" fill="#FF0045"/>
<path d="M553.751 93.5733L583.059 73.6278C584.263 72.8082 585.967 73.0625 586.881 74.1979C587.794 75.3333 587.559 76.9071 586.355 77.7266L557.048 97.6722C555.844 98.4918 554.139 98.2375 553.226 97.102C552.313 95.9667 552.547 94.3928 553.751 93.5733V93.5733Z" fill="#FF0045"/>
<path d="M296.059 138.09L292.221 131.427L314.442 118.458V92.9081H322.119V118.668L344.341 131.443L340.502 138.106L318.119 125.234L296.059 138.09ZM395.814 156.263C390.598 152.058 384.946 148.427 378.953 145.434C378.865 145.391 378.791 145.324 378.739 145.241C378.688 145.158 378.661 145.062 378.662 144.964V139.257C379.469 137.894 380.018 136.394 380.281 134.831C380.913 134.831 381.739 133.907 382.613 130.762C383.828 126.466 382.613 125.899 381.447 125.899C381.651 125.323 381.808 124.732 381.917 124.132C383.763 113.011 378.305 112.621 378.305 112.621C377.521 111.327 376.401 110.268 375.066 109.557C373.018 108.373 370.647 107.873 368.296 108.131C367.38 108.177 366.475 108.352 365.607 108.65V108.65C364.552 109.016 363.555 109.529 362.643 110.173C361.527 110.886 360.504 111.736 359.598 112.703C358.009 114.298 356.889 116.3 356.359 118.49C355.929 120.351 355.929 122.286 356.359 124.148V124.148C356.468 124.749 356.625 125.34 356.829 125.915C355.743 125.818 354.448 126.45 355.662 130.778C356.553 133.907 357.379 134.799 357.995 134.848C358.258 136.425 358.807 137.942 359.614 139.322V144.915C359.615 145.013 359.588 145.109 359.536 145.192C359.485 145.275 359.411 145.342 359.323 145.385C353.33 148.378 347.678 152.009 342.462 156.214C341.816 156.752 341.296 157.426 340.941 158.189C340.585 158.951 340.402 159.783 340.405 160.624V168.73H397.871V160.624C397.867 159.791 397.68 158.969 397.325 158.215C396.97 157.462 396.454 156.796 395.814 156.263ZM296.237 160.689C296.24 159.848 296.058 159.016 295.702 158.254C295.346 157.491 294.827 156.817 294.18 156.279C288.961 152.067 283.302 148.431 277.304 145.434C277.216 145.391 277.142 145.324 277.09 145.241C277.038 145.158 277.011 145.062 277.012 144.964V139.257C277.819 137.894 278.369 136.394 278.632 134.831C279.263 134.831 280.089 133.907 280.964 130.762C282.179 126.466 280.964 125.899 279.798 125.899C280.002 125.323 280.159 124.732 280.268 124.132C282.114 113.011 276.656 112.621 276.656 112.621C275.871 111.327 274.752 110.268 273.416 109.557C271.369 108.373 268.997 107.873 266.646 108.131C265.73 108.177 264.825 108.352 263.958 108.65V108.65C262.903 109.016 261.905 109.529 260.994 110.173C259.877 110.886 258.854 111.736 257.949 112.703C256.36 114.298 255.239 116.3 254.709 118.49C254.28 120.351 254.28 122.286 254.709 124.148C254.793 124.774 254.928 125.392 255.114 125.996C254.029 125.899 252.733 126.531 253.948 130.86C254.839 133.988 255.665 134.88 256.28 134.929C256.544 136.506 257.093 138.023 257.9 139.403V144.996C257.901 145.094 257.874 145.19 257.822 145.273C257.771 145.356 257.697 145.423 257.609 145.466C251.618 148.449 245.965 152.069 240.748 156.263C240.099 156.803 239.579 157.479 239.223 158.245C238.867 159.01 238.686 159.845 238.691 160.689V168.795H296.237V160.689ZM342.916 67.8288C342.804 66.7548 342.416 65.7283 341.788 64.85C341.161 63.9717 340.316 63.272 339.336 62.8194C337.676 62.0003 335.94 61.3434 334.153 60.8578C331.345 60.1109 328.6 59.1461 325.942 57.9721L325.715 57.8262C325.447 57.6494 325.226 57.4088 325.074 57.1258C324.921 56.8429 324.841 56.5266 324.84 56.2051V53.676V52.833C324.84 52.833 332.404 53.06 335.984 49.3962C335.984 49.3962 330.768 47.9209 331.708 38.4047C332.647 28.8885 330.542 20.572 322.897 21.2528C322.897 21.2528 319.658 17.2648 313.001 19.7776C310.733 20.6368 304.66 22.8092 304.902 35.9892C305.145 49.1692 300.222 49.2503 300.222 49.2503C300.222 49.2503 302.797 52.9952 311.559 52.9141V56.1564C311.559 56.4779 311.478 56.7943 311.326 57.0772C311.173 57.3601 310.953 57.6008 310.685 57.7776L310.49 57.8911C307.832 59.0651 305.087 60.0299 302.279 60.7767C300.535 61.2859 298.843 61.9589 297.225 62.787C296.255 63.2461 295.42 63.9487 294.801 64.8265C294.182 65.7043 293.801 66.7274 293.694 67.7964V78.5446H342.916V67.8288Z" fill="#00BB85"/>
<path d="M262.48 202.41H262.3L260.176 206.622L254.164 217.566L248.152 206.622L246.028 202.41H245.848V223.578H242.896V198.45H246.928L254.128 211.986H254.308L261.544 198.45H265.432V223.578H262.48V202.41ZM285.323 223.578C284.243 223.578 283.463 223.29 282.983 222.714C282.527 222.138 282.239 221.418 282.119 220.554H281.939C281.531 221.706 280.859 222.57 279.923 223.146C278.987 223.722 277.871 224.01 276.575 224.01C274.607 224.01 273.071 223.506 271.967 222.498C270.887 221.49 270.347 220.122 270.347 218.394C270.347 216.642 270.983 215.298 272.255 214.362C273.551 213.426 275.555 212.958 278.267 212.958H281.939V211.122C281.939 209.802 281.579 208.794 280.859 208.098C280.139 207.402 279.035 207.054 277.547 207.054C276.419 207.054 275.471 207.306 274.703 207.81C273.959 208.314 273.335 208.986 272.831 209.826L271.103 208.206C271.607 207.198 272.411 206.346 273.515 205.65C274.619 204.93 276.011 204.57 277.691 204.57C279.947 204.57 281.699 205.122 282.947 206.226C284.195 207.33 284.819 208.866 284.819 210.834V221.058H286.943V223.578H285.323ZM277.043 221.562C277.763 221.562 278.423 221.478 279.023 221.31C279.623 221.142 280.139 220.902 280.571 220.59C281.003 220.278 281.339 219.918 281.579 219.51C281.819 219.102 281.939 218.658 281.939 218.178V215.118H278.123C276.467 215.118 275.255 215.358 274.487 215.838C273.743 216.318 273.371 217.014 273.371 217.926V218.682C273.371 219.594 273.695 220.302 274.343 220.806C275.015 221.31 275.915 221.562 277.043 221.562ZM291.054 223.578V205.002H293.934V208.026H294.078C294.534 206.97 295.17 206.13 295.986 205.506C296.826 204.882 297.942 204.57 299.334 204.57C301.254 204.57 302.766 205.194 303.87 206.442C304.998 207.666 305.562 209.406 305.562 211.662V223.578H302.682V212.166C302.682 208.83 301.278 207.162 298.47 207.162C297.894 207.162 297.33 207.234 296.778 207.378C296.25 207.522 295.77 207.738 295.338 208.026C294.906 208.314 294.558 208.686 294.294 209.142C294.054 209.574 293.934 210.09 293.934 210.69V223.578H291.054ZM325.015 223.578C323.935 223.578 323.155 223.29 322.675 222.714C322.219 222.138 321.931 221.418 321.811 220.554H321.631C321.223 221.706 320.551 222.57 319.615 223.146C318.679 223.722 317.563 224.01 316.267 224.01C314.299 224.01 312.763 223.506 311.659 222.498C310.579 221.49 310.039 220.122 310.039 218.394C310.039 216.642 310.675 215.298 311.947 214.362C313.243 213.426 315.247 212.958 317.959 212.958H321.631V211.122C321.631 209.802 321.271 208.794 320.551 208.098C319.831 207.402 318.727 207.054 317.239 207.054C316.111 207.054 315.163 207.306 314.395 207.81C313.651 208.314 313.027 208.986 312.523 209.826L310.795 208.206C311.299 207.198 312.103 206.346 313.207 205.65C314.311 204.93 315.703 204.57 317.383 204.57C319.639 204.57 321.391 205.122 322.639 206.226C323.887 207.33 324.511 208.866 324.511 210.834V221.058H326.635V223.578H325.015ZM316.735 221.562C317.455 221.562 318.115 221.478 318.715 221.31C319.315 221.142 319.831 220.902 320.263 220.59C320.695 220.278 321.031 219.918 321.271 219.51C321.511 219.102 321.631 218.658 321.631 218.178V215.118H317.815C316.159 215.118 314.947 215.358 314.179 215.838C313.435 216.318 313.063 217.014 313.063 217.926V218.682C313.063 219.594 313.387 220.302 314.035 220.806C314.707 221.31 315.607 221.562 316.735 221.562ZM346.405 225.63C346.405 227.55 345.649 228.954 344.137 229.842C342.649 230.754 340.405 231.21 337.405 231.21C334.501 231.21 332.413 230.814 331.141 230.022C329.869 229.23 329.233 228.102 329.233 226.638C329.233 225.63 329.497 224.838 330.025 224.262C330.553 223.71 331.273 223.302 332.185 223.038V222.642C331.081 222.114 330.529 221.25 330.529 220.05C330.529 219.114 330.829 218.406 331.429 217.926C332.029 217.422 332.797 217.05 333.733 216.81V216.666C332.629 216.138 331.765 215.382 331.141 214.398C330.541 213.414 330.241 212.274 330.241 210.978C330.241 210.042 330.409 209.178 330.745 208.386C331.081 207.594 331.549 206.922 332.149 206.37C332.773 205.794 333.505 205.35 334.345 205.038C335.209 204.726 336.169 204.57 337.225 204.57C338.545 204.57 339.721 204.81 340.753 205.29V204.966C340.753 204.246 340.921 203.658 341.257 203.202C341.593 202.722 342.145 202.482 342.913 202.482H345.685V205.002H342.157V206.19C342.829 206.766 343.345 207.462 343.705 208.278C344.089 209.07 344.281 209.97 344.281 210.978C344.281 211.914 344.113 212.778 343.777 213.57C343.441 214.362 342.961 215.046 342.337 215.622C341.737 216.174 341.005 216.606 340.141 216.918C339.277 217.23 338.317 217.386 337.261 217.386C336.661 217.386 336.061 217.326 335.461 217.206C334.837 217.374 334.273 217.626 333.769 217.962C333.265 218.274 333.013 218.718 333.013 219.294C333.013 219.846 333.277 220.218 333.805 220.41C334.333 220.602 335.017 220.698 335.857 220.698H339.817C342.121 220.698 343.789 221.142 344.821 222.03C345.877 222.894 346.405 224.094 346.405 225.63ZM343.705 225.846C343.705 225.102 343.417 224.502 342.841 224.046C342.289 223.614 341.293 223.398 339.853 223.398H333.661C332.509 223.926 331.933 224.766 331.933 225.918C331.933 226.734 332.233 227.43 332.833 228.006C333.457 228.582 334.501 228.87 335.965 228.87H338.629C340.237 228.87 341.485 228.618 342.373 228.114C343.261 227.61 343.705 226.854 343.705 225.846ZM337.261 215.082C338.485 215.082 339.457 214.794 340.177 214.218C340.897 213.618 341.257 212.706 341.257 211.482V210.474C341.257 209.25 340.897 208.35 340.177 207.774C339.457 207.174 338.485 206.874 337.261 206.874C336.037 206.874 335.065 207.174 334.345 207.774C333.625 208.35 333.265 209.25 333.265 210.474V211.482C333.265 212.706 333.625 213.618 334.345 214.218C335.065 214.794 336.037 215.082 337.261 215.082ZM356.538 224.01C355.266 224.01 354.114 223.782 353.082 223.326C352.074 222.87 351.198 222.222 350.454 221.382C349.734 220.518 349.17 219.498 348.762 218.322C348.378 217.122 348.186 215.778 348.186 214.29C348.186 212.826 348.378 211.494 348.762 210.294C349.17 209.094 349.734 208.074 350.454 207.234C351.198 206.37 352.074 205.71 353.082 205.254C354.114 204.798 355.266 204.57 356.538 204.57C357.786 204.57 358.902 204.798 359.886 205.254C360.87 205.71 361.71 206.346 362.406 207.162C363.102 207.954 363.63 208.902 363.99 210.006C364.374 211.11 364.566 212.322 364.566 213.642V215.01H351.21V215.874C351.21 216.666 351.33 217.41 351.57 218.106C351.834 218.778 352.194 219.366 352.65 219.87C353.13 220.374 353.706 220.77 354.378 221.058C355.074 221.346 355.854 221.49 356.718 221.49C357.894 221.49 358.914 221.214 359.778 220.662C360.666 220.11 361.35 219.318 361.83 218.286L363.882 219.762C363.282 221.034 362.346 222.066 361.074 222.858C359.802 223.626 358.29 224.01 356.538 224.01ZM356.538 206.982C355.746 206.982 355.026 207.126 354.378 207.414C353.73 207.678 353.166 208.062 352.686 208.566C352.23 209.07 351.87 209.67 351.606 210.366C351.342 211.038 351.21 211.782 351.21 212.598V212.85H361.47V212.454C361.47 210.798 361.014 209.478 360.102 208.494C359.214 207.486 358.026 206.982 356.538 206.982ZM369.312 223.578V205.002H372.192V208.422H372.372C372.708 207.534 373.308 206.742 374.172 206.046C375.036 205.35 376.224 205.002 377.736 205.002H378.852V207.882H377.16C375.6 207.882 374.376 208.182 373.488 208.782C372.624 209.358 372.192 210.09 372.192 210.978V223.578H369.312ZM388.11 224.01C386.382 224.01 384.93 223.686 383.754 223.038C382.602 222.366 381.606 221.478 380.766 220.374L382.818 218.718C383.538 219.63 384.342 220.338 385.23 220.842C386.118 221.322 387.15 221.562 388.326 221.562C389.55 221.562 390.498 221.298 391.17 220.77C391.866 220.242 392.214 219.498 392.214 218.538C392.214 217.818 391.974 217.206 391.494 216.702C391.038 216.174 390.198 215.814 388.974 215.622L387.498 215.406C386.634 215.286 385.842 215.106 385.122 214.866C384.402 214.602 383.766 214.266 383.214 213.858C382.686 213.426 382.266 212.898 381.954 212.274C381.666 211.65 381.522 210.906 381.522 210.042C381.522 209.13 381.69 208.338 382.026 207.666C382.362 206.97 382.818 206.394 383.394 205.938C383.994 205.482 384.702 205.146 385.518 204.93C386.334 204.69 387.21 204.57 388.146 204.57C389.658 204.57 390.918 204.834 391.926 205.362C392.958 205.89 393.858 206.622 394.626 207.558L392.718 209.286C392.31 208.71 391.71 208.194 390.918 207.738C390.126 207.258 389.13 207.018 387.93 207.018C386.73 207.018 385.818 207.282 385.194 207.81C384.594 208.314 384.294 209.01 384.294 209.898C384.294 210.81 384.594 211.47 385.194 211.878C385.818 212.286 386.706 212.586 387.858 212.778L389.298 212.994C391.362 213.306 392.826 213.906 393.69 214.794C394.554 215.658 394.986 216.798 394.986 218.214C394.986 220.014 394.374 221.43 393.15 222.462C391.926 223.494 390.246 224.01 388.11 224.01Z" fill="#7E7E7E"/>
<path d="M684.968 223.578L676.616 198.45H679.856L683.996 211.122L686.768 220.554H686.948L689.792 211.122L693.968 198.45H697.1L688.64 223.578H684.968ZM702.334 200.646C701.71 200.646 701.254 200.502 700.966 200.214C700.702 199.902 700.57 199.506 700.57 199.026V198.558C700.57 198.078 700.702 197.694 700.966 197.406C701.254 197.094 701.71 196.938 702.334 196.938C702.958 196.938 703.402 197.094 703.666 197.406C703.954 197.694 704.098 198.078 704.098 198.558V199.026C704.098 199.506 703.954 199.902 703.666 200.214C703.402 200.502 702.958 200.646 702.334 200.646ZM700.894 205.002H703.774V223.578H700.894V205.002ZM716.878 224.01C715.606 224.01 714.454 223.782 713.422 223.326C712.414 222.87 711.538 222.222 710.794 221.382C710.074 220.518 709.51 219.498 709.102 218.322C708.718 217.122 708.526 215.778 708.526 214.29C708.526 212.826 708.718 211.494 709.102 210.294C709.51 209.094 710.074 208.074 710.794 207.234C711.538 206.37 712.414 205.71 713.422 205.254C714.454 204.798 715.606 204.57 716.878 204.57C718.126 204.57 719.242 204.798 720.226 205.254C721.21 205.71 722.05 206.346 722.746 207.162C723.442 207.954 723.97 208.902 724.33 210.006C724.714 211.11 724.906 212.322 724.906 213.642V215.01H711.55V215.874C711.55 216.666 711.67 217.41 711.91 218.106C712.174 218.778 712.534 219.366 712.99 219.87C713.47 220.374 714.046 220.77 714.718 221.058C715.414 221.346 716.194 221.49 717.058 221.49C718.234 221.49 719.254 221.214 720.118 220.662C721.006 220.11 721.69 219.318 722.17 218.286L724.222 219.762C723.622 221.034 722.686 222.066 721.414 222.858C720.142 223.626 718.63 224.01 716.878 224.01ZM716.878 206.982C716.086 206.982 715.366 207.126 714.718 207.414C714.07 207.678 713.506 208.062 713.026 208.566C712.57 209.07 712.21 209.67 711.946 210.366C711.682 211.038 711.55 211.782 711.55 212.598V212.85H721.81V212.454C721.81 210.798 721.354 209.478 720.442 208.494C719.554 207.486 718.366 206.982 716.878 206.982ZM727.532 205.002H730.34L732.32 213.03L734.3 221.166H734.372L736.64 213.03L738.98 205.002H741.536L743.948 213.03L746.252 221.166H746.324L748.232 213.03L750.248 205.002H752.948L748.016 223.578H744.452L741.86 214.65L740.24 208.998H740.168L738.584 214.65L735.992 223.578H732.5L727.532 205.002ZM763.917 224.01C762.645 224.01 761.493 223.782 760.461 223.326C759.453 222.87 758.577 222.222 757.833 221.382C757.113 220.518 756.549 219.498 756.141 218.322C755.757 217.122 755.565 215.778 755.565 214.29C755.565 212.826 755.757 211.494 756.141 210.294C756.549 209.094 757.113 208.074 757.833 207.234C758.577 206.37 759.453 205.71 760.461 205.254C761.493 204.798 762.645 204.57 763.917 204.57C765.165 204.57 766.281 204.798 767.265 205.254C768.249 205.71 769.089 206.346 769.785 207.162C770.481 207.954 771.009 208.902 771.369 210.006C771.753 211.11 771.945 212.322 771.945 213.642V215.01H758.589V215.874C758.589 216.666 758.709 217.41 758.949 218.106C759.213 218.778 759.573 219.366 760.029 219.87C760.509 220.374 761.085 220.77 761.757 221.058C762.453 221.346 763.233 221.49 764.097 221.49C765.273 221.49 766.293 221.214 767.157 220.662C768.045 220.11 768.729 219.318 769.209 218.286L771.261 219.762C770.661 221.034 769.725 222.066 768.453 222.858C767.181 223.626 765.669 224.01 763.917 224.01ZM763.917 206.982C763.125 206.982 762.405 207.126 761.757 207.414C761.109 207.678 760.545 208.062 760.065 208.566C759.609 209.07 759.249 209.67 758.985 210.366C758.721 211.038 758.589 211.782 758.589 212.598V212.85H768.849V212.454C768.849 210.798 768.393 209.478 767.481 208.494C766.593 207.486 765.405 206.982 763.917 206.982ZM776.691 223.578V205.002H779.571V208.422H779.751C780.087 207.534 780.687 206.742 781.551 206.046C782.415 205.35 783.603 205.002 785.115 205.002H786.231V207.882H784.539C782.979 207.882 781.755 208.182 780.867 208.782C780.003 209.358 779.571 210.09 779.571 210.978V223.578H776.691ZM795.489 224.01C793.761 224.01 792.309 223.686 791.133 223.038C789.981 222.366 788.985 221.478 788.145 220.374L790.197 218.718C790.917 219.63 791.721 220.338 792.609 220.842C793.497 221.322 794.529 221.562 795.705 221.562C796.929 221.562 797.877 221.298 798.549 220.77C799.245 220.242 799.593 219.498 799.593 218.538C799.593 217.818 799.353 217.206 798.873 216.702C798.417 216.174 797.577 215.814 796.353 215.622L794.877 215.406C794.013 215.286 793.221 215.106 792.501 214.866C791.781 214.602 791.145 214.266 790.593 213.858C790.065 213.426 789.645 212.898 789.333 212.274C789.045 211.65 788.901 210.906 788.901 210.042C788.901 209.13 789.069 208.338 789.405 207.666C789.741 206.97 790.197 206.394 790.773 205.938C791.373 205.482 792.081 205.146 792.897 204.93C793.713 204.69 794.589 204.57 795.525 204.57C797.037 204.57 798.297 204.834 799.305 205.362C800.337 205.89 801.237 206.622 802.005 207.558L800.097 209.286C799.689 208.71 799.089 208.194 798.297 207.738C797.505 207.258 796.509 207.018 795.309 207.018C794.109 207.018 793.197 207.282 792.573 207.81C791.973 208.314 791.673 209.01 791.673 209.898C791.673 210.81 791.973 211.47 792.573 211.878C793.197 212.286 794.085 212.586 795.237 212.778L796.677 212.994C798.741 213.306 800.205 213.906 801.069 214.794C801.933 215.658 802.365 216.798 802.365 218.214C802.365 220.014 801.753 221.43 800.529 222.462C799.305 223.494 797.625 224.01 795.489 224.01Z" fill="#7E7E7E"/>
<path d="M488.421 198.45V214.002C488.421 216.402 488.865 218.226 489.753 219.474C490.641 220.698 492.201 221.31 494.433 221.31C496.665 221.31 498.225 220.698 499.113 219.474C500.001 218.226 500.445 216.402 500.445 214.002V198.45H503.469V213.282C503.469 215.106 503.301 216.69 502.965 218.034C502.653 219.378 502.137 220.494 501.417 221.382C500.697 222.27 499.749 222.93 498.573 223.362C497.421 223.794 496.005 224.01 494.325 224.01C492.645 224.01 491.229 223.794 490.077 223.362C488.949 222.93 488.037 222.27 487.341 221.382C486.645 220.494 486.141 219.378 485.829 218.034C485.541 216.69 485.397 215.106 485.397 213.282V198.45H488.421ZM515.267 224.01C513.539 224.01 512.087 223.686 510.911 223.038C509.759 222.366 508.763 221.478 507.923 220.374L509.975 218.718C510.695 219.63 511.499 220.338 512.387 220.842C513.275 221.322 514.307 221.562 515.483 221.562C516.707 221.562 517.655 221.298 518.327 220.77C519.023 220.242 519.371 219.498 519.371 218.538C519.371 217.818 519.131 217.206 518.651 216.702C518.195 216.174 517.355 215.814 516.131 215.622L514.655 215.406C513.791 215.286 512.999 215.106 512.279 214.866C511.559 214.602 510.923 214.266 510.371 213.858C509.843 213.426 509.423 212.898 509.111 212.274C508.823 211.65 508.679 210.906 508.679 210.042C508.679 209.13 508.847 208.338 509.183 207.666C509.519 206.97 509.975 206.394 510.551 205.938C511.151 205.482 511.859 205.146 512.675 204.93C513.491 204.69 514.367 204.57 515.303 204.57C516.815 204.57 518.075 204.834 519.083 205.362C520.115 205.89 521.015 206.622 521.783 207.558L519.875 209.286C519.467 208.71 518.867 208.194 518.075 207.738C517.283 207.258 516.287 207.018 515.087 207.018C513.887 207.018 512.975 207.282 512.351 207.81C511.751 208.314 511.451 209.01 511.451 209.898C511.451 210.81 511.751 211.47 512.351 211.878C512.975 212.286 513.863 212.586 515.015 212.778L516.455 212.994C518.519 213.306 519.983 213.906 520.847 214.794C521.711 215.658 522.143 216.798 522.143 218.214C522.143 220.014 521.531 221.43 520.307 222.462C519.083 223.494 517.403 224.01 515.267 224.01ZM534.214 224.01C532.942 224.01 531.79 223.782 530.758 223.326C529.75 222.87 528.874 222.222 528.13 221.382C527.41 220.518 526.846 219.498 526.438 218.322C526.054 217.122 525.862 215.778 525.862 214.29C525.862 212.826 526.054 211.494 526.438 210.294C526.846 209.094 527.41 208.074 528.13 207.234C528.874 206.37 529.75 205.71 530.758 205.254C531.79 204.798 532.942 204.57 534.214 204.57C535.462 204.57 536.578 204.798 537.562 205.254C538.546 205.71 539.386 206.346 540.082 207.162C540.778 207.954 541.306 208.902 541.666 210.006C542.05 211.11 542.242 212.322 542.242 213.642V215.01H528.886V215.874C528.886 216.666 529.006 217.41 529.246 218.106C529.51 218.778 529.87 219.366 530.326 219.87C530.806 220.374 531.382 220.77 532.054 221.058C532.75 221.346 533.53 221.49 534.394 221.49C535.57 221.49 536.59 221.214 537.454 220.662C538.342 220.11 539.026 219.318 539.506 218.286L541.558 219.762C540.958 221.034 540.022 222.066 538.75 222.858C537.478 223.626 535.966 224.01 534.214 224.01ZM534.214 206.982C533.422 206.982 532.702 207.126 532.054 207.414C531.406 207.678 530.842 208.062 530.362 208.566C529.906 209.07 529.546 209.67 529.282 210.366C529.018 211.038 528.886 211.782 528.886 212.598V212.85H539.146V212.454C539.146 210.798 538.69 209.478 537.778 208.494C536.89 207.486 535.702 206.982 534.214 206.982ZM546.988 223.578V205.002H549.868V208.422H550.048C550.384 207.534 550.984 206.742 551.848 206.046C552.712 205.35 553.9 205.002 555.412 205.002H556.528V207.882H554.836C553.276 207.882 552.052 208.182 551.164 208.782C550.3 209.358 549.868 210.09 549.868 210.978V223.578H546.988ZM565.787 224.01C564.059 224.01 562.607 223.686 561.431 223.038C560.279 222.366 559.283 221.478 558.443 220.374L560.495 218.718C561.215 219.63 562.019 220.338 562.907 220.842C563.795 221.322 564.827 221.562 566.003 221.562C567.227 221.562 568.175 221.298 568.847 220.77C569.543 220.242 569.891 219.498 569.891 218.538C569.891 217.818 569.651 217.206 569.171 216.702C568.715 216.174 567.875 215.814 566.651 215.622L565.175 215.406C564.311 215.286 563.519 215.106 562.799 214.866C562.079 214.602 561.443 214.266 560.891 213.858C560.363 213.426 559.943 212.898 559.631 212.274C559.343 211.65 559.199 210.906 559.199 210.042C559.199 209.13 559.367 208.338 559.703 207.666C560.039 206.97 560.495 206.394 561.071 205.938C561.671 205.482 562.379 205.146 563.195 204.93C564.011 204.69 564.887 204.57 565.823 204.57C567.335 204.57 568.595 204.834 569.603 205.362C570.635 205.89 571.535 206.622 572.303 207.558L570.395 209.286C569.987 208.71 569.387 208.194 568.595 207.738C567.803 207.258 566.807 207.018 565.607 207.018C564.407 207.018 563.495 207.282 562.871 207.81C562.271 208.314 561.971 209.01 561.971 209.898C561.971 210.81 562.271 211.47 562.871 211.878C563.495 212.286 564.383 212.586 565.535 212.778L566.975 212.994C569.039 213.306 570.503 213.906 571.367 214.794C572.231 215.658 572.663 216.798 572.663 218.214C572.663 220.014 572.051 221.43 570.827 222.462C569.603 223.494 567.923 224.01 565.787 224.01Z" fill="#7E7E7E"/>
<path d="M34.1575 223.578V198.45H49.4935V201.114H37.1815V209.538H48.7735V212.202H37.1815V220.914H49.4935V223.578H34.1575ZM66.3862 220.554H66.2422C65.1142 222.858 63.3022 224.01 60.8062 224.01C59.6542 224.01 58.6102 223.782 57.6742 223.326C56.7382 222.87 55.9342 222.222 55.2622 221.382C54.6142 220.542 54.1102 219.522 53.7502 218.322C53.4142 217.122 53.2462 215.778 53.2462 214.29C53.2462 212.802 53.4142 211.458 53.7502 210.258C54.1102 209.058 54.6142 208.038 55.2622 207.198C55.9342 206.358 56.7382 205.71 57.6742 205.254C58.6102 204.798 59.6542 204.57 60.8062 204.57C62.1022 204.57 63.2062 204.858 64.1182 205.434C65.0542 205.986 65.7622 206.85 66.2422 208.026H66.3862V196.938H69.2662V223.578H66.3862V220.554ZM61.5982 221.418C62.2462 221.418 62.8582 221.334 63.4342 221.166C64.0342 220.998 64.5502 220.758 64.9822 220.446C65.4142 220.11 65.7502 219.714 65.9902 219.258C66.2542 218.778 66.3862 218.238 66.3862 217.638V210.726C66.3862 210.222 66.2542 209.754 65.9902 209.322C65.7502 208.866 65.4142 208.482 64.9822 208.17C64.5502 207.858 64.0342 207.618 63.4342 207.45C62.8582 207.258 62.2462 207.162 61.5982 207.162C59.9662 207.162 58.6822 207.678 57.7462 208.71C56.8102 209.718 56.3422 211.05 56.3422 212.706V215.874C56.3422 217.53 56.8102 218.874 57.7462 219.906C58.6822 220.914 59.9662 221.418 61.5982 221.418ZM76.829 200.646C76.205 200.646 75.749 200.502 75.461 200.214C75.197 199.902 75.065 199.506 75.065 199.026V198.558C75.065 198.078 75.197 197.694 75.461 197.406C75.749 197.094 76.205 196.938 76.829 196.938C77.453 196.938 77.897 197.094 78.161 197.406C78.449 197.694 78.593 198.078 78.593 198.558V199.026C78.593 199.506 78.449 199.902 78.161 200.214C77.897 200.502 77.453 200.646 76.829 200.646ZM75.389 205.002H78.269V223.578H75.389V205.002ZM88.493 223.578C87.485 223.578 86.717 223.302 86.189 222.75C85.685 222.174 85.433 221.43 85.433 220.518V207.522H82.373V205.002H84.101C84.725 205.002 85.145 204.882 85.361 204.642C85.601 204.378 85.721 203.934 85.721 203.31V199.854H88.313V205.002H92.381V207.522H88.313V221.058H92.093V223.578H88.493ZM103.89 224.01C102.642 224.01 101.502 223.782 100.47 223.326C99.4375 222.87 98.5495 222.222 97.8055 221.382C97.0855 220.518 96.5215 219.498 96.1135 218.322C95.7055 217.122 95.5015 215.778 95.5015 214.29C95.5015 212.826 95.7055 211.494 96.1135 210.294C96.5215 209.094 97.0855 208.074 97.8055 207.234C98.5495 206.37 99.4375 205.71 100.47 205.254C101.502 204.798 102.642 204.57 103.89 204.57C105.138 204.57 106.266 204.798 107.274 205.254C108.306 205.71 109.194 206.37 109.938 207.234C110.682 208.074 111.258 209.094 111.666 210.294C112.074 211.494 112.278 212.826 112.278 214.29C112.278 215.778 112.074 217.122 111.666 218.322C111.258 219.498 110.682 220.518 109.938 221.382C109.194 222.222 108.306 222.87 107.274 223.326C106.266 223.782 105.138 224.01 103.89 224.01ZM103.89 221.454C105.45 221.454 106.722 220.974 107.706 220.014C108.69 219.054 109.182 217.59 109.182 215.622V212.958C109.182 210.99 108.69 209.526 107.706 208.566C106.722 207.606 105.45 207.126 103.89 207.126C102.33 207.126 101.058 207.606 100.074 208.566C99.0895 209.526 98.5975 210.99 98.5975 212.958V215.622C98.5975 217.59 99.0895 219.054 100.074 220.014C101.058 220.974 102.33 221.454 103.89 221.454ZM117.014 223.578V205.002H119.894V208.422H120.074C120.41 207.534 121.01 206.742 121.874 206.046C122.738 205.35 123.926 205.002 125.438 205.002H126.554V207.882H124.862C123.302 207.882 122.078 208.182 121.19 208.782C120.326 209.358 119.894 210.09 119.894 210.978V223.578H117.014ZM135.813 224.01C134.085 224.01 132.633 223.686 131.457 223.038C130.305 222.366 129.309 221.478 128.469 220.374L130.521 218.718C131.241 219.63 132.045 220.338 132.933 220.842C133.821 221.322 134.853 221.562 136.029 221.562C137.253 221.562 138.201 221.298 138.873 220.77C139.569 220.242 139.917 219.498 139.917 218.538C139.917 217.818 139.677 217.206 139.197 216.702C138.741 216.174 137.901 215.814 136.677 215.622L135.201 215.406C134.337 215.286 133.545 215.106 132.825 214.866C132.105 214.602 131.469 214.266 130.917 213.858C130.389 213.426 129.969 212.898 129.657 212.274C129.369 211.65 129.225 210.906 129.225 210.042C129.225 209.13 129.393 208.338 129.729 207.666C130.065 206.97 130.521 206.394 131.097 205.938C131.697 205.482 132.405 205.146 133.221 204.93C134.037 204.69 134.913 204.57 135.849 204.57C137.361 204.57 138.621 204.834 139.629 205.362C140.661 205.89 141.561 206.622 142.329 207.558L140.421 209.286C140.013 208.71 139.413 208.194 138.621 207.738C137.829 207.258 136.833 207.018 135.633 207.018C134.433 207.018 133.521 207.282 132.897 207.81C132.297 208.314 131.997 209.01 131.997 209.898C131.997 210.81 132.297 211.47 132.897 211.878C133.521 212.286 134.409 212.586 135.561 212.778L137.001 212.994C139.065 213.306 140.529 213.906 141.393 214.794C142.257 215.658 142.689 216.798 142.689 218.214C142.689 220.014 142.077 221.43 140.853 222.462C139.629 223.494 137.949 224.01 135.813 224.01Z" fill="#7E7E7E"/>
<defs>
<clipPath id="clip0">
<rect width="157.445" height="196.618" fill="white" transform="translate(691.555 7.53326)"/>
</clipPath>
<clipPath id="clip1">
<rect width="177.032" height="221.478" fill="white" transform="translate(9.79324)"/>
</clipPath>
</defs>
</svg>
