<svg width="410" height="391" viewBox="0 0 410 391" fill="none" xmlns="http://www.w3.org/2000/svg">
<g clip-path="url(#clip0)">
<path d="M347.893 386.562H288.631V145.54H399.293L347.893 386.562Z" fill="url(#paint0_linear)"/>
<path d="M344.942 386.562H286.854V145.54H395.319L344.942 386.562Z" fill="#F5F5F5"/>
<path d="M237.728 -0.0213959L-0.00268555 66.4988L25.5504 157.972L263.282 91.4518L237.728 -0.0213959Z" fill="url(#paint1_linear)"/>
<path d="M236.589 1.72198L2.83063 67.1305L27.565 155.673L261.323 90.2644L236.589 1.72198Z" fill="white"/>
<path d="M60.1923 81.1745L28.5283 89.6589C26.544 90.1906 25.367 92.232 25.8993 94.2185L33.0741 120.995C33.6064 122.982 35.6465 124.161 37.6307 123.63L69.2947 115.145C71.279 114.614 72.456 112.572 71.9237 110.586L64.7489 83.8088C64.2166 81.8223 62.1766 80.6429 60.1923 81.1745Z" fill="#00C8DD"/>
<path d="M133.863 63.9462L75.0516 80.4024L76.3062 84.8934L135.118 68.4372L133.863 63.9462Z" fill="#BDBDBD"/>
<path d="M138.88 81.9013L80.0681 98.3576L81.3226 102.849L140.134 86.3924L138.88 81.9013Z" fill="white"/>
<path d="M172.067 62.9329L77.5565 89.378L78.8111 93.869L173.321 67.4239L172.067 62.9329Z" fill="#E0E0E0"/>
<path d="M302.747 20.3822L70.3208 106.985L103.887 197.22L336.313 110.618L302.747 20.3822Z" fill="url(#paint2_linear)"/>
<path d="M300.999 23.7372L73.5294 108.493L105.58 194.653L333.049 109.898L300.999 23.7372Z" fill="white"/>
<path d="M203.836 94.3437L146.606 115.668L148.232 120.038L205.461 98.7139L203.836 94.3437Z" fill="#BDBDBD"/>
<path d="M210.338 111.816L153.109 133.14L154.735 137.51L211.964 116.187L210.338 111.816Z" fill="white"/>
<path d="M243.077 90.1892L150.83 124.565L152.461 128.948L244.707 94.5727L243.077 90.1892Z" fill="#64FFDA"/>
<path d="M129.498 118.455L98.6937 129.666C96.7634 130.369 95.7687 132.505 96.4721 134.438L105.953 160.487C106.657 162.42 108.792 163.417 110.722 162.714L141.526 151.503C143.457 150.8 144.451 148.664 143.748 146.731L134.267 120.682C133.563 118.749 131.428 117.752 129.498 118.455Z" fill="#00C8DD"/>
<path d="M166.45 81.6506L149.48 176.998L393.028 220.417L409.998 125.069L166.45 81.6506Z" fill="url(#paint3_linear)"/>
<path d="M406.577 126.511L167.616 83.9103L151.507 174.423L390.468 217.024L406.577 126.511Z" fill="white"/>
<path d="M211.053 119.338L178.77 113.646C176.747 113.289 174.818 114.642 174.46 116.667L169.647 143.968C169.29 145.993 170.64 147.924 172.663 148.281L204.946 153.973C206.969 154.33 208.899 152.977 209.256 150.952L214.069 123.651C214.427 121.626 213.076 119.695 211.053 119.338Z" fill="#00C8DD"/>
<path d="M226.928 127.234L226.111 131.825L286.232 142.543L287.049 137.952L226.928 127.234Z" fill="#BDBDBD"/>
<path d="M223.665 145.596L222.847 150.187L282.968 160.905L283.785 156.314L223.665 145.596Z" fill="white"/>
<path d="M225.293 136.415L224.476 141.006L321.089 158.23L321.906 153.639L225.293 136.415Z" fill="#64FFDA"/>
<path d="M209.856 136.027C210.908 130.111 206.971 124.462 201.06 123.408C195.15 122.355 189.505 126.296 188.452 132.211C187.4 138.126 191.337 143.775 197.248 144.829C203.158 145.883 208.803 141.942 209.856 136.027Z" fill="#00C8DD"/>
<path d="M96.5493 142.705L56.5481 114.675H1.16345V142.705V156.436V391H347.309V142.705H96.5493Z" fill="url(#paint4_linear)"/>
<path d="M98.0443 145.54L58.6557 118.331H4.12543V145.54V158.872V386.562H344.942V145.54H98.0443Z" fill="white"/>
<path d="M267.694 329.68C267.699 330.761 267.274 331.799 266.514 332.567C265.755 333.335 264.721 333.769 263.642 333.775H85.4319C84.3521 333.769 83.3189 333.335 82.5591 332.567C81.7993 331.799 81.375 330.761 81.3795 329.68V207.839C81.375 206.758 81.7993 205.72 82.5591 204.952C83.3189 204.184 84.3521 203.75 85.4319 203.744H263.642C264.721 203.75 265.755 204.184 266.514 204.952C267.274 205.72 267.699 206.758 267.694 207.839" fill="url(#paint5_linear)"/>
<path d="M265.598 327.694C265.598 328.739 265.183 329.74 264.445 330.479C263.707 331.217 262.707 331.632 261.663 331.632H87.562C86.5186 331.632 85.5179 331.217 84.78 330.479C84.0422 329.74 83.6277 328.739 83.6277 327.694V209.914C83.6277 208.87 84.0422 207.869 84.78 207.13C85.5179 206.392 86.5186 205.977 87.562 205.977H261.641C262.684 205.977 263.685 206.392 264.423 207.13C265.161 207.869 265.575 208.87 265.575 209.914" fill="white"/>
<path d="M253.845 211.422H95.532C92.7848 211.422 90.5578 213.651 90.5578 216.4V321.625C90.5578 324.374 92.7848 326.603 95.532 326.603H253.845C256.592 326.603 258.819 324.374 258.819 321.625V216.4C258.819 213.651 256.592 211.422 253.845 211.422Z" fill="url(#paint6_linear)"/>
<path d="M251.597 214.229H97.6003C94.8532 214.229 92.6262 216.458 92.6262 219.207V318.385C92.6262 321.134 94.8532 323.363 97.6003 323.363H251.597C254.344 323.363 256.571 321.134 256.571 318.385V219.207C256.571 216.458 254.344 214.229 251.597 214.229Z" fill="#00C8DD"/>
</g>
<defs>
<linearGradient id="paint0_linear" x1="343.965" y1="386.562" x2="343.965" y2="145.54" gradientUnits="userSpaceOnUse">
<stop stop-color="#808080" stop-opacity="0.25"/>
<stop offset="0.54" stop-color="#808080" stop-opacity="0.12"/>
<stop offset="1" stop-color="#808080" stop-opacity="0.1"/>
</linearGradient>
<linearGradient id="paint1_linear" x1="107322" y1="19806.1" x2="105005" y2="-7279.65" gradientUnits="userSpaceOnUse">
<stop stop-color="#808080" stop-opacity="0.25"/>
<stop offset="0.54" stop-color="#808080" stop-opacity="0.12"/>
<stop offset="1" stop-color="#808080" stop-opacity="0.1"/>
</linearGradient>
<linearGradient id="paint2_linear" x1="148144" y1="43681.1" x2="148144" y2="13409.7" gradientUnits="userSpaceOnUse">
<stop stop-color="#808080" stop-opacity="0.25"/>
<stop offset="0.54" stop-color="#808080" stop-opacity="0.12"/>
<stop offset="1" stop-color="#808080" stop-opacity="0.1"/>
</linearGradient>
<linearGradient id="paint3_linear" x1="83028.4" y1="120697" x2="88556.7" y2="59197.4" gradientUnits="userSpaceOnUse">
<stop stop-color="#808080" stop-opacity="0.25"/>
<stop offset="0.54" stop-color="#808080" stop-opacity="0.12"/>
<stop offset="1" stop-color="#808080" stop-opacity="0.1"/>
</linearGradient>
<linearGradient id="paint4_linear" x1="107306" y1="192186" x2="107306" y2="56446.3" gradientUnits="userSpaceOnUse">
<stop stop-color="#808080" stop-opacity="0.25"/>
<stop offset="0.54" stop-color="#808080" stop-opacity="0.12"/>
<stop offset="1" stop-color="#808080" stop-opacity="0.1"/>
</linearGradient>
<linearGradient id="paint5_linear" x1="174.534" y1="333.775" x2="174.534" y2="203.738" gradientUnits="userSpaceOnUse">
<stop stop-color="#B3B3B3" stop-opacity="0.39"/>
<stop offset="0.54" stop-color="#B3B3B3" stop-opacity="0.27"/>
<stop offset="1" stop-color="#B3B3B3" stop-opacity="0.19"/>
</linearGradient>
<linearGradient id="paint6_linear" x1="52386.2" y1="67087.8" x2="52386.2" y2="43502.2" gradientUnits="userSpaceOnUse">
<stop stop-color="#B3B3B3" stop-opacity="0.25"/>
<stop offset="0.54" stop-color="#B3B3B3" stop-opacity="0.1"/>
<stop offset="1" stop-color="#B3B3B3" stop-opacity="0.05"/>
</linearGradient>
<clipPath id="clip0">
<rect width="410" height="391" fill="white"/>
</clipPath>
</defs>
</svg>
