<svg width="624" height="360" viewBox="0 0 624 360" fill="none" xmlns="http://www.w3.org/2000/svg">
<path d="M78.002 196.307L72.9065 187.462L102.405 170.246V136.33H112.595V170.526L142.093 187.483L136.998 196.328L107.285 179.241L78.002 196.307ZM210.421 220.43C203.498 214.848 195.994 210.028 188.039 206.055C187.922 205.998 187.824 205.909 187.755 205.799C187.687 205.689 187.651 205.561 187.652 205.431V197.856C188.724 196.047 189.453 194.055 189.802 191.981C190.64 191.981 191.737 190.754 192.898 186.579C194.51 180.877 192.898 180.123 191.35 180.123C191.621 179.36 191.829 178.575 191.973 177.778C194.424 163.015 187.179 162.499 187.179 162.499C186.137 160.78 184.652 159.375 182.879 158.431C180.161 156.859 177.013 156.195 173.892 156.538C172.676 156.599 171.475 156.831 170.323 157.226V157.226C168.923 157.712 167.598 158.393 166.388 159.249C164.907 160.195 163.549 161.323 162.347 162.606C160.238 164.725 158.75 167.382 158.047 170.289C157.476 172.76 157.476 175.328 158.047 177.799V177.799C158.191 178.597 158.399 179.381 158.67 180.145C157.23 180.016 155.51 180.855 157.122 186.601C158.305 190.754 159.401 191.938 160.218 192.003C160.568 194.097 161.296 196.11 162.368 197.942V205.366C162.369 205.496 162.333 205.624 162.265 205.734C162.196 205.845 162.098 205.934 161.981 205.991C154.026 209.964 146.522 214.783 139.6 220.366C138.741 221.08 138.052 221.975 137.58 222.987C137.108 223.999 136.865 225.103 136.869 226.219V236.979H213.151V226.219C213.146 225.113 212.898 224.022 212.427 223.022C211.955 222.022 211.27 221.137 210.421 220.43ZM78.2385 226.305C78.2426 225.189 78 224.085 77.5279 223.073C77.0559 222.061 76.3661 221.166 75.508 220.452C68.5793 214.861 61.0682 210.034 53.105 206.055C52.9882 205.998 52.8899 205.909 52.8214 205.799C52.7529 205.689 52.7171 205.561 52.718 205.431V197.856C53.7898 196.047 54.5187 194.055 54.868 191.981C55.7065 191.981 56.803 190.754 57.964 186.579C59.5765 180.877 57.964 180.123 56.416 180.123C56.6865 179.36 56.895 178.575 57.0395 177.778C59.4905 163.015 52.245 162.499 52.245 162.499C51.2034 160.78 49.7178 159.375 47.945 158.431C45.227 156.859 42.0787 156.195 38.958 156.538C37.7421 156.599 36.5408 156.831 35.389 157.226V157.226C33.989 157.712 32.6645 158.393 31.4545 159.249C29.9726 160.195 28.6147 161.323 27.4125 162.606C25.3035 164.725 23.8161 167.382 23.1125 170.289C22.542 172.76 22.542 175.328 23.1125 177.799C23.2231 178.631 23.4029 179.451 23.65 180.253C22.2095 180.123 20.4895 180.963 22.102 186.709C23.2845 190.862 24.381 192.046 25.198 192.11C25.5477 194.204 26.2763 196.217 27.348 198.05V205.474C27.3489 205.604 27.3131 205.732 27.2446 205.842C27.1761 205.952 27.0778 206.041 26.961 206.098C19.0083 210.058 11.5045 214.863 4.57951 220.43C3.71861 221.147 3.02717 222.045 2.555 223.061C2.08284 224.077 1.84172 225.185 1.84901 226.305V237.065H78.2385V226.305ZM140.201 103.039C140.054 101.613 139.538 100.251 138.705 99.0847C137.872 97.9188 136.75 96.9899 135.45 96.3892C133.246 95.3019 130.942 94.4298 128.57 93.7852C124.843 92.7937 121.198 91.513 117.67 89.9547L117.369 89.761C117.012 89.5263 116.72 89.2068 116.517 88.8313C116.315 88.4558 116.208 88.0358 116.207 87.609V84.2519V83.1328C116.207 83.1328 126.248 83.4341 131 78.5706C131 78.5706 124.077 76.6123 125.324 63.98C126.571 51.3478 123.775 40.308 113.627 41.2119C113.627 41.2119 109.328 35.918 100.491 39.2536C97.481 40.3941 89.4185 43.2778 89.741 60.7736C90.0635 78.2693 83.5275 78.3769 83.5275 78.3769C83.5275 78.3769 86.946 83.348 98.5775 83.2404V87.5444C98.5767 87.9712 98.4703 88.3912 98.2677 88.7667C98.0651 89.1423 97.7726 89.4617 97.4165 89.6964L97.1585 89.8471C93.63 91.4055 89.9854 92.6862 86.258 93.6776C83.943 94.3535 81.697 95.247 79.55 96.3461C78.2619 96.9555 77.1533 97.8882 76.332 99.0534C75.5107 100.219 75.0046 101.577 74.863 102.996V117.264H140.201V103.039Z" fill="#00BB85"/>
<path d="M588.133 246.301C585.92 254.448 582 259.764 574.781 259.712C567.407 259.659 561.429 253.707 561.429 246.301C561.429 238.894 567.407 232.89 574.781 232.89C582.155 232.89 590.073 239.155 588.133 246.301V246.301Z" fill="#FF0045"/>
<path d="M559.073 257.982C554.599 259.641 548.426 260.551 548.067 270.325C547.707 280.099 552.148 295.785 550.156 311.988L575.505 311.804C571.92 291.88 575.851 290.076 575.892 280.826C575.933 271.576 572.371 263.718 570.014 260.5C567.657 257.282 577.91 255.433 568.763 250.634C559.615 245.834 562.637 256.66 559.073 257.982V257.982Z" fill="#FF0045"/>
<path d="M561.568 264.405C560.713 264.41 559.841 264.632 559.026 265.094C556.416 266.571 555.406 269.921 556.76 272.604L569.277 297.42C569.368 297.599 569.469 297.768 569.575 297.932C569.635 298.41 569.826 298.837 570.215 299.174C570.777 299.659 571.53 299.933 572.354 300.056C573.655 300.461 575.117 300.342 576.432 299.598C576.807 299.386 577.144 299.132 577.451 298.85C577.653 298.714 577.859 298.584 578.043 298.428C584.163 293.222 586.029 282.192 590.573 277.815C595.118 273.438 596.429 271.054 595.443 270.167C594.487 269.309 588.932 272.515 587.756 273.906L586.43 275.475L586.608 274.575C585.299 272.607 590.704 269.318 588.317 269.496C586.132 269.659 583.544 272.142 583.589 273.537C583.667 275.893 584.324 276.409 582.229 280.448C580.732 283.202 578.183 286.189 576.034 288.418C569.631 283.263 569.615 274.082 566.179 267.272C565.248 265.427 563.45 264.392 561.568 264.405V264.405Z" fill="#FF0045"/>
<path d="M586.008 272.697L603.256 260.918C603.965 260.434 604.968 260.584 605.505 261.255C606.043 261.925 605.905 262.855 605.196 263.339L587.948 275.118C587.24 275.602 586.236 275.452 585.699 274.781C585.162 274.111 585.299 273.181 586.008 272.697V272.697Z" fill="#FF0045"/>
<path d="M480.133 245.301C477.92 253.448 474 258.764 466.781 258.712C459.407 258.659 453.429 252.707 453.429 245.301C453.429 237.894 459.407 231.89 466.781 231.89C474.155 231.89 482.073 238.155 480.133 245.301V245.301Z" fill="#FF0045"/>
<path d="M451.073 256.982C446.599 258.641 440.426 259.551 440.067 269.325C439.707 279.099 444.148 294.785 442.156 310.988L467.505 310.804C463.92 290.88 467.851 289.076 467.892 279.826C467.933 270.576 464.371 262.718 462.014 259.5C459.657 256.282 469.91 254.433 460.763 249.634C451.615 244.834 454.637 255.66 451.073 256.982V256.982Z" fill="#FF0045"/>
<path d="M453.568 263.405C452.713 263.41 451.841 263.632 451.026 264.094C448.416 265.571 447.406 268.921 448.76 271.604L461.277 296.42C461.368 296.599 461.469 296.768 461.575 296.932C461.635 297.41 461.826 297.837 462.215 298.174C462.777 298.659 463.53 298.933 464.354 299.056C465.655 299.461 467.117 299.342 468.432 298.598C468.807 298.386 469.144 298.132 469.451 297.85C469.653 297.714 469.859 297.584 470.043 297.428C476.163 292.222 478.029 281.192 482.573 276.815C487.118 272.438 488.429 270.054 487.443 269.167C486.487 268.309 480.932 271.515 479.756 272.906L478.43 274.475L478.608 273.575C477.299 271.607 482.704 268.318 480.317 268.496C478.132 268.659 475.544 271.142 475.589 272.537C475.667 274.893 476.324 275.409 474.229 279.448C472.732 282.202 470.183 285.189 468.034 287.418C461.63 282.263 461.615 273.082 458.179 266.272C457.248 264.427 455.45 263.392 453.568 263.405V263.405Z" fill="#FF0045"/>
<path d="M478.008 271.697L495.256 259.918C495.965 259.434 496.968 259.584 497.505 260.255C498.043 260.925 497.905 261.855 497.196 262.339L479.948 274.118C479.24 274.602 478.236 274.452 477.699 273.781C477.162 273.111 477.299 272.181 478.008 271.697V271.697Z" fill="#FF0045"/>
<path d="M424.414 105.414C425.195 104.633 425.195 103.367 424.414 102.586L411.686 89.8579C410.905 89.0768 409.639 89.0768 408.858 89.8579C408.077 90.6389 408.077 91.9052 408.858 92.6863L420.172 104L408.858 115.314C408.077 116.095 408.077 117.361 408.858 118.142C409.639 118.923 410.905 118.923 411.686 118.142L424.414 105.414ZM215 106H423V102H215V106Z" fill="#BDBDBD"/>
<path d="M415.55 247.923C416.612 247.619 417.227 246.512 416.923 245.45L411.97 228.144C411.667 227.082 410.559 226.468 409.497 226.772C408.435 227.076 407.821 228.183 408.125 229.245L412.527 244.627L397.144 249.03C396.082 249.333 395.468 250.441 395.772 251.503C396.076 252.565 397.183 253.179 398.245 252.875L415.55 247.923ZM214.029 136.749L414.029 247.749L415.971 244.251L215.971 133.251L214.029 136.749Z" fill="#BDBDBD"/>
<path d="M542.241 110.302C535.547 116.987 526.462 121.285 516.422 121.285C506.381 121.285 497.297 116.987 490.603 110.302C478.65 118.897 471 132.267 471 148.025C471 150.89 472.912 152.8 475.781 152.8H557.541C560.409 152.8 562.322 150.89 562.322 148.025C562.322 132.267 554.194 118.897 542.241 110.302Z" fill="#00C8DD"/>
<path d="M516.422 112.213C530.766 112.213 542.241 100.753 542.241 86.4276C542.241 72.1026 530.766 60.6426 516.422 60.6426C502.078 60.6426 490.603 72.1026 490.603 86.4276C490.603 100.753 502.078 112.213 516.422 112.213Z" fill="#00C8DD"/>
<path d="M619.219 0H547.978C545.109 0 543.197 1.91 543.197 4.775V59.6875C543.197 62.5525 545.109 64.4625 547.978 64.4625H557.541V75.9225C557.541 77.8325 558.497 79.265 559.931 80.22C561.366 81.175 563.278 81.175 564.712 80.22L588.619 64.94H619.219C622.087 64.94 624 63.03 624 60.165V4.775C624 1.91 622.087 0 619.219 0ZM570.45 46.795H560.887V31.515H570.45V46.795ZM588.619 46.795H579.056V24.3525H588.619V46.795ZM606.309 46.795H596.747V16.7125H606.309V46.795Z" fill="#00C8DD"/>
<path d="M26.6293 278.832H26.4493L24.3253 283.044L18.3133 293.988L12.3013 283.044L10.1773 278.832H9.99727V300H7.04527V274.872H11.0773L18.2773 288.408H18.4573L25.6933 274.872H29.5813V300H26.6293V278.832ZM49.4721 300C48.3921 300 47.6121 299.712 47.1321 299.136C46.6761 298.56 46.3881 297.84 46.2681 296.976H46.0881C45.6801 298.128 45.0081 298.992 44.0721 299.568C43.1361 300.144 42.0201 300.432 40.7241 300.432C38.7561 300.432 37.2201 299.928 36.1161 298.92C35.0361 297.912 34.4961 296.544 34.4961 294.816C34.4961 293.064 35.1321 291.72 36.4041 290.784C37.7001 289.848 39.7041 289.38 42.4161 289.38H46.0881V287.544C46.0881 286.224 45.7281 285.216 45.0081 284.52C44.2881 283.824 43.1841 283.476 41.6961 283.476C40.5681 283.476 39.6201 283.728 38.8521 284.232C38.1081 284.736 37.4841 285.408 36.9801 286.248L35.2521 284.628C35.7561 283.62 36.5601 282.768 37.6641 282.072C38.7681 281.352 40.1601 280.992 41.8401 280.992C44.0961 280.992 45.8481 281.544 47.0961 282.648C48.3441 283.752 48.9681 285.288 48.9681 287.256V297.48H51.0921V300H49.4721ZM41.1921 297.984C41.9121 297.984 42.5721 297.9 43.1721 297.732C43.7721 297.564 44.2881 297.324 44.7201 297.012C45.1521 296.7 45.4881 296.34 45.7281 295.932C45.9681 295.524 46.0881 295.08 46.0881 294.6V291.54H42.2721C40.6161 291.54 39.4041 291.78 38.6361 292.26C37.8921 292.74 37.5201 293.436 37.5201 294.348V295.104C37.5201 296.016 37.8441 296.724 38.4921 297.228C39.1641 297.732 40.0641 297.984 41.1921 297.984ZM55.2026 300V281.424H58.0826V284.448H58.2266C58.6826 283.392 59.3186 282.552 60.1346 281.928C60.9746 281.304 62.0906 280.992 63.4826 280.992C65.4026 280.992 66.9146 281.616 68.0186 282.864C69.1466 284.088 69.7106 285.828 69.7106 288.084V300H66.8306V288.588C66.8306 285.252 65.4266 283.584 62.6186 283.584C62.0426 283.584 61.4786 283.656 60.9266 283.8C60.3986 283.944 59.9186 284.16 59.4866 284.448C59.0546 284.736 58.7066 285.108 58.4426 285.564C58.2026 285.996 58.0826 286.512 58.0826 287.112V300H55.2026ZM89.1635 300C88.0835 300 87.3035 299.712 86.8235 299.136C86.3675 298.56 86.0795 297.84 85.9595 296.976H85.7795C85.3715 298.128 84.6995 298.992 83.7635 299.568C82.8275 300.144 81.7115 300.432 80.4155 300.432C78.4475 300.432 76.9115 299.928 75.8075 298.92C74.7275 297.912 74.1875 296.544 74.1875 294.816C74.1875 293.064 74.8235 291.72 76.0955 290.784C77.3915 289.848 79.3955 289.38 82.1075 289.38H85.7795V287.544C85.7795 286.224 85.4195 285.216 84.6995 284.52C83.9795 283.824 82.8755 283.476 81.3875 283.476C80.2595 283.476 79.3115 283.728 78.5435 284.232C77.7995 284.736 77.1755 285.408 76.6715 286.248L74.9435 284.628C75.4475 283.62 76.2515 282.768 77.3555 282.072C78.4595 281.352 79.8515 280.992 81.5315 280.992C83.7875 280.992 85.5395 281.544 86.7875 282.648C88.0355 283.752 88.6595 285.288 88.6595 287.256V297.48H90.7835V300H89.1635ZM80.8835 297.984C81.6035 297.984 82.2635 297.9 82.8635 297.732C83.4635 297.564 83.9795 297.324 84.4115 297.012C84.8435 296.7 85.1795 296.34 85.4195 295.932C85.6595 295.524 85.7795 295.08 85.7795 294.6V291.54H81.9635C80.3075 291.54 79.0955 291.78 78.3275 292.26C77.5835 292.74 77.2115 293.436 77.2115 294.348V295.104C77.2115 296.016 77.5355 296.724 78.1835 297.228C78.8555 297.732 79.7555 297.984 80.8835 297.984ZM110.554 302.052C110.554 303.972 109.798 305.376 108.286 306.264C106.798 307.176 104.554 307.632 101.554 307.632C98.65 307.632 96.562 307.236 95.29 306.444C94.018 305.652 93.382 304.524 93.382 303.06C93.382 302.052 93.646 301.26 94.174 300.684C94.702 300.132 95.422 299.724 96.334 299.46V299.064C95.23 298.536 94.678 297.672 94.678 296.472C94.678 295.536 94.978 294.828 95.578 294.348C96.178 293.844 96.946 293.472 97.882 293.232V293.088C96.778 292.56 95.914 291.804 95.29 290.82C94.69 289.836 94.39 288.696 94.39 287.4C94.39 286.464 94.558 285.6 94.894 284.808C95.23 284.016 95.698 283.344 96.298 282.792C96.922 282.216 97.654 281.772 98.494 281.46C99.358 281.148 100.318 280.992 101.374 280.992C102.694 280.992 103.87 281.232 104.902 281.712V281.388C104.902 280.668 105.07 280.08 105.406 279.624C105.742 279.144 106.294 278.904 107.062 278.904H109.834V281.424H106.306V282.612C106.978 283.188 107.494 283.884 107.854 284.7C108.238 285.492 108.43 286.392 108.43 287.4C108.43 288.336 108.262 289.2 107.926 289.992C107.59 290.784 107.11 291.468 106.486 292.044C105.886 292.596 105.154 293.028 104.29 293.34C103.426 293.652 102.466 293.808 101.41 293.808C100.81 293.808 100.21 293.748 99.61 293.628C98.986 293.796 98.422 294.048 97.918 294.384C97.414 294.696 97.162 295.14 97.162 295.716C97.162 296.268 97.426 296.64 97.954 296.832C98.482 297.024 99.166 297.12 100.006 297.12H103.966C106.27 297.12 107.938 297.564 108.97 298.452C110.026 299.316 110.554 300.516 110.554 302.052ZM107.854 302.268C107.854 301.524 107.566 300.924 106.99 300.468C106.438 300.036 105.442 299.82 104.002 299.82H97.81C96.658 300.348 96.082 301.188 96.082 302.34C96.082 303.156 96.382 303.852 96.982 304.428C97.606 305.004 98.65 305.292 100.114 305.292H102.778C104.386 305.292 105.634 305.04 106.522 304.536C107.41 304.032 107.854 303.276 107.854 302.268ZM101.41 291.504C102.634 291.504 103.606 291.216 104.326 290.64C105.046 290.04 105.406 289.128 105.406 287.904V286.896C105.406 285.672 105.046 284.772 104.326 284.196C103.606 283.596 102.634 283.296 101.41 283.296C100.186 283.296 99.214 283.596 98.494 284.196C97.774 284.772 97.414 285.672 97.414 286.896V287.904C97.414 289.128 97.774 290.04 98.494 290.64C99.214 291.216 100.186 291.504 101.41 291.504ZM120.687 300.432C119.415 300.432 118.263 300.204 117.231 299.748C116.223 299.292 115.347 298.644 114.603 297.804C113.883 296.94 113.319 295.92 112.911 294.744C112.527 293.544 112.335 292.2 112.335 290.712C112.335 289.248 112.527 287.916 112.911 286.716C113.319 285.516 113.883 284.496 114.603 283.656C115.347 282.792 116.223 282.132 117.231 281.676C118.263 281.22 119.415 280.992 120.687 280.992C121.935 280.992 123.051 281.22 124.035 281.676C125.019 282.132 125.859 282.768 126.555 283.584C127.251 284.376 127.779 285.324 128.139 286.428C128.523 287.532 128.715 288.744 128.715 290.064V291.432H115.359V292.296C115.359 293.088 115.479 293.832 115.719 294.528C115.983 295.2 116.343 295.788 116.799 296.292C117.279 296.796 117.855 297.192 118.527 297.48C119.223 297.768 120.003 297.912 120.867 297.912C122.043 297.912 123.063 297.636 123.927 297.084C124.815 296.532 125.499 295.74 125.979 294.708L128.031 296.184C127.431 297.456 126.495 298.488 125.223 299.28C123.951 300.048 122.439 300.432 120.687 300.432ZM120.687 283.404C119.895 283.404 119.175 283.548 118.527 283.836C117.879 284.1 117.315 284.484 116.835 284.988C116.379 285.492 116.019 286.092 115.755 286.788C115.491 287.46 115.359 288.204 115.359 289.02V289.272H125.619V288.876C125.619 287.22 125.163 285.9 124.251 284.916C123.363 283.908 122.175 283.404 120.687 283.404ZM133.46 300V281.424H136.34V284.844H136.52C136.856 283.956 137.456 283.164 138.32 282.468C139.184 281.772 140.372 281.424 141.884 281.424H143V284.304H141.308C139.748 284.304 138.524 284.604 137.636 285.204C136.772 285.78 136.34 286.512 136.34 287.4V300H133.46ZM152.259 300.432C150.531 300.432 149.079 300.108 147.903 299.46C146.751 298.788 145.755 297.9 144.915 296.796L146.967 295.14C147.687 296.052 148.491 296.76 149.379 297.264C150.267 297.744 151.299 297.984 152.475 297.984C153.699 297.984 154.647 297.72 155.319 297.192C156.015 296.664 156.363 295.92 156.363 294.96C156.363 294.24 156.123 293.628 155.643 293.124C155.187 292.596 154.347 292.236 153.123 292.044L151.647 291.828C150.783 291.708 149.991 291.528 149.271 291.288C148.551 291.024 147.915 290.688 147.363 290.28C146.835 289.848 146.415 289.32 146.103 288.696C145.815 288.072 145.671 287.328 145.671 286.464C145.671 285.552 145.839 284.76 146.175 284.088C146.511 283.392 146.967 282.816 147.543 282.36C148.143 281.904 148.851 281.568 149.667 281.352C150.483 281.112 151.359 280.992 152.295 280.992C153.807 280.992 155.067 281.256 156.075 281.784C157.107 282.312 158.007 283.044 158.775 283.98L156.867 285.708C156.459 285.132 155.859 284.616 155.067 284.16C154.275 283.68 153.279 283.44 152.079 283.44C150.879 283.44 149.967 283.704 149.343 284.232C148.743 284.736 148.443 285.432 148.443 286.32C148.443 287.232 148.743 287.892 149.343 288.3C149.967 288.708 150.855 289.008 152.007 289.2L153.447 289.416C155.511 289.728 156.975 290.328 157.839 291.216C158.703 292.08 159.135 293.22 159.135 294.636C159.135 296.436 158.523 297.852 157.299 298.884C156.075 299.916 154.395 300.432 152.259 300.432ZM186.23 300C185.15 300 184.37 299.712 183.89 299.136C183.434 298.56 183.146 297.84 183.026 296.976H182.846C182.438 298.128 181.766 298.992 180.83 299.568C179.894 300.144 178.778 300.432 177.482 300.432C175.514 300.432 173.978 299.928 172.874 298.92C171.794 297.912 171.254 296.544 171.254 294.816C171.254 293.064 171.89 291.72 173.162 290.784C174.458 289.848 176.462 289.38 179.174 289.38H182.846V287.544C182.846 286.224 182.486 285.216 181.766 284.52C181.046 283.824 179.942 283.476 178.454 283.476C177.326 283.476 176.378 283.728 175.61 284.232C174.866 284.736 174.242 285.408 173.738 286.248L172.01 284.628C172.514 283.62 173.318 282.768 174.422 282.072C175.526 281.352 176.918 280.992 178.598 280.992C180.854 280.992 182.606 281.544 183.854 282.648C185.102 283.752 185.726 285.288 185.726 287.256V297.48H187.85V300H186.23ZM177.95 297.984C178.67 297.984 179.33 297.9 179.93 297.732C180.53 297.564 181.046 297.324 181.478 297.012C181.91 296.7 182.246 296.34 182.486 295.932C182.726 295.524 182.846 295.08 182.846 294.6V291.54H179.03C177.374 291.54 176.162 291.78 175.394 292.26C174.65 292.74 174.278 293.436 174.278 294.348V295.104C174.278 296.016 174.602 296.724 175.25 297.228C175.922 297.732 176.822 297.984 177.95 297.984ZM203.84 296.976H203.696C202.568 299.28 200.756 300.432 198.26 300.432C197.108 300.432 196.064 300.204 195.128 299.748C194.192 299.292 193.388 298.644 192.716 297.804C192.068 296.964 191.564 295.944 191.204 294.744C190.868 293.544 190.7 292.2 190.7 290.712C190.7 289.224 190.868 287.88 191.204 286.68C191.564 285.48 192.068 284.46 192.716 283.62C193.388 282.78 194.192 282.132 195.128 281.676C196.064 281.22 197.108 280.992 198.26 280.992C199.556 280.992 200.66 281.28 201.572 281.856C202.508 282.408 203.216 283.272 203.696 284.448H203.84V273.36H206.72V300H203.84V296.976ZM199.052 297.84C199.7 297.84 200.312 297.756 200.888 297.588C201.488 297.42 202.004 297.18 202.436 296.868C202.868 296.532 203.204 296.136 203.444 295.68C203.708 295.2 203.84 294.66 203.84 294.06V287.148C203.84 286.644 203.708 286.176 203.444 285.744C203.204 285.288 202.868 284.904 202.436 284.592C202.004 284.28 201.488 284.04 200.888 283.872C200.312 283.68 199.7 283.584 199.052 283.584C197.42 283.584 196.136 284.1 195.2 285.132C194.264 286.14 193.796 287.472 193.796 289.128V292.296C193.796 293.952 194.264 295.296 195.2 296.328C196.136 297.336 197.42 297.84 199.052 297.84ZM224.723 296.976H224.579C223.451 299.28 221.639 300.432 219.143 300.432C217.991 300.432 216.947 300.204 216.011 299.748C215.075 299.292 214.271 298.644 213.599 297.804C212.951 296.964 212.447 295.944 212.087 294.744C211.751 293.544 211.583 292.2 211.583 290.712C211.583 289.224 211.751 287.88 212.087 286.68C212.447 285.48 212.951 284.46 213.599 283.62C214.271 282.78 215.075 282.132 216.011 281.676C216.947 281.22 217.991 280.992 219.143 280.992C220.439 280.992 221.543 281.28 222.455 281.856C223.391 282.408 224.099 283.272 224.579 284.448H224.723V273.36H227.603V300H224.723V296.976ZM219.935 297.84C220.583 297.84 221.195 297.756 221.771 297.588C222.371 297.42 222.887 297.18 223.319 296.868C223.751 296.532 224.087 296.136 224.327 295.68C224.591 295.2 224.723 294.66 224.723 294.06V287.148C224.723 286.644 224.591 286.176 224.327 285.744C224.087 285.288 223.751 284.904 223.319 284.592C222.887 284.28 222.371 284.04 221.771 283.872C221.195 283.68 220.583 283.584 219.935 283.584C218.303 283.584 217.019 284.1 216.083 285.132C215.147 286.14 214.679 287.472 214.679 289.128V292.296C214.679 293.952 215.147 295.296 216.083 296.328C217.019 297.336 218.303 297.84 219.935 297.84ZM248.246 300L239.894 274.872H243.134L247.274 287.544L250.046 296.976H250.226L253.07 287.544L257.246 274.872H260.378L251.918 300H248.246ZM265.611 277.068C264.987 277.068 264.531 276.924 264.243 276.636C263.979 276.324 263.847 275.928 263.847 275.448V274.98C263.847 274.5 263.979 274.116 264.243 273.828C264.531 273.516 264.987 273.36 265.611 273.36C266.235 273.36 266.679 273.516 266.943 273.828C267.231 274.116 267.375 274.5 267.375 274.98V275.448C267.375 275.928 267.231 276.324 266.943 276.636C266.679 276.924 266.235 277.068 265.611 277.068ZM264.171 281.424H267.051V300H264.171V281.424ZM280.155 300.432C278.883 300.432 277.731 300.204 276.699 299.748C275.691 299.292 274.815 298.644 274.071 297.804C273.351 296.94 272.787 295.92 272.379 294.744C271.995 293.544 271.803 292.2 271.803 290.712C271.803 289.248 271.995 287.916 272.379 286.716C272.787 285.516 273.351 284.496 274.071 283.656C274.815 282.792 275.691 282.132 276.699 281.676C277.731 281.22 278.883 280.992 280.155 280.992C281.403 280.992 282.519 281.22 283.503 281.676C284.487 282.132 285.327 282.768 286.023 283.584C286.719 284.376 287.247 285.324 287.607 286.428C287.991 287.532 288.183 288.744 288.183 290.064V291.432H274.827V292.296C274.827 293.088 274.947 293.832 275.187 294.528C275.451 295.2 275.811 295.788 276.267 296.292C276.747 296.796 277.323 297.192 277.995 297.48C278.691 297.768 279.471 297.912 280.335 297.912C281.511 297.912 282.531 297.636 283.395 297.084C284.283 296.532 284.967 295.74 285.447 294.708L287.499 296.184C286.899 297.456 285.963 298.488 284.691 299.28C283.419 300.048 281.907 300.432 280.155 300.432ZM280.155 283.404C279.363 283.404 278.643 283.548 277.995 283.836C277.347 284.1 276.783 284.484 276.303 284.988C275.847 285.492 275.487 286.092 275.223 286.788C274.959 287.46 274.827 288.204 274.827 289.02V289.272H285.087V288.876C285.087 287.22 284.631 285.9 283.719 284.916C282.831 283.908 281.643 283.404 280.155 283.404ZM290.809 281.424H293.617L295.597 289.452L297.577 297.588H297.649L299.917 289.452L302.257 281.424H304.813L307.225 289.452L309.529 297.588H309.601L311.509 289.452L313.525 281.424H316.225L311.293 300H307.729L305.137 291.072L303.517 285.42H303.445L301.861 291.072L299.269 300H295.777L290.809 281.424ZM327.194 300.432C325.922 300.432 324.77 300.204 323.738 299.748C322.73 299.292 321.854 298.644 321.11 297.804C320.39 296.94 319.826 295.92 319.418 294.744C319.034 293.544 318.842 292.2 318.842 290.712C318.842 289.248 319.034 287.916 319.418 286.716C319.826 285.516 320.39 284.496 321.11 283.656C321.854 282.792 322.73 282.132 323.738 281.676C324.77 281.22 325.922 280.992 327.194 280.992C328.442 280.992 329.558 281.22 330.542 281.676C331.526 282.132 332.366 282.768 333.062 283.584C333.758 284.376 334.286 285.324 334.646 286.428C335.03 287.532 335.222 288.744 335.222 290.064V291.432H321.866V292.296C321.866 293.088 321.986 293.832 322.226 294.528C322.49 295.2 322.85 295.788 323.306 296.292C323.786 296.796 324.362 297.192 325.034 297.48C325.73 297.768 326.51 297.912 327.374 297.912C328.55 297.912 329.57 297.636 330.434 297.084C331.322 296.532 332.006 295.74 332.486 294.708L334.538 296.184C333.938 297.456 333.002 298.488 331.73 299.28C330.458 300.048 328.946 300.432 327.194 300.432ZM327.194 283.404C326.402 283.404 325.682 283.548 325.034 283.836C324.386 284.1 323.822 284.484 323.342 284.988C322.886 285.492 322.526 286.092 322.262 286.788C321.998 287.46 321.866 288.204 321.866 289.02V289.272H332.126V288.876C332.126 287.22 331.67 285.9 330.758 284.916C329.87 283.908 328.682 283.404 327.194 283.404ZM339.968 300V281.424H342.848V284.844H343.028C343.364 283.956 343.964 283.164 344.828 282.468C345.692 281.772 346.88 281.424 348.392 281.424H349.508V284.304H347.816C346.256 284.304 345.032 284.604 344.144 285.204C343.28 285.78 342.848 286.512 342.848 287.4V300H339.968ZM358.767 300.432C357.039 300.432 355.587 300.108 354.411 299.46C353.259 298.788 352.263 297.9 351.423 296.796L353.475 295.14C354.195 296.052 354.999 296.76 355.887 297.264C356.775 297.744 357.807 297.984 358.983 297.984C360.207 297.984 361.155 297.72 361.827 297.192C362.523 296.664 362.871 295.92 362.871 294.96C362.871 294.24 362.631 293.628 362.151 293.124C361.695 292.596 360.855 292.236 359.631 292.044L358.155 291.828C357.291 291.708 356.499 291.528 355.779 291.288C355.059 291.024 354.423 290.688 353.871 290.28C353.343 289.848 352.923 289.32 352.611 288.696C352.323 288.072 352.179 287.328 352.179 286.464C352.179 285.552 352.347 284.76 352.683 284.088C353.019 283.392 353.475 282.816 354.051 282.36C354.651 281.904 355.359 281.568 356.175 281.352C356.991 281.112 357.867 280.992 358.803 280.992C360.315 280.992 361.575 281.256 362.583 281.784C363.615 282.312 364.515 283.044 365.283 283.98L363.375 285.708C362.967 285.132 362.367 284.616 361.575 284.16C360.783 283.68 359.787 283.44 358.587 283.44C357.387 283.44 356.475 283.704 355.851 284.232C355.251 284.736 354.951 285.432 354.951 286.32C354.951 287.232 355.251 287.892 355.851 288.3C356.475 288.708 357.363 289.008 358.515 289.2L359.955 289.416C362.019 289.728 363.483 290.328 364.347 291.216C365.211 292.08 365.643 293.22 365.643 294.636C365.643 296.436 365.031 297.852 363.807 298.884C362.583 299.916 360.903 300.432 358.767 300.432ZM372.39 295.788C373.158 295.788 373.71 295.992 374.046 296.4C374.406 296.784 374.586 297.288 374.586 297.912V298.416C374.586 299.4 374.298 300.48 373.722 301.656C373.146 302.856 372.342 303.9 371.31 304.788H368.898C369.618 304.02 370.194 303.288 370.626 302.592C371.082 301.92 371.406 301.164 371.598 300.324C371.118 300.204 370.758 299.976 370.518 299.64C370.302 299.304 370.194 298.896 370.194 298.416V297.912C370.194 297.288 370.362 296.784 370.698 296.4C371.058 295.992 371.622 295.788 372.39 295.788ZM37.2202 346C36.1402 346 35.3602 345.712 34.8802 345.136C34.4242 344.56 34.1362 343.84 34.0162 342.976H33.8362C33.4282 344.128 32.7562 344.992 31.8202 345.568C30.8842 346.144 29.7682 346.432 28.4722 346.432C26.5042 346.432 24.9682 345.928 23.8642 344.92C22.7842 343.912 22.2442 342.544 22.2442 340.816C22.2442 339.064 22.8802 337.72 24.1522 336.784C25.4482 335.848 27.4522 335.38 30.1642 335.38H33.8362V333.544C33.8362 332.224 33.4762 331.216 32.7562 330.52C32.0362 329.824 30.9322 329.476 29.4442 329.476C28.3162 329.476 27.3682 329.728 26.6002 330.232C25.8562 330.736 25.2322 331.408 24.7282 332.248L23.0002 330.628C23.5042 329.62 24.3082 328.768 25.4122 328.072C26.5162 327.352 27.9082 326.992 29.5882 326.992C31.8442 326.992 33.5962 327.544 34.8442 328.648C36.0922 329.752 36.7162 331.288 36.7162 333.256V343.48H38.8402V346H37.2202ZM28.9402 343.984C29.6602 343.984 30.3202 343.9 30.9202 343.732C31.5202 343.564 32.0362 343.324 32.4682 343.012C32.9002 342.7 33.2362 342.34 33.4762 341.932C33.7162 341.524 33.8362 341.08 33.8362 340.6V337.54H30.0202C28.3642 337.54 27.1522 337.78 26.3842 338.26C25.6402 338.74 25.2682 339.436 25.2682 340.348V341.104C25.2682 342.016 25.5922 342.724 26.2402 343.228C26.9122 343.732 27.8122 343.984 28.9402 343.984ZM42.9506 346V327.424H45.8306V330.448H45.9746C46.4306 329.392 47.0666 328.552 47.8826 327.928C48.7226 327.304 49.8386 326.992 51.2306 326.992C53.1506 326.992 54.6626 327.616 55.7666 328.864C56.8946 330.088 57.4586 331.828 57.4586 334.084V346H54.5786V334.588C54.5786 331.252 53.1746 329.584 50.3666 329.584C49.7906 329.584 49.2266 329.656 48.6746 329.8C48.1466 329.944 47.6666 330.16 47.2346 330.448C46.8026 330.736 46.4546 331.108 46.1906 331.564C45.9506 331.996 45.8306 332.512 45.8306 333.112V346H42.9506ZM75.2916 342.976H75.1476C74.0196 345.28 72.2076 346.432 69.7116 346.432C68.5596 346.432 67.5156 346.204 66.5796 345.748C65.6436 345.292 64.8396 344.644 64.1676 343.804C63.5196 342.964 63.0156 341.944 62.6556 340.744C62.3196 339.544 62.1516 338.2 62.1516 336.712C62.1516 335.224 62.3196 333.88 62.6556 332.68C63.0156 331.48 63.5196 330.46 64.1676 329.62C64.8396 328.78 65.6436 328.132 66.5796 327.676C67.5156 327.22 68.5596 326.992 69.7116 326.992C71.0076 326.992 72.1116 327.28 73.0236 327.856C73.9596 328.408 74.6676 329.272 75.1476 330.448H75.2916V319.36H78.1716V346H75.2916V342.976ZM70.5036 343.84C71.1516 343.84 71.7636 343.756 72.3396 343.588C72.9396 343.42 73.4556 343.18 73.8876 342.868C74.3196 342.532 74.6556 342.136 74.8956 341.68C75.1596 341.2 75.2916 340.66 75.2916 340.06V333.148C75.2916 332.644 75.1596 332.176 74.8956 331.744C74.6556 331.288 74.3196 330.904 73.8876 330.592C73.4556 330.28 72.9396 330.04 72.3396 329.872C71.7636 329.68 71.1516 329.584 70.5036 329.584C68.8716 329.584 67.5876 330.1 66.6516 331.132C65.7156 332.14 65.2476 333.472 65.2476 335.128V338.296C65.2476 339.952 65.7156 341.296 66.6516 342.328C67.5876 343.336 68.8716 343.84 70.5036 343.84ZM95.9342 320.872V336.424C95.9342 338.824 96.3782 340.648 97.2662 341.896C98.1542 343.12 99.7142 343.732 101.946 343.732C104.178 343.732 105.738 343.12 106.626 341.896C107.514 340.648 107.958 338.824 107.958 336.424V320.872H110.982V335.704C110.982 337.528 110.814 339.112 110.478 340.456C110.166 341.8 109.65 342.916 108.93 343.804C108.21 344.692 107.262 345.352 106.086 345.784C104.934 346.216 103.518 346.432 101.838 346.432C100.158 346.432 98.7422 346.216 97.5902 345.784C96.4622 345.352 95.5502 344.692 94.8542 343.804C94.1582 342.916 93.6542 341.8 93.3422 340.456C93.0542 339.112 92.9102 337.528 92.9102 335.704V320.872H95.9342ZM122.781 346.432C121.053 346.432 119.601 346.108 118.425 345.46C117.273 344.788 116.277 343.9 115.437 342.796L117.489 341.14C118.209 342.052 119.013 342.76 119.901 343.264C120.789 343.744 121.821 343.984 122.997 343.984C124.221 343.984 125.169 343.72 125.841 343.192C126.537 342.664 126.885 341.92 126.885 340.96C126.885 340.24 126.645 339.628 126.165 339.124C125.709 338.596 124.869 338.236 123.645 338.044L122.169 337.828C121.305 337.708 120.513 337.528 119.793 337.288C119.073 337.024 118.437 336.688 117.885 336.28C117.357 335.848 116.937 335.32 116.625 334.696C116.337 334.072 116.193 333.328 116.193 332.464C116.193 331.552 116.361 330.76 116.697 330.088C117.033 329.392 117.489 328.816 118.065 328.36C118.665 327.904 119.373 327.568 120.189 327.352C121.005 327.112 121.881 326.992 122.817 326.992C124.329 326.992 125.589 327.256 126.597 327.784C127.629 328.312 128.529 329.044 129.297 329.98L127.389 331.708C126.981 331.132 126.381 330.616 125.589 330.16C124.797 329.68 123.801 329.44 122.601 329.44C121.401 329.44 120.489 329.704 119.865 330.232C119.265 330.736 118.965 331.432 118.965 332.32C118.965 333.232 119.265 333.892 119.865 334.3C120.489 334.708 121.377 335.008 122.529 335.2L123.969 335.416C126.033 335.728 127.497 336.328 128.361 337.216C129.225 338.08 129.657 339.22 129.657 340.636C129.657 342.436 129.045 343.852 127.821 344.884C126.597 345.916 124.917 346.432 122.781 346.432ZM141.728 346.432C140.456 346.432 139.304 346.204 138.272 345.748C137.264 345.292 136.388 344.644 135.644 343.804C134.924 342.94 134.36 341.92 133.952 340.744C133.568 339.544 133.376 338.2 133.376 336.712C133.376 335.248 133.568 333.916 133.952 332.716C134.36 331.516 134.924 330.496 135.644 329.656C136.388 328.792 137.264 328.132 138.272 327.676C139.304 327.22 140.456 326.992 141.728 326.992C142.976 326.992 144.092 327.22 145.076 327.676C146.06 328.132 146.9 328.768 147.596 329.584C148.292 330.376 148.82 331.324 149.18 332.428C149.564 333.532 149.756 334.744 149.756 336.064V337.432H136.4V338.296C136.4 339.088 136.52 339.832 136.76 340.528C137.024 341.2 137.384 341.788 137.84 342.292C138.32 342.796 138.896 343.192 139.568 343.48C140.264 343.768 141.044 343.912 141.908 343.912C143.084 343.912 144.104 343.636 144.968 343.084C145.856 342.532 146.54 341.74 147.02 340.708L149.072 342.184C148.472 343.456 147.536 344.488 146.264 345.28C144.992 346.048 143.48 346.432 141.728 346.432ZM141.728 329.404C140.936 329.404 140.216 329.548 139.568 329.836C138.92 330.1 138.356 330.484 137.876 330.988C137.42 331.492 137.06 332.092 136.796 332.788C136.532 333.46 136.4 334.204 136.4 335.02V335.272H146.66V334.876C146.66 333.22 146.204 331.9 145.292 330.916C144.404 329.908 143.216 329.404 141.728 329.404ZM154.501 346V327.424H157.381V330.844H157.561C157.897 329.956 158.497 329.164 159.361 328.468C160.225 327.772 161.413 327.424 162.925 327.424H164.041V330.304H162.349C160.789 330.304 159.565 330.604 158.677 331.204C157.813 331.78 157.381 332.512 157.381 333.4V346H154.501ZM173.3 346.432C171.572 346.432 170.12 346.108 168.944 345.46C167.792 344.788 166.796 343.9 165.956 342.796L168.008 341.14C168.728 342.052 169.532 342.76 170.42 343.264C171.308 343.744 172.34 343.984 173.516 343.984C174.74 343.984 175.688 343.72 176.36 343.192C177.056 342.664 177.404 341.92 177.404 340.96C177.404 340.24 177.164 339.628 176.684 339.124C176.228 338.596 175.388 338.236 174.164 338.044L172.688 337.828C171.824 337.708 171.032 337.528 170.312 337.288C169.592 337.024 168.956 336.688 168.404 336.28C167.876 335.848 167.456 335.32 167.144 334.696C166.856 334.072 166.712 333.328 166.712 332.464C166.712 331.552 166.88 330.76 167.216 330.088C167.552 329.392 168.008 328.816 168.584 328.36C169.184 327.904 169.892 327.568 170.708 327.352C171.524 327.112 172.4 326.992 173.336 326.992C174.848 326.992 176.108 327.256 177.116 327.784C178.148 328.312 179.048 329.044 179.816 329.98L177.908 331.708C177.5 331.132 176.9 330.616 176.108 330.16C175.316 329.68 174.32 329.44 173.12 329.44C171.92 329.44 171.008 329.704 170.384 330.232C169.784 330.736 169.484 331.432 169.484 332.32C169.484 333.232 169.784 333.892 170.384 334.3C171.008 334.708 171.896 335.008 173.048 335.2L174.488 335.416C176.552 335.728 178.016 336.328 178.88 337.216C179.744 338.08 180.176 339.22 180.176 340.636C180.176 342.436 179.564 343.852 178.34 344.884C177.116 345.916 175.436 346.432 173.3 346.432ZM197.875 346C196.867 346 196.099 345.724 195.571 345.172C195.067 344.596 194.815 343.852 194.815 342.94V329.944H191.755V327.424H193.483C194.107 327.424 194.527 327.304 194.743 327.064C194.983 326.8 195.103 326.356 195.103 325.732V322.276H197.695V327.424H201.763V329.944H197.695V343.48H201.475V346H197.875ZM213.271 346.432C212.023 346.432 210.883 346.204 209.851 345.748C208.819 345.292 207.931 344.644 207.187 343.804C206.467 342.94 205.903 341.92 205.495 340.744C205.087 339.544 204.883 338.2 204.883 336.712C204.883 335.248 205.087 333.916 205.495 332.716C205.903 331.516 206.467 330.496 207.187 329.656C207.931 328.792 208.819 328.132 209.851 327.676C210.883 327.22 212.023 326.992 213.271 326.992C214.519 326.992 215.647 327.22 216.655 327.676C217.687 328.132 218.575 328.792 219.319 329.656C220.063 330.496 220.639 331.516 221.047 332.716C221.455 333.916 221.659 335.248 221.659 336.712C221.659 338.2 221.455 339.544 221.047 340.744C220.639 341.92 220.063 342.94 219.319 343.804C218.575 344.644 217.687 345.292 216.655 345.748C215.647 346.204 214.519 346.432 213.271 346.432ZM213.271 343.876C214.831 343.876 216.103 343.396 217.087 342.436C218.071 341.476 218.563 340.012 218.563 338.044V335.38C218.563 333.412 218.071 331.948 217.087 330.988C216.103 330.028 214.831 329.548 213.271 329.548C211.711 329.548 210.439 330.028 209.455 330.988C208.471 331.948 207.979 333.412 207.979 335.38V338.044C207.979 340.012 208.471 341.476 209.455 342.436C210.439 343.396 211.711 343.876 213.271 343.876ZM240.916 346L232.564 320.872H235.804L239.944 333.544L242.716 342.976H242.896L245.74 333.544L249.916 320.872H253.048L244.588 346H240.916ZM258.281 323.068C257.657 323.068 257.201 322.924 256.913 322.636C256.649 322.324 256.517 321.928 256.517 321.448V320.98C256.517 320.5 256.649 320.116 256.913 319.828C257.201 319.516 257.657 319.36 258.281 319.36C258.905 319.36 259.349 319.516 259.613 319.828C259.901 320.116 260.045 320.5 260.045 320.98V321.448C260.045 321.928 259.901 322.324 259.613 322.636C259.349 322.924 258.905 323.068 258.281 323.068ZM256.841 327.424H259.721V346H256.841V327.424ZM272.825 346.432C271.553 346.432 270.401 346.204 269.369 345.748C268.361 345.292 267.485 344.644 266.741 343.804C266.021 342.94 265.457 341.92 265.049 340.744C264.665 339.544 264.473 338.2 264.473 336.712C264.473 335.248 264.665 333.916 265.049 332.716C265.457 331.516 266.021 330.496 266.741 329.656C267.485 328.792 268.361 328.132 269.369 327.676C270.401 327.22 271.553 326.992 272.825 326.992C274.073 326.992 275.189 327.22 276.173 327.676C277.157 328.132 277.997 328.768 278.693 329.584C279.389 330.376 279.917 331.324 280.277 332.428C280.661 333.532 280.853 334.744 280.853 336.064V337.432H267.497V338.296C267.497 339.088 267.617 339.832 267.857 340.528C268.121 341.2 268.481 341.788 268.937 342.292C269.417 342.796 269.993 343.192 270.665 343.48C271.361 343.768 272.141 343.912 273.005 343.912C274.181 343.912 275.201 343.636 276.065 343.084C276.953 342.532 277.637 341.74 278.117 340.708L280.169 342.184C279.569 343.456 278.633 344.488 277.361 345.28C276.089 346.048 274.577 346.432 272.825 346.432ZM272.825 329.404C272.033 329.404 271.313 329.548 270.665 329.836C270.017 330.1 269.453 330.484 268.973 330.988C268.517 331.492 268.157 332.092 267.893 332.788C267.629 333.46 267.497 334.204 267.497 335.02V335.272H277.757V334.876C277.757 333.22 277.301 331.9 276.389 330.916C275.501 329.908 274.313 329.404 272.825 329.404ZM283.479 327.424H286.287L288.267 335.452L290.247 343.588H290.319L292.587 335.452L294.927 327.424H297.483L299.895 335.452L302.199 343.588H302.271L304.179 335.452L306.195 327.424H308.895L303.963 346H300.399L297.807 337.072L296.187 331.42H296.115L294.531 337.072L291.939 346H288.447L283.479 327.424ZM319.864 346.432C318.592 346.432 317.44 346.204 316.408 345.748C315.4 345.292 314.524 344.644 313.78 343.804C313.06 342.94 312.496 341.92 312.088 340.744C311.704 339.544 311.512 338.2 311.512 336.712C311.512 335.248 311.704 333.916 312.088 332.716C312.496 331.516 313.06 330.496 313.78 329.656C314.524 328.792 315.4 328.132 316.408 327.676C317.44 327.22 318.592 326.992 319.864 326.992C321.112 326.992 322.228 327.22 323.212 327.676C324.196 328.132 325.036 328.768 325.732 329.584C326.428 330.376 326.956 331.324 327.316 332.428C327.7 333.532 327.892 334.744 327.892 336.064V337.432H314.536V338.296C314.536 339.088 314.656 339.832 314.896 340.528C315.16 341.2 315.52 341.788 315.976 342.292C316.456 342.796 317.032 343.192 317.704 343.48C318.4 343.768 319.18 343.912 320.044 343.912C321.22 343.912 322.24 343.636 323.104 343.084C323.992 342.532 324.676 341.74 325.156 340.708L327.208 342.184C326.608 343.456 325.672 344.488 324.4 345.28C323.128 346.048 321.616 346.432 319.864 346.432ZM319.864 329.404C319.072 329.404 318.352 329.548 317.704 329.836C317.056 330.1 316.492 330.484 316.012 330.988C315.556 331.492 315.196 332.092 314.932 332.788C314.668 333.46 314.536 334.204 314.536 335.02V335.272H324.796V334.876C324.796 333.22 324.34 331.9 323.428 330.916C322.54 329.908 321.352 329.404 319.864 329.404ZM332.638 346V327.424H335.518V330.844H335.698C336.034 329.956 336.634 329.164 337.498 328.468C338.362 327.772 339.55 327.424 341.062 327.424H342.178V330.304H340.486C338.926 330.304 337.702 330.604 336.814 331.204C335.95 331.78 335.518 332.512 335.518 333.4V346H332.638ZM351.437 346.432C349.709 346.432 348.257 346.108 347.081 345.46C345.929 344.788 344.933 343.9 344.093 342.796L346.145 341.14C346.865 342.052 347.669 342.76 348.557 343.264C349.445 343.744 350.477 343.984 351.653 343.984C352.877 343.984 353.825 343.72 354.497 343.192C355.193 342.664 355.541 341.92 355.541 340.96C355.541 340.24 355.301 339.628 354.821 339.124C354.365 338.596 353.525 338.236 352.301 338.044L350.825 337.828C349.961 337.708 349.169 337.528 348.449 337.288C347.729 337.024 347.093 336.688 346.541 336.28C346.013 335.848 345.593 335.32 345.281 334.696C344.993 334.072 344.849 333.328 344.849 332.464C344.849 331.552 345.017 330.76 345.353 330.088C345.689 329.392 346.145 328.816 346.721 328.36C347.321 327.904 348.029 327.568 348.845 327.352C349.661 327.112 350.537 326.992 351.473 326.992C352.985 326.992 354.245 327.256 355.253 327.784C356.285 328.312 357.185 329.044 357.953 329.98L356.045 331.708C355.637 331.132 355.037 330.616 354.245 330.16C353.453 329.68 352.457 329.44 351.257 329.44C350.057 329.44 349.145 329.704 348.521 330.232C347.921 330.736 347.621 331.432 347.621 332.32C347.621 333.232 347.921 333.892 348.521 334.3C349.145 334.708 350.033 335.008 351.185 335.2L352.625 335.416C354.689 335.728 356.153 336.328 357.017 337.216C357.881 338.08 358.313 339.22 358.313 340.636C358.313 342.436 357.701 343.852 356.477 344.884C355.253 345.916 353.573 346.432 351.437 346.432Z" fill="#7E7E7E"/>
<line x1="499.883" y1="174.673" x2="484.883" y2="216.673" stroke="#BDBDBD" stroke-width="4"/>
<line x1="548.668" y1="218.221" x2="532.565" y2="173.124" stroke="#BDBDBD" stroke-width="4"/>
</svg>
