<svg width="619" height="226" viewBox="0 0 619 226" fill="none" xmlns="http://www.w3.org/2000/svg">
<g clip-path="url(#clip0)">
<path d="M534.347 113.547C527.459 120.429 518.11 124.853 507.778 124.853C497.446 124.853 488.097 120.429 481.209 113.547C468.909 122.395 461.036 136.158 461.036 152.379C461.036 155.328 463.004 157.295 465.957 157.295H550.091C553.044 157.295 555.012 155.328 555.012 152.379C555.012 136.158 546.647 122.395 534.347 113.547Z" fill="#00C8DD"/>
<path d="M507.778 115.513C522.538 115.513 534.347 103.716 534.347 88.9699C534.347 74.2235 522.538 62.4264 507.778 62.4264C493.017 62.4264 481.209 74.2235 481.209 88.9699C481.209 103.716 493.017 115.513 507.778 115.513Z" fill="#00C8DD"/>
<path d="M613.562 0H540.251C537.299 0 535.331 1.96618 535.331 4.91546V61.4433C535.331 64.3925 537.299 66.3587 540.251 66.3587H550.091V78.1558C550.091 80.122 551.075 81.5966 552.551 82.5797C554.027 83.5628 555.996 83.5628 557.472 82.5797L582.072 66.8503H613.562C616.514 66.8503 618.482 64.8841 618.482 61.9348V4.91546C618.482 1.96618 616.514 0 613.562 0ZM563.376 48.1715H553.535V32.442H563.376V48.1715ZM582.072 48.1715H572.232V25.0689H582.072V48.1715ZM600.277 48.1715H590.437V17.2041H600.277V48.1715Z" fill="#00C8DD"/>
</g>
<path d="M326.843 41.3423C323.084 55.1385 316.423 64.1392 304.156 64.0516C291.627 63.962 281.469 53.8843 281.469 41.3423C281.469 28.8003 291.627 18.6331 304.156 18.6331C316.686 18.6331 330.14 29.2423 326.843 41.3423V41.3423Z" fill="#FF0045"/>
<path d="M277.466 61.1217C269.863 63.9321 259.374 65.4727 258.764 82.0234C258.154 98.5738 265.7 125.136 262.315 152.572L305.387 152.261C299.295 118.523 305.975 115.468 306.045 99.8046C306.114 84.1412 300.062 70.8349 296.056 65.3863C292.051 59.9376 309.474 56.8062 293.93 48.6794C278.387 40.5527 283.522 58.8835 277.466 61.1217V61.1217Z" fill="#FF0045"/>
<path d="M281.706 71.9984C280.252 72.0076 278.771 72.3838 277.386 73.1655C272.952 75.6666 271.234 81.3384 273.535 85.8826L294.805 127.903C294.958 128.207 295.131 128.493 295.311 128.771C295.412 129.58 295.737 130.304 296.399 130.873C297.354 131.695 298.632 132.16 300.032 132.367C302.242 133.053 304.728 132.851 306.962 131.591C307.598 131.232 308.172 130.802 308.692 130.325C309.036 130.096 309.387 129.875 309.698 129.611C320.099 120.794 323.269 102.117 330.99 94.706C338.712 87.295 340.941 83.257 339.264 81.7563C337.641 80.3033 328.201 85.7308 326.203 88.0872L323.95 90.7444L324.252 89.2201C322.028 85.8877 331.213 80.3178 327.157 80.6197C323.443 80.896 319.046 85.0995 319.123 87.4613C319.255 91.4514 320.372 92.3247 316.812 99.165C314.268 103.827 309.938 108.885 306.285 112.66C295.405 103.931 295.378 88.3854 289.54 76.8533C287.958 73.7291 284.902 71.9767 281.706 71.9984V71.9984Z" fill="#FF0045"/>
<path d="M323.233 86.04L352.54 66.0945C353.745 65.2749 355.449 65.5292 356.362 66.6646C357.276 67.8 357.041 69.3738 355.837 70.1934L326.53 90.139C325.326 90.9585 323.621 90.7043 322.708 89.5688C321.795 88.4334 322.029 86.8596 323.233 86.04V86.04Z" fill="#FF0045"/>
<path d="M65.541 130.557L61.7024 123.894L83.9241 110.924V85.3749H91.6012V111.135L113.823 123.91L109.984 130.573L87.6007 117.701L65.541 130.557ZM165.295 148.73C160.08 144.524 154.427 140.894 148.435 137.9C148.347 137.858 148.273 137.791 148.221 137.708C148.17 137.624 148.143 137.528 148.143 137.43V131.724C148.951 130.361 149.5 128.861 149.763 127.298C150.395 127.298 151.221 126.374 152.095 123.229C153.31 118.933 152.095 118.365 150.929 118.365C151.133 117.79 151.29 117.199 151.399 116.598C153.245 105.477 147.787 105.088 147.787 105.088C147.002 103.794 145.883 102.735 144.548 102.024C142.5 100.84 140.128 100.34 137.778 100.598C136.862 100.644 135.957 100.819 135.089 101.116V101.116C134.034 101.482 133.036 101.995 132.125 102.64C131.009 103.353 129.986 104.202 129.08 105.169C127.491 106.765 126.371 108.767 125.841 110.957C125.411 112.818 125.411 114.753 125.841 116.615V116.615C125.95 117.215 126.107 117.806 126.31 118.382C125.225 118.284 123.93 118.917 125.144 123.245C126.035 126.374 126.861 127.266 127.477 127.314C127.74 128.892 128.289 130.408 129.096 131.789V137.382C129.097 137.48 129.07 137.576 129.018 137.659C128.967 137.742 128.893 137.809 128.805 137.852C122.812 140.845 117.159 144.476 111.944 148.681C111.298 149.219 110.778 149.893 110.422 150.655C110.067 151.418 109.884 152.249 109.887 153.091V161.197H167.352V153.091C167.348 152.258 167.162 151.435 166.807 150.682C166.451 149.929 165.936 149.262 165.295 148.73ZM65.7191 153.156C65.7222 152.314 65.5394 151.483 65.1838 150.72C64.8282 149.958 64.3086 149.284 63.6622 148.746C58.4426 144.534 52.7843 140.898 46.7854 137.9C46.6974 137.858 46.6234 137.791 46.5718 137.708C46.5202 137.624 46.4932 137.528 46.4939 137.43V131.724C47.3013 130.361 47.8504 128.861 48.1135 127.298C48.7452 127.298 49.5712 126.374 50.4458 123.229C51.6605 118.933 50.4458 118.365 49.2797 118.365C49.4835 117.79 49.6405 117.199 49.7494 116.598C51.5958 105.477 46.1375 105.088 46.1375 105.088C45.3529 103.794 44.2338 102.735 42.8982 102.024C40.8507 100.84 38.479 100.34 36.1281 100.598C35.2121 100.644 34.3071 100.819 33.4394 101.116V101.116C32.3848 101.482 31.387 101.995 30.4755 102.64C29.3591 103.353 28.3362 104.202 27.4305 105.169C25.8418 106.765 24.7213 108.767 24.1912 110.957C23.7615 112.818 23.7615 114.753 24.1912 116.615C24.2746 117.241 24.41 117.859 24.5961 118.463C23.511 118.365 22.2152 118.998 23.43 123.326C24.3208 126.455 25.1468 127.347 25.7623 127.395C26.0258 128.973 26.5746 130.489 27.3819 131.87V137.463C27.3826 137.561 27.3556 137.657 27.304 137.74C27.2524 137.823 27.1784 137.89 27.0904 137.933C21.0994 140.916 15.4466 144.536 10.2298 148.73C9.58128 149.269 9.06039 149.946 8.7047 150.711C8.349 151.477 8.16736 152.312 8.17285 153.156V161.261H65.7191V153.156ZM112.398 60.2955C112.286 59.2215 111.898 58.195 111.27 57.3167C110.643 56.4385 109.798 55.7387 108.818 55.2861C107.158 54.467 105.422 53.8101 103.635 53.3245C100.827 52.5776 98.0818 51.6128 95.4236 50.4389L95.1968 50.293C94.9286 50.1161 94.7083 49.8755 94.5556 49.5926C94.403 49.3097 94.3228 48.9933 94.3222 48.6718V46.1428V45.2998C94.3222 45.2998 101.886 45.5267 105.465 41.8629C105.465 41.8629 100.25 40.3877 101.19 30.8715C102.129 21.3552 100.023 13.0387 92.3786 13.7196C92.3786 13.7196 89.1393 9.73152 82.4826 12.2443C80.2151 13.1035 74.1414 15.2759 74.3843 28.4559C74.6272 41.636 69.7035 41.717 69.7035 41.717C69.7035 41.717 72.2787 45.4619 81.0411 45.3808V48.6232C81.0405 48.9447 80.9603 49.261 80.8077 49.5439C80.655 49.8269 80.4347 50.0675 80.1665 50.2443L79.9721 50.3578C77.3139 51.5318 74.5684 52.4966 71.7605 53.2435C70.0165 53.7526 68.3245 54.4257 66.7071 55.2537C65.7368 55.7128 64.9017 56.4154 64.2829 57.2932C63.6642 58.171 63.283 59.1941 63.1763 60.2631V71.0114H112.398V60.2955Z" fill="#00BB85"/>
<path d="M31.9622 194.877H31.7822L29.6582 199.089L23.6462 210.033L17.6342 199.089L15.5102 194.877H15.3302V216.045H12.3782V190.917H16.4102L23.6102 204.453H23.7902L31.0262 190.917H34.9142V216.045H31.9622V194.877ZM54.8051 216.045C53.7251 216.045 52.9451 215.757 52.4651 215.181C52.0091 214.605 51.7211 213.885 51.6011 213.021H51.4211C51.0131 214.173 50.3411 215.037 49.4051 215.613C48.4691 216.189 47.3531 216.477 46.0571 216.477C44.0891 216.477 42.5531 215.973 41.4491 214.965C40.3691 213.957 39.8291 212.589 39.8291 210.861C39.8291 209.109 40.4651 207.765 41.7371 206.829C43.0331 205.893 45.0371 205.425 47.7491 205.425H51.4211V203.589C51.4211 202.269 51.0611 201.261 50.3411 200.565C49.6211 199.869 48.5171 199.521 47.0291 199.521C45.9011 199.521 44.9531 199.773 44.1851 200.277C43.4411 200.781 42.8171 201.453 42.3131 202.293L40.5851 200.673C41.0891 199.665 41.8931 198.813 42.9971 198.117C44.1011 197.397 45.4931 197.037 47.1731 197.037C49.4291 197.037 51.1811 197.589 52.4291 198.693C53.6771 199.797 54.3011 201.333 54.3011 203.301V213.525H56.4251V216.045H54.8051ZM46.5251 214.029C47.2451 214.029 47.9051 213.945 48.5051 213.777C49.1051 213.609 49.6211 213.369 50.0531 213.057C50.4851 212.745 50.8211 212.385 51.0611 211.977C51.3011 211.569 51.4211 211.125 51.4211 210.645V207.585H47.6051C45.9491 207.585 44.7371 207.825 43.9691 208.305C43.2251 208.785 42.8531 209.481 42.8531 210.393V211.149C42.8531 212.061 43.1771 212.769 43.8251 213.273C44.4971 213.777 45.3971 214.029 46.5251 214.029ZM60.5355 216.045V197.469H63.4155V200.493H63.5595C64.0155 199.437 64.6515 198.597 65.4675 197.973C66.3075 197.349 67.4235 197.037 68.8155 197.037C70.7355 197.037 72.2475 197.661 73.3515 198.909C74.4795 200.133 75.0435 201.873 75.0435 204.129V216.045H72.1635V204.633C72.1635 201.297 70.7595 199.629 67.9515 199.629C67.3755 199.629 66.8115 199.701 66.2595 199.845C65.7315 199.989 65.2515 200.205 64.8195 200.493C64.3875 200.781 64.0395 201.153 63.7755 201.609C63.5355 202.041 63.4155 202.557 63.4155 203.157V216.045H60.5355ZM94.4965 216.045C93.4165 216.045 92.6365 215.757 92.1565 215.181C91.7005 214.605 91.4125 213.885 91.2925 213.021H91.1125C90.7045 214.173 90.0325 215.037 89.0965 215.613C88.1605 216.189 87.0445 216.477 85.7485 216.477C83.7805 216.477 82.2445 215.973 81.1405 214.965C80.0605 213.957 79.5205 212.589 79.5205 210.861C79.5205 209.109 80.1565 207.765 81.4285 206.829C82.7245 205.893 84.7285 205.425 87.4405 205.425H91.1125V203.589C91.1125 202.269 90.7525 201.261 90.0325 200.565C89.3125 199.869 88.2085 199.521 86.7205 199.521C85.5925 199.521 84.6445 199.773 83.8765 200.277C83.1325 200.781 82.5085 201.453 82.0045 202.293L80.2765 200.673C80.7805 199.665 81.5845 198.813 82.6885 198.117C83.7925 197.397 85.1845 197.037 86.8645 197.037C89.1205 197.037 90.8725 197.589 92.1205 198.693C93.3685 199.797 93.9925 201.333 93.9925 203.301V213.525H96.1165V216.045H94.4965ZM86.2165 214.029C86.9365 214.029 87.5965 213.945 88.1965 213.777C88.7965 213.609 89.3125 213.369 89.7445 213.057C90.1765 212.745 90.5125 212.385 90.7525 211.977C90.9925 211.569 91.1125 211.125 91.1125 210.645V207.585H87.2965C85.6405 207.585 84.4285 207.825 83.6605 208.305C82.9165 208.785 82.5445 209.481 82.5445 210.393V211.149C82.5445 212.061 82.8685 212.769 83.5165 213.273C84.1885 213.777 85.0885 214.029 86.2165 214.029ZM115.887 218.097C115.887 220.017 115.131 221.421 113.619 222.309C112.131 223.221 109.887 223.677 106.887 223.677C103.983 223.677 101.895 223.281 100.623 222.489C99.3509 221.697 98.7149 220.569 98.7149 219.105C98.7149 218.097 98.9789 217.305 99.5069 216.729C100.035 216.177 100.755 215.769 101.667 215.505V215.109C100.563 214.581 100.011 213.717 100.011 212.517C100.011 211.581 100.311 210.873 100.911 210.393C101.511 209.889 102.279 209.517 103.215 209.277V209.133C102.111 208.605 101.247 207.849 100.623 206.865C100.023 205.881 99.7229 204.741 99.7229 203.445C99.7229 202.509 99.8909 201.645 100.227 200.853C100.563 200.061 101.031 199.389 101.631 198.837C102.255 198.261 102.987 197.817 103.827 197.505C104.691 197.193 105.651 197.037 106.707 197.037C108.027 197.037 109.203 197.277 110.235 197.757V197.433C110.235 196.713 110.403 196.125 110.739 195.669C111.075 195.189 111.627 194.949 112.395 194.949H115.167V197.469H111.639V198.657C112.311 199.233 112.827 199.929 113.187 200.745C113.571 201.537 113.763 202.437 113.763 203.445C113.763 204.381 113.595 205.245 113.259 206.037C112.923 206.829 112.443 207.513 111.819 208.089C111.219 208.641 110.487 209.073 109.623 209.385C108.759 209.697 107.799 209.853 106.743 209.853C106.143 209.853 105.543 209.793 104.943 209.673C104.319 209.841 103.755 210.093 103.251 210.429C102.747 210.741 102.495 211.185 102.495 211.761C102.495 212.313 102.759 212.685 103.287 212.877C103.815 213.069 104.499 213.165 105.339 213.165H109.299C111.603 213.165 113.271 213.609 114.303 214.497C115.359 215.361 115.887 216.561 115.887 218.097ZM113.187 218.313C113.187 217.569 112.899 216.969 112.323 216.513C111.771 216.081 110.775 215.865 109.335 215.865H103.143C101.991 216.393 101.415 217.233 101.415 218.385C101.415 219.201 101.715 219.897 102.315 220.473C102.939 221.049 103.983 221.337 105.447 221.337H108.111C109.719 221.337 110.967 221.085 111.855 220.581C112.743 220.077 113.187 219.321 113.187 218.313ZM106.743 207.549C107.967 207.549 108.939 207.261 109.659 206.685C110.379 206.085 110.739 205.173 110.739 203.949V202.941C110.739 201.717 110.379 200.817 109.659 200.241C108.939 199.641 107.967 199.341 106.743 199.341C105.519 199.341 104.547 199.641 103.827 200.241C103.107 200.817 102.747 201.717 102.747 202.941V203.949C102.747 205.173 103.107 206.085 103.827 206.685C104.547 207.261 105.519 207.549 106.743 207.549ZM126.02 216.477C124.748 216.477 123.596 216.249 122.564 215.793C121.556 215.337 120.68 214.689 119.936 213.849C119.216 212.985 118.652 211.965 118.244 210.789C117.86 209.589 117.668 208.245 117.668 206.757C117.668 205.293 117.86 203.961 118.244 202.761C118.652 201.561 119.216 200.541 119.936 199.701C120.68 198.837 121.556 198.177 122.564 197.721C123.596 197.265 124.748 197.037 126.02 197.037C127.268 197.037 128.384 197.265 129.368 197.721C130.352 198.177 131.192 198.813 131.888 199.629C132.584 200.421 133.112 201.369 133.472 202.473C133.856 203.577 134.048 204.789 134.048 206.109V207.477H120.692V208.341C120.692 209.133 120.812 209.877 121.052 210.573C121.316 211.245 121.676 211.833 122.132 212.337C122.612 212.841 123.188 213.237 123.86 213.525C124.556 213.813 125.336 213.957 126.2 213.957C127.376 213.957 128.396 213.681 129.26 213.129C130.148 212.577 130.832 211.785 131.312 210.753L133.364 212.229C132.764 213.501 131.828 214.533 130.556 215.325C129.284 216.093 127.772 216.477 126.02 216.477ZM126.02 199.449C125.228 199.449 124.508 199.593 123.86 199.881C123.212 200.145 122.648 200.529 122.168 201.033C121.712 201.537 121.352 202.137 121.088 202.833C120.824 203.505 120.692 204.249 120.692 205.065V205.317H130.952V204.921C130.952 203.265 130.496 201.945 129.584 200.961C128.696 199.953 127.508 199.449 126.02 199.449ZM138.793 216.045V197.469H141.673V200.889H141.853C142.189 200.001 142.789 199.209 143.653 198.513C144.517 197.817 145.705 197.469 147.217 197.469H148.333V200.349H146.641C145.081 200.349 143.857 200.649 142.969 201.249C142.105 201.825 141.673 202.557 141.673 203.445V216.045H138.793ZM157.592 216.477C155.864 216.477 154.412 216.153 153.236 215.505C152.084 214.833 151.088 213.945 150.248 212.841L152.3 211.185C153.02 212.097 153.824 212.805 154.712 213.309C155.6 213.789 156.632 214.029 157.808 214.029C159.032 214.029 159.98 213.765 160.652 213.237C161.348 212.709 161.696 211.965 161.696 211.005C161.696 210.285 161.456 209.673 160.976 209.169C160.52 208.641 159.68 208.281 158.456 208.089L156.98 207.873C156.116 207.753 155.324 207.573 154.604 207.333C153.884 207.069 153.248 206.733 152.696 206.325C152.168 205.893 151.748 205.365 151.436 204.741C151.148 204.117 151.004 203.373 151.004 202.509C151.004 201.597 151.172 200.805 151.508 200.133C151.844 199.437 152.3 198.861 152.876 198.405C153.476 197.949 154.184 197.613 155 197.397C155.816 197.157 156.692 197.037 157.628 197.037C159.14 197.037 160.4 197.301 161.408 197.829C162.44 198.357 163.34 199.089 164.108 200.025L162.2 201.753C161.792 201.177 161.192 200.661 160.4 200.205C159.608 199.725 158.612 199.485 157.412 199.485C156.212 199.485 155.3 199.749 154.676 200.277C154.076 200.781 153.776 201.477 153.776 202.365C153.776 203.277 154.076 203.937 154.676 204.345C155.3 204.753 156.188 205.053 157.34 205.245L158.78 205.461C160.844 205.773 162.308 206.373 163.172 207.261C164.036 208.125 164.468 209.265 164.468 210.681C164.468 212.481 163.856 213.897 162.632 214.929C161.408 215.961 159.728 216.477 157.592 216.477Z" fill="#7E7E7E"/>
<path d="M454.45 216.045L446.098 190.917H449.338L453.478 203.589L456.25 213.021H456.43L459.274 203.589L463.45 190.917H466.582L458.122 216.045H454.45ZM471.815 193.113C471.191 193.113 470.735 192.969 470.447 192.681C470.183 192.369 470.051 191.973 470.051 191.493V191.025C470.051 190.545 470.183 190.161 470.447 189.873C470.735 189.561 471.191 189.405 471.815 189.405C472.439 189.405 472.883 189.561 473.147 189.873C473.435 190.161 473.579 190.545 473.579 191.025V191.493C473.579 191.973 473.435 192.369 473.147 192.681C472.883 192.969 472.439 193.113 471.815 193.113ZM470.375 197.469H473.255V216.045H470.375V197.469ZM486.359 216.477C485.087 216.477 483.935 216.249 482.903 215.793C481.895 215.337 481.019 214.689 480.275 213.849C479.555 212.985 478.991 211.965 478.583 210.789C478.199 209.589 478.007 208.245 478.007 206.757C478.007 205.293 478.199 203.961 478.583 202.761C478.991 201.561 479.555 200.541 480.275 199.701C481.019 198.837 481.895 198.177 482.903 197.721C483.935 197.265 485.087 197.037 486.359 197.037C487.607 197.037 488.723 197.265 489.707 197.721C490.691 198.177 491.531 198.813 492.227 199.629C492.923 200.421 493.451 201.369 493.811 202.473C494.195 203.577 494.387 204.789 494.387 206.109V207.477H481.031V208.341C481.031 209.133 481.151 209.877 481.391 210.573C481.655 211.245 482.015 211.833 482.471 212.337C482.951 212.841 483.527 213.237 484.199 213.525C484.895 213.813 485.675 213.957 486.539 213.957C487.715 213.957 488.735 213.681 489.599 213.129C490.487 212.577 491.171 211.785 491.651 210.753L493.703 212.229C493.103 213.501 492.167 214.533 490.895 215.325C489.623 216.093 488.111 216.477 486.359 216.477ZM486.359 199.449C485.567 199.449 484.847 199.593 484.199 199.881C483.551 200.145 482.987 200.529 482.507 201.033C482.051 201.537 481.691 202.137 481.427 202.833C481.163 203.505 481.031 204.249 481.031 205.065V205.317H491.291V204.921C491.291 203.265 490.835 201.945 489.923 200.961C489.035 199.953 487.847 199.449 486.359 199.449ZM497.013 197.469H499.821L501.801 205.497L503.781 213.633H503.853L506.121 205.497L508.461 197.469H511.017L513.429 205.497L515.733 213.633H515.805L517.713 205.497L519.729 197.469H522.429L517.497 216.045H513.933L511.341 207.117L509.721 201.465H509.649L508.065 207.117L505.473 216.045H501.981L497.013 197.469ZM533.398 216.477C532.126 216.477 530.974 216.249 529.942 215.793C528.934 215.337 528.058 214.689 527.314 213.849C526.594 212.985 526.03 211.965 525.622 210.789C525.238 209.589 525.046 208.245 525.046 206.757C525.046 205.293 525.238 203.961 525.622 202.761C526.03 201.561 526.594 200.541 527.314 199.701C528.058 198.837 528.934 198.177 529.942 197.721C530.974 197.265 532.126 197.037 533.398 197.037C534.646 197.037 535.762 197.265 536.746 197.721C537.73 198.177 538.57 198.813 539.266 199.629C539.962 200.421 540.49 201.369 540.85 202.473C541.234 203.577 541.426 204.789 541.426 206.109V207.477H528.07V208.341C528.07 209.133 528.19 209.877 528.43 210.573C528.694 211.245 529.054 211.833 529.51 212.337C529.99 212.841 530.566 213.237 531.238 213.525C531.934 213.813 532.714 213.957 533.578 213.957C534.754 213.957 535.774 213.681 536.638 213.129C537.526 212.577 538.21 211.785 538.69 210.753L540.742 212.229C540.142 213.501 539.206 214.533 537.934 215.325C536.662 216.093 535.15 216.477 533.398 216.477ZM533.398 199.449C532.606 199.449 531.886 199.593 531.238 199.881C530.59 200.145 530.026 200.529 529.546 201.033C529.09 201.537 528.73 202.137 528.466 202.833C528.202 203.505 528.07 204.249 528.07 205.065V205.317H538.33V204.921C538.33 203.265 537.874 201.945 536.962 200.961C536.074 199.953 534.886 199.449 533.398 199.449ZM546.172 216.045V197.469H549.052V200.889H549.232C549.568 200.001 550.168 199.209 551.032 198.513C551.896 197.817 553.084 197.469 554.596 197.469H555.712V200.349H554.02C552.46 200.349 551.236 200.649 550.348 201.249C549.484 201.825 549.052 202.557 549.052 203.445V216.045H546.172ZM564.971 216.477C563.243 216.477 561.791 216.153 560.615 215.505C559.463 214.833 558.467 213.945 557.627 212.841L559.679 211.185C560.399 212.097 561.203 212.805 562.091 213.309C562.979 213.789 564.011 214.029 565.187 214.029C566.411 214.029 567.359 213.765 568.031 213.237C568.727 212.709 569.075 211.965 569.075 211.005C569.075 210.285 568.835 209.673 568.355 209.169C567.899 208.641 567.059 208.281 565.835 208.089L564.359 207.873C563.495 207.753 562.703 207.573 561.983 207.333C561.263 207.069 560.627 206.733 560.075 206.325C559.547 205.893 559.127 205.365 558.815 204.741C558.527 204.117 558.383 203.373 558.383 202.509C558.383 201.597 558.551 200.805 558.887 200.133C559.223 199.437 559.679 198.861 560.255 198.405C560.855 197.949 561.563 197.613 562.379 197.397C563.195 197.157 564.071 197.037 565.007 197.037C566.519 197.037 567.779 197.301 568.787 197.829C569.819 198.357 570.719 199.089 571.487 200.025L569.579 201.753C569.171 201.177 568.571 200.661 567.779 200.205C566.987 199.725 565.991 199.485 564.791 199.485C563.591 199.485 562.679 199.749 562.055 200.277C561.455 200.781 561.155 201.477 561.155 202.365C561.155 203.277 561.455 203.937 562.055 204.345C562.679 204.753 563.567 205.053 564.719 205.245L566.159 205.461C568.223 205.773 569.687 206.373 570.551 207.261C571.415 208.125 571.847 209.265 571.847 210.681C571.847 212.481 571.235 213.897 570.011 214.929C568.787 215.961 567.107 216.477 564.971 216.477Z" fill="#7E7E7E"/>
<path d="M257.903 190.917V206.469C257.903 208.869 258.347 210.693 259.235 211.941C260.123 213.165 261.683 213.777 263.915 213.777C266.147 213.777 267.707 213.165 268.595 211.941C269.483 210.693 269.927 208.869 269.927 206.469V190.917H272.951V205.749C272.951 207.573 272.783 209.157 272.447 210.501C272.135 211.845 271.619 212.961 270.899 213.849C270.179 214.737 269.231 215.397 268.055 215.829C266.903 216.261 265.487 216.477 263.807 216.477C262.127 216.477 260.711 216.261 259.559 215.829C258.431 215.397 257.519 214.737 256.823 213.849C256.127 212.961 255.623 211.845 255.311 210.501C255.023 209.157 254.879 207.573 254.879 205.749V190.917H257.903ZM284.749 216.477C283.021 216.477 281.569 216.153 280.393 215.505C279.241 214.833 278.245 213.945 277.405 212.841L279.457 211.185C280.177 212.097 280.981 212.805 281.869 213.309C282.757 213.789 283.789 214.029 284.965 214.029C286.189 214.029 287.137 213.765 287.809 213.237C288.505 212.709 288.853 211.965 288.853 211.005C288.853 210.285 288.613 209.673 288.133 209.169C287.677 208.641 286.837 208.281 285.613 208.089L284.137 207.873C283.273 207.753 282.481 207.573 281.761 207.333C281.041 207.069 280.405 206.733 279.853 206.325C279.325 205.893 278.905 205.365 278.593 204.741C278.305 204.117 278.161 203.373 278.161 202.509C278.161 201.597 278.329 200.805 278.665 200.133C279.001 199.437 279.457 198.861 280.033 198.405C280.633 197.949 281.341 197.613 282.157 197.397C282.973 197.157 283.849 197.037 284.785 197.037C286.297 197.037 287.557 197.301 288.565 197.829C289.597 198.357 290.497 199.089 291.265 200.025L289.357 201.753C288.949 201.177 288.349 200.661 287.557 200.205C286.765 199.725 285.769 199.485 284.569 199.485C283.369 199.485 282.457 199.749 281.833 200.277C281.233 200.781 280.933 201.477 280.933 202.365C280.933 203.277 281.233 203.937 281.833 204.345C282.457 204.753 283.345 205.053 284.497 205.245L285.937 205.461C288.001 205.773 289.465 206.373 290.329 207.261C291.193 208.125 291.625 209.265 291.625 210.681C291.625 212.481 291.013 213.897 289.789 214.929C288.565 215.961 286.885 216.477 284.749 216.477ZM303.696 216.477C302.424 216.477 301.272 216.249 300.24 215.793C299.232 215.337 298.356 214.689 297.612 213.849C296.892 212.985 296.328 211.965 295.92 210.789C295.536 209.589 295.344 208.245 295.344 206.757C295.344 205.293 295.536 203.961 295.92 202.761C296.328 201.561 296.892 200.541 297.612 199.701C298.356 198.837 299.232 198.177 300.24 197.721C301.272 197.265 302.424 197.037 303.696 197.037C304.944 197.037 306.06 197.265 307.044 197.721C308.028 198.177 308.868 198.813 309.564 199.629C310.26 200.421 310.788 201.369 311.148 202.473C311.532 203.577 311.724 204.789 311.724 206.109V207.477H298.368V208.341C298.368 209.133 298.488 209.877 298.728 210.573C298.992 211.245 299.352 211.833 299.808 212.337C300.288 212.841 300.864 213.237 301.536 213.525C302.232 213.813 303.012 213.957 303.876 213.957C305.052 213.957 306.072 213.681 306.936 213.129C307.824 212.577 308.508 211.785 308.988 210.753L311.04 212.229C310.44 213.501 309.504 214.533 308.232 215.325C306.96 216.093 305.448 216.477 303.696 216.477ZM303.696 199.449C302.904 199.449 302.184 199.593 301.536 199.881C300.888 200.145 300.324 200.529 299.844 201.033C299.388 201.537 299.028 202.137 298.764 202.833C298.5 203.505 298.368 204.249 298.368 205.065V205.317H308.628V204.921C308.628 203.265 308.172 201.945 307.26 200.961C306.372 199.953 305.184 199.449 303.696 199.449ZM316.47 216.045V197.469H319.35V200.889H319.53C319.866 200.001 320.466 199.209 321.33 198.513C322.194 197.817 323.382 197.469 324.894 197.469H326.01V200.349H324.318C322.758 200.349 321.534 200.649 320.646 201.249C319.782 201.825 319.35 202.557 319.35 203.445V216.045H316.47ZM335.268 216.477C333.54 216.477 332.088 216.153 330.912 215.505C329.76 214.833 328.764 213.945 327.924 212.841L329.976 211.185C330.696 212.097 331.5 212.805 332.388 213.309C333.276 213.789 334.308 214.029 335.484 214.029C336.708 214.029 337.656 213.765 338.328 213.237C339.024 212.709 339.372 211.965 339.372 211.005C339.372 210.285 339.132 209.673 338.652 209.169C338.196 208.641 337.356 208.281 336.132 208.089L334.656 207.873C333.792 207.753 333 207.573 332.28 207.333C331.56 207.069 330.924 206.733 330.372 206.325C329.844 205.893 329.424 205.365 329.112 204.741C328.824 204.117 328.68 203.373 328.68 202.509C328.68 201.597 328.848 200.805 329.184 200.133C329.52 199.437 329.976 198.861 330.552 198.405C331.152 197.949 331.86 197.613 332.676 197.397C333.492 197.157 334.368 197.037 335.304 197.037C336.816 197.037 338.076 197.301 339.084 197.829C340.116 198.357 341.016 199.089 341.784 200.025L339.876 201.753C339.468 201.177 338.868 200.661 338.076 200.205C337.284 199.725 336.288 199.485 335.088 199.485C333.888 199.485 332.976 199.749 332.352 200.277C331.752 200.781 331.452 201.477 331.452 202.365C331.452 203.277 331.752 203.937 332.352 204.345C332.976 204.753 333.864 205.053 335.016 205.245L336.456 205.461C338.52 205.773 339.984 206.373 340.848 207.261C341.712 208.125 342.144 209.265 342.144 210.681C342.144 212.481 341.532 213.897 340.308 214.929C339.084 215.961 337.404 216.477 335.268 216.477Z" fill="#7E7E7E"/>
<defs>
<clipPath id="clip0">
<rect width="157.445" height="196.618" fill="white" transform="translate(461.036)"/>
</clipPath>
</defs>
</svg>
