<svg width="361" height="295" viewBox="0 0 361 295" fill="none" xmlns="http://www.w3.org/2000/svg">
<g clip-path="url(#clip0)">
<g opacity="0.5">
<path opacity="0.5" d="M355.194 0.00380663L228.278 0.31252C227.593 0.31402 226.915 0.450166 226.283 0.713189C225.651 0.976211 225.077 1.36096 224.594 1.84546C224.111 2.32996 223.728 2.90473 223.468 3.53695C223.207 4.16917 223.074 4.84646 223.075 5.53015L223.633 242.545C223.634 243.231 223.772 243.909 224.037 244.541C224.302 245.173 224.69 245.747 225.177 246.229C225.665 246.711 226.243 247.093 226.879 247.351C227.514 247.61 228.195 247.741 228.881 247.736L355.797 247.428C356.482 247.426 357.16 247.29 357.792 247.027C358.424 246.764 358.998 246.379 359.481 245.895C359.964 245.41 360.347 244.835 360.607 244.203C360.868 243.571 361.002 242.894 361 242.21L360.424 5.19095C360.419 3.81084 359.865 2.4892 358.884 1.51653C357.904 0.543863 356.577 -0.000243932 355.194 0.00380663V0.00380663Z" fill="url(#paint0_linear)"/>
</g>
<path d="M353.355 3.23399L230.13 3.53463C227.255 3.54165 224.93 5.87481 224.937 8.74589L225.501 239.201C225.508 242.072 227.844 244.394 230.72 244.387L353.945 244.086C356.82 244.079 359.146 241.746 359.139 238.875L358.575 8.41984C358.568 5.54876 356.231 3.22697 353.355 3.23399Z" fill="white"/>
<path opacity="0.3" d="M325.33 9.34524C324.95 11.8999 323.667 14.2345 321.713 15.9268C319.759 17.6192 317.263 18.5576 314.676 18.5723L268.513 18.679C265.929 18.6744 263.431 17.7472 261.471 16.0649C259.511 14.3826 258.218 12.0561 257.826 9.50531L233.377 9.56629C232.711 9.56779 232.051 9.70039 231.435 9.95652C230.82 10.2126 230.261 10.5873 229.791 11.059C229.321 11.5308 228.948 12.0904 228.694 12.706C228.44 13.3216 228.311 13.981 228.312 14.6467L228.843 233.288C228.844 233.954 228.977 234.614 229.234 235.229C229.491 235.844 229.867 236.402 230.34 236.872C230.814 237.341 231.375 237.713 231.993 237.966C232.61 238.219 233.271 238.348 233.938 238.345L350.74 238.063C351.406 238.062 352.066 237.929 352.682 237.673C353.297 237.417 353.856 237.042 354.326 236.571C354.797 236.099 355.169 235.539 355.423 234.924C355.677 234.308 355.807 233.649 355.805 232.983L355.274 14.3418C355.273 13.6761 355.14 13.0173 354.884 12.4029C354.627 11.7884 354.252 11.2305 353.779 10.7608C353.307 10.2912 352.746 9.91908 352.13 9.66573C351.513 9.41238 350.853 9.28275 350.186 9.28425L325.33 9.34524Z" fill="#00C8DD"/>
<path d="M304.667 12.1124L276.416 12.5359C275.995 12.5422 275.658 12.8885 275.664 13.3095L275.669 13.6448C275.676 14.0658 276.023 14.4019 276.444 14.3956L304.695 13.9721C305.116 13.9658 305.453 13.6195 305.447 13.1985L305.442 12.8632C305.435 12.4422 305.088 12.1061 304.667 12.1124Z" fill="#DBDBDB"/>
<path d="M311.789 13.8659C312.406 13.8567 312.9 13.3493 312.89 12.7326C312.881 12.1159 312.373 11.6235 311.755 11.6328C311.138 11.642 310.644 12.1494 310.654 12.7661C310.663 13.3828 311.171 13.8752 311.789 13.8659Z" fill="#DBDBDB"/>
<g opacity="0.5">
<path opacity="0.5" d="M5.80572 0.00435595L132.722 0.313069C133.407 0.314569 134.085 0.450716 134.717 0.713738C135.349 0.976761 135.923 1.36151 136.406 1.84601C136.889 2.33051 137.272 2.90528 137.532 3.5375C137.793 4.16972 137.926 4.84701 137.925 5.5307L137.368 242.546C137.366 243.231 137.228 243.909 136.963 244.542C136.698 245.174 136.31 245.747 135.823 246.23C135.335 246.712 134.757 247.093 134.121 247.352C133.486 247.611 132.805 247.741 132.119 247.737L5.20263 247.428C4.51791 247.427 3.84019 247.291 3.20816 247.028C2.57614 246.765 2.00219 246.38 1.51908 245.895C1.03597 245.411 0.653165 244.836 0.392523 244.204C0.131882 243.572 -0.00149283 242.894 1.26033e-05 242.211L0.576386 5.1915C0.581439 3.81139 1.1351 2.48975 2.11569 1.51708C3.09627 0.544412 4.42352 0.000305384 5.80572 0.00435595V0.00435595Z" fill="url(#paint1_linear)"/>
</g>
<path d="M7.05658 244.087L130.282 244.387C133.157 244.394 135.494 242.073 135.501 239.201L136.065 8.74599C136.072 5.8749 133.746 3.54174 130.871 3.53472L7.64599 3.23408C4.77055 3.22707 2.43385 5.54886 2.42683 8.41994L1.86287 238.875C1.85584 241.746 4.18115 244.08 7.05658 244.087Z" fill="white"/>
<path opacity="0.3" d="M35.6702 9.34524C36.0502 11.8999 37.3332 14.2345 39.2871 15.9268C41.2411 17.6192 43.737 18.5576 46.3236 18.5723L92.483 18.6828C95.0676 18.6782 97.5653 17.7511 99.5253 16.0688C101.485 14.3864 102.778 12.0599 103.171 9.50912L127.619 9.5701C128.285 9.5716 128.945 9.7042 129.561 9.96032C130.176 10.2165 130.735 10.5911 131.205 11.0629C131.676 11.5346 132.048 12.0943 132.302 12.7098C132.556 13.3254 132.686 13.9849 132.684 14.6505L132.153 233.292C132.151 233.957 132.018 234.616 131.761 235.23C131.504 235.845 131.129 236.402 130.656 236.872C130.183 237.341 129.622 237.713 129.005 237.965C128.389 238.218 127.728 238.347 127.062 238.345L10.2602 238.063C9.59352 238.062 8.93367 237.929 8.31831 237.673C7.70296 237.417 7.14416 237.042 6.67381 236.571C6.20346 236.099 5.83078 235.539 5.57704 234.924C5.32331 234.308 5.19348 233.649 5.19499 232.983L5.72556 14.3418C5.72706 13.6761 5.85986 13.0173 6.11638 12.4029C6.37289 11.7884 6.7481 11.2305 7.22057 10.7608C7.69305 10.2912 8.25354 9.91908 8.87004 9.66573C9.48655 9.41238 10.147 9.28275 10.8137 9.28425L35.6702 9.34524Z" fill="#00C8DD"/>
<path d="M56.3012 13.9673L84.5517 14.3907C84.9733 14.397 85.3202 14.0609 85.3265 13.64L85.3316 13.3046C85.3379 12.8837 85.0013 12.5373 84.5797 12.531L56.3292 12.1076C55.9076 12.1013 55.5607 12.4374 55.5544 12.8583L55.5494 13.1937C55.543 13.6146 55.8797 13.961 56.3012 13.9673Z" fill="#DBDBDB"/>
<path d="M50.3439 12.7601C50.3531 12.1435 49.86 11.6361 49.2424 11.6268C48.6248 11.6176 48.1166 12.11 48.1073 12.7266C48.0981 13.3433 48.5912 13.8507 49.2088 13.86C49.8264 13.8692 50.3346 13.3768 50.3439 12.7601Z" fill="#DBDBDB"/>
<g opacity="0.5">
<path opacity="0.5" d="M243.355 47.2636L116.439 47.5723C115.754 47.5738 115.076 47.7099 114.444 47.973C113.812 48.236 113.238 48.6207 112.755 49.1052C112.272 49.5897 111.889 50.1645 111.629 50.7967C111.368 51.4289 111.235 52.1062 111.236 52.7899L111.793 289.805C111.795 290.491 111.933 291.169 112.198 291.801C112.463 292.433 112.85 293.007 113.338 293.489C113.826 293.971 114.404 294.353 115.039 294.611C115.675 294.87 116.355 295.001 117.042 294.996L243.958 294.687C244.643 294.686 245.321 294.55 245.953 294.287C246.585 294.024 247.159 293.639 247.642 293.154C248.125 292.67 248.508 292.095 248.768 291.463C249.029 290.831 249.162 290.154 249.161 289.47L248.585 52.4507C248.579 51.0706 248.026 49.749 247.045 48.7763C246.065 47.8036 244.737 47.2595 243.355 47.2636V47.2636Z" fill="url(#paint2_linear)"/>
</g>
<path d="M45 59H12V91H45V59Z" fill="url(#paint3_linear)"/>
<path d="M45 123H13V156H45V123Z" fill="url(#paint4_linear)"/>
<path d="M45 187H13V220H45V187Z" fill="url(#paint5_linear)"/>
<path d="M44 60H13V89H44V60Z" fill="#00C8DD"/>
<path d="M44 188H14V218H44V188Z" fill="#00C8DD"/>
<path d="M105 69H64V72H105V69Z" fill="#E0E0E0"/>
<path d="M132 74H64V77H132V74Z" fill="#E0E0E0"/>
<path d="M127 78H64V81H127V78Z" fill="#E0E0E0"/>
<path d="M105 133H64V136H105V133Z" fill="#E0E0E0"/>
<path d="M132 138H64V141H132V138Z" fill="#E0E0E0"/>
<path d="M127 142H64V145H127V142Z" fill="#E0E0E0"/>
<path d="M105 197H64V200H105V197Z" fill="#E0E0E0"/>
<path d="M132 202H64V205H132V202Z" fill="#E0E0E0"/>
<path d="M127 206H64V209H127V206Z" fill="#E0E0E0"/>
<path d="M44 124H14V154H44V124Z" fill="#35FDB5"/>
<path d="M23 136.6L27.8 141L34.6 131L37 133L27.8 145L21 137.4L23 136.6Z" fill="white"/>
<path d="M264 59H231V91H264V59Z" fill="url(#paint6_linear)"/>
<path d="M264 123H232V156H264V123Z" fill="url(#paint7_linear)"/>
<path d="M264 187H232V220H264V187Z" fill="url(#paint8_linear)"/>
<path d="M263 60H233V90H263V60Z" fill="#00C8DD"/>
<path d="M263 124H233V154H263V124Z" fill="#00C8DD"/>
<path d="M263 188H233V218H263V188Z" fill="#35FDB5"/>
<path d="M324 69H283V72H324V69Z" fill="#E0E0E0"/>
<path d="M351 74H283V77H351V74Z" fill="#E0E0E0"/>
<path d="M346 78H283V81H346V78Z" fill="#E0E0E0"/>
<path d="M324 133H283V136H324V133Z" fill="#E0E0E0"/>
<path d="M351 138H283V141H351V138Z" fill="#E0E0E0"/>
<path d="M346 142H283V145H346V142Z" fill="#E0E0E0"/>
<path d="M324 197H283V200H324V197Z" fill="#E0E0E0"/>
<path d="M351 202H283V205H351V202Z" fill="#E0E0E0"/>
<path d="M346 206H283V209H346V206Z" fill="#E0E0E0"/>
<path d="M242 202.6L246.8 207L253.6 197L256 199L246.8 211L240 203.4L242 202.6Z" fill="white"/>
<path d="M241.518 50.4959L118.293 50.7965C115.417 50.8035 113.092 53.1367 113.099 56.0078L113.663 286.463C113.67 289.334 116.007 291.656 118.882 291.649L242.107 291.348C244.983 291.341 247.308 289.008 247.301 286.137L246.737 55.6817C246.73 52.8106 244.393 50.4888 241.518 50.4959Z" fill="white"/>
<path opacity="0.4" d="M213.491 56.605C213.111 59.1597 211.828 61.4943 209.874 63.1866C207.92 64.879 205.424 65.8173 202.837 65.8321L156.674 65.9388C154.089 65.9342 151.592 65.007 149.632 63.3247C147.672 61.6424 146.379 59.3158 145.986 56.7651L121.538 56.826C120.872 56.8275 120.212 56.9602 119.596 57.2163C118.981 57.4724 118.422 57.847 117.952 58.3188C117.481 58.7906 117.109 59.3502 116.855 59.9658C116.601 60.5814 116.472 61.2408 116.473 61.9065L117.004 280.548C117.005 281.214 117.138 281.873 117.395 282.488C117.652 283.103 118.028 283.662 118.501 284.131C118.975 284.601 119.536 284.973 120.153 285.226C120.771 285.479 121.432 285.608 122.099 285.605L238.901 285.323C239.567 285.322 240.227 285.189 240.843 284.933C241.458 284.677 242.017 284.302 242.487 283.83C242.957 283.359 243.33 282.799 243.584 282.183C243.838 281.568 243.967 280.908 243.966 280.243L243.435 61.6016C243.434 60.9359 243.301 60.277 243.045 59.6626C242.788 59.0482 242.413 58.4902 241.94 58.0206C241.468 57.551 240.907 57.1788 240.291 56.9255C239.674 56.6721 239.014 56.5425 238.347 56.544L213.491 56.605Z" fill="#00C8DD"/>
<path d="M153 104H120V136H153V104Z" fill="url(#paint9_linear)"/>
<path d="M153 168H121V201H153V168Z" fill="url(#paint10_linear)"/>
<path d="M153 232H121V265H153V232Z" fill="url(#paint11_linear)"/>
<path d="M152 105H122V135H152V105Z" fill="#35FDB5"/>
<path d="M152 169H122V199H152V169Z" fill="#00C8DD"/>
<path d="M152 233H122V263H152V233Z" fill="#00C8DD"/>
<path d="M213 114H172V117H213V114Z" fill="#E0E0E0"/>
<path d="M240 119H172V122H240V119Z" fill="#E0E0E0"/>
<path d="M235 123H172V126H235V123Z" fill="#E0E0E0"/>
<path d="M213 178H172V181H213V178Z" fill="#E0E0E0"/>
<path d="M240 183H172V186H240V183Z" fill="#E0E0E0"/>
<path d="M235 187H172V190H235V187Z" fill="#E0E0E0"/>
<path d="M213 242H172V245H213V242Z" fill="#E0E0E0"/>
<path d="M240 247H172V250H240V247Z" fill="#E0E0E0"/>
<path d="M235 251H172V254H235V251Z" fill="#E0E0E0"/>
<path d="M130.25 118.396L135.65 123.429L143.3 112L146 114.286L135.65 128L128 119.314L130.25 118.396Z" fill="url(#paint12_linear)"/>
<path d="M131 118.6L135.8 123L142.6 113L145 115L135.8 127L129 119.4L131 118.6Z" fill="white"/>
<path d="M230 80H130V91H230V80Z" fill="#F5F5F5"/>
<path d="M120 36H20V47H120V36Z" fill="#F5F5F5"/>
<path d="M344 36H244V47H344V36Z" fill="#F5F5F5"/>
<path d="M192.825 59.3698L164.575 59.7932C164.153 59.7996 163.817 60.1459 163.823 60.5669L163.828 60.9022C163.834 61.3231 164.181 61.6593 164.603 61.6529L192.853 61.2295C193.275 61.2232 193.612 60.8768 193.605 60.4559L193.6 60.1205C193.594 59.6996 193.247 59.3635 192.825 59.3698Z" fill="#DBDBDB"/>
<path d="M199.947 61.1233C200.565 61.1141 201.058 60.6066 201.049 59.99C201.04 59.3733 200.531 58.8809 199.914 58.8902C199.296 58.8994 198.803 59.4068 198.812 60.0235C198.822 60.6402 199.33 61.1326 199.947 61.1233Z" fill="#DBDBDB"/>
<g opacity="0.5">
<path opacity="0.5" d="M202.83 244.264C214.213 244.264 223.442 235.05 223.442 223.684C223.442 212.317 214.213 203.103 202.83 203.103C191.446 203.103 182.218 212.317 182.218 223.684C182.218 235.05 191.446 244.264 202.83 244.264Z" fill="url(#paint13_linear)"/>
</g>
</g>
<defs>
<linearGradient id="paint0_linear" x1="238.048" y1="252.033" x2="345.75" y2="-4.41885" gradientUnits="userSpaceOnUse">
<stop stop-color="#808080" stop-opacity="0.25"/>
<stop offset="0.54" stop-color="#808080" stop-opacity="0.12"/>
<stop offset="1" stop-color="#808080" stop-opacity="0.1"/>
</linearGradient>
<linearGradient id="paint1_linear" x1="53631.6" y1="179700" x2="-40956.4" y2="55350.3" gradientUnits="userSpaceOnUse">
<stop stop-color="#808080" stop-opacity="0.25"/>
<stop offset="0.54" stop-color="#808080" stop-opacity="0.12"/>
<stop offset="1" stop-color="#808080" stop-opacity="0.1"/>
</linearGradient>
<linearGradient id="paint2_linear" x1="64842.1" y1="210984" x2="159428" y2="86633" gradientUnits="userSpaceOnUse">
<stop stop-color="#808080" stop-opacity="0.25"/>
<stop offset="0.54" stop-color="#808080" stop-opacity="0.12"/>
<stop offset="1" stop-color="#808080" stop-opacity="0.1"/>
</linearGradient>
<linearGradient id="paint3_linear" x1="10192.5" y1="7323" x2="10192.5" y2="4699" gradientUnits="userSpaceOnUse">
<stop stop-color="#808080" stop-opacity="0.25"/>
<stop offset="0.54" stop-color="#808080" stop-opacity="0.12"/>
<stop offset="1" stop-color="#808080" stop-opacity="0.1"/>
</linearGradient>
<linearGradient id="paint4_linear" x1="9893.96" y1="12976.5" x2="9893.96" y2="10270.5" gradientUnits="userSpaceOnUse">
<stop stop-color="#808080" stop-opacity="0.25"/>
<stop offset="0.54" stop-color="#808080" stop-opacity="0.12"/>
<stop offset="1" stop-color="#808080" stop-opacity="0.1"/>
</linearGradient>
<linearGradient id="paint5_linear" x1="9902.92" y1="18337" x2="9902.92" y2="15631" gradientUnits="userSpaceOnUse">
<stop stop-color="#808080" stop-opacity="0.25"/>
<stop offset="0.54" stop-color="#808080" stop-opacity="0.12"/>
<stop offset="1" stop-color="#808080" stop-opacity="0.1"/>
</linearGradient>
<linearGradient id="paint6_linear" x1="10411.5" y1="7323" x2="10411.5" y2="4699" gradientUnits="userSpaceOnUse">
<stop stop-color="#808080" stop-opacity="0.25"/>
<stop offset="0.54" stop-color="#808080" stop-opacity="0.12"/>
<stop offset="1" stop-color="#808080" stop-opacity="0.1"/>
</linearGradient>
<linearGradient id="paint7_linear" x1="10113" y1="12976.5" x2="10113" y2="10270.5" gradientUnits="userSpaceOnUse">
<stop stop-color="#808080" stop-opacity="0.25"/>
<stop offset="0.54" stop-color="#808080" stop-opacity="0.12"/>
<stop offset="1" stop-color="#808080" stop-opacity="0.1"/>
</linearGradient>
<linearGradient id="paint8_linear" x1="10121.9" y1="18337" x2="10121.9" y2="15631" gradientUnits="userSpaceOnUse">
<stop stop-color="#808080" stop-opacity="0.25"/>
<stop offset="0.54" stop-color="#808080" stop-opacity="0.12"/>
<stop offset="1" stop-color="#808080" stop-opacity="0.1"/>
</linearGradient>
<linearGradient id="paint9_linear" x1="10300.5" y1="7368" x2="10300.5" y2="4744" gradientUnits="userSpaceOnUse">
<stop stop-color="#808080" stop-opacity="0.25"/>
<stop offset="0.54" stop-color="#808080" stop-opacity="0.12"/>
<stop offset="1" stop-color="#808080" stop-opacity="0.1"/>
</linearGradient>
<linearGradient id="paint10_linear" x1="10002" y1="13021.5" x2="10002" y2="10315.5" gradientUnits="userSpaceOnUse">
<stop stop-color="#808080" stop-opacity="0.25"/>
<stop offset="0.54" stop-color="#808080" stop-opacity="0.12"/>
<stop offset="1" stop-color="#808080" stop-opacity="0.1"/>
</linearGradient>
<linearGradient id="paint11_linear" x1="10010.9" y1="18382" x2="10010.9" y2="15676" gradientUnits="userSpaceOnUse">
<stop stop-color="#808080" stop-opacity="0.25"/>
<stop offset="0.54" stop-color="#808080" stop-opacity="0.12"/>
<stop offset="1" stop-color="#808080" stop-opacity="0.1"/>
</linearGradient>
<linearGradient id="paint12_linear" x1="5681" y1="3402.08" x2="5681" y2="2757.92" gradientUnits="userSpaceOnUse">
<stop stop-color="#808080" stop-opacity="0.25"/>
<stop offset="0.54" stop-color="#808080" stop-opacity="0.12"/>
<stop offset="1" stop-color="#808080" stop-opacity="0.1"/>
</linearGradient>
<linearGradient id="paint13_linear" x1="22087.8" y1="26583.6" x2="22087.8" y2="22138.2" gradientUnits="userSpaceOnUse">
<stop stop-color="#808080" stop-opacity="0.25"/>
<stop offset="0.54" stop-color="#808080" stop-opacity="0.12"/>
<stop offset="1" stop-color="#808080" stop-opacity="0.1"/>
</linearGradient>
<clipPath id="clip0">
<rect width="361" height="295" fill="white"/>
</clipPath>
</defs>
</svg>
